# 3ds Max Wavefront OBJ Exporter v0.97b - (c)2007 guruware
# ì¬‚µ‚½ƒtƒ@ƒCƒ‹ : 04.02.2021 23:11:43

mtllib cource02road.mtl

#
# object Cylinder002c
#

v  78.2311 14.0000 -4.0976
v  80.8149 14.0000 -33.5690
v  68.2311 14.0000 -4.0976
v  90.4742 16.0000 -36.1572
v  86.4345 16.0000 -74.2115
v  80.8149 16.0000 -33.5690
v  95.0948 16.0000 -79.2115
v  70.5282 16.0000 -93.8837
v  77.5993 16.0000 -100.9548
v  48.1608 16.0000 -96.1781
v  50.9513 16.0000 -108.7472
v  22.7100 16.0000 -80.3626
v  23.6092 16.0000 -90.9327
v  -0.5837 16.0000 -83.4293
v  -0.5837 16.0000 -93.4293
v  -23.2937 16.0000 -86.9333
v  -25.8819 16.0000 -96.5926
v  -45.0000 16.0000 -77.9423
v  -50.0000 16.0000 -86.6026
v  -55.5095 16.0000 -65.2600
v  -63.3712 16.0000 -68.9726
v  -57.2792 16.0000 -40.8516
v  -67.0436 16.0000 -40.4093
v  -47.0915 16.0000 -25.4621
v  -56.7508 16.0000 -28.0503
v  -67.4428 16.0000 5.2834
v  -76.2811 16.0000 -0.0749
v  -80.9994 16.0000 20.8142
v  -91.0665 16.0000 18.4493
v  -81.6011 16.0000 45.1388
v  -90.2614 16.0000 50.1388
v  -70.8825 16.0000 54.0628
v  -74.1497 16.0000 62.7087
v  -40.2048 16.0000 47.6723
v  -29.3326 10.0000 52.7320
v  -1.1654 10.0000 33.0806
v  -31.0087 10.0000 44.8538
v  4.6024 10.0000 41.4882
v  22.6764 10.0000 17.0896
v  23.7360 10.0000 28.6495
v  51.8512 10.0000 36.7174
v  52.0313 10.0000 47.8758
v  72.6355 10.0000 34.6182
v  79.4448 10.0000 42.2605
v  75.6308 10.0000 24.4936
v  85.4607 10.0000 25.3167
v  66.6045 10.0000 9.2046
v  76.2304 12.0000 9.3984
v  68.2311 12.0000 -4.0976
v  66.6045 12.0000 9.2046
v  90.4742 14.0000 -36.1572
v  -38.7767 16.0000 56.0143
v  76.2304 10.0000 9.3984
v  78.2311 12.0000 -4.0976
# 54 vertices

vn 0.0000 1.0000 -0.0000
# 1 vertex normals

vt 0.5000 1.0000 0.2500
vt 0.3835 0.9347 0.2500
vt 0.5000 0.9500 0.2500
vt 0.3706 0.9830 0.2500
vt 0.2750 0.8897 0.2500
vt 0.2500 0.9330 0.2500
vt 0.1818 0.8182 0.2500
vt 0.1464 0.8536 0.2500
vt 0.1103 0.7250 0.2500
vt 0.0670 0.7500 0.2500
vt 0.0653 0.6165 0.2500
vt 0.0170 0.6294 0.2500
vt 0.0500 0.5000 0.2500
vt 0.0000 0.5000 0.2500
vt 0.0653 0.3835 0.2500
vt 0.0170 0.3706 0.2500
vt 0.1103 0.2750 0.2500
vt 0.0670 0.2500 0.2500
vt 0.1818 0.1818 0.2500
vt 0.1464 0.1464 0.2500
vt 0.2750 0.1103 0.2500
vt 0.2500 0.0670 0.2500
vt 0.3835 0.0653 0.2500
vt 0.3706 0.0170 0.2500
vt 0.5000 0.0500 0.2500
vt 0.5000 0.0000 0.2500
vt 0.6165 0.0653 0.2500
vt 0.6294 0.0170 0.2500
vt 0.7250 0.1103 0.2500
vt 0.7500 0.0670 0.2500
vt 0.8182 0.1818 0.2500
vt 0.8536 0.1464 0.2500
vt 0.8897 0.2750 0.2500
vt 0.9830 0.3706 0.2500
vt 0.9500 0.5000 0.2500
vt 0.9347 0.3835 0.2500
vt 1.0000 0.5000 0.2500
vt 0.9347 0.6165 0.2500
vt 0.9830 0.6294 0.2500
vt 0.8897 0.7250 0.2500
vt 0.9330 0.7500 0.2500
vt 0.8182 0.8182 0.2500
vt 0.8536 0.8536 0.2500
vt 0.7250 0.8897 0.2500
vt 0.7500 0.9330 0.2500
vt 0.6165 0.9347 0.2500
vt 0.6294 0.9830 0.2500
vt 0.9330 0.2500 0.2500
# 48 texture coords

g Cylinder002c
usemtl wire_086086086
s 1
f 1/1/1 2/2/1 3/3/1 
f 4/4/1 5/5/1 6/2/1 
f 7/6/1 8/7/1 5/5/1 
f 9/8/1 10/9/1 8/7/1 
f 11/10/1 12/11/1 10/9/1 
f 13/12/1 14/13/1 12/11/1 
f 15/14/1 16/15/1 14/13/1 
f 17/16/1 18/17/1 16/15/1 
f 19/18/1 20/19/1 18/17/1 
f 21/20/1 22/21/1 20/19/1 
f 23/22/1 24/23/1 22/21/1 
f 25/24/1 26/25/1 24/23/1 
f 27/26/1 28/27/1 26/25/1 
f 29/28/1 30/29/1 28/27/1 
f 31/30/1 32/31/1 30/29/1 
f 33/32/1 34/33/1 32/31/1 
f 35/34/1 36/35/1 37/36/1 
f 38/37/1 39/38/1 36/35/1 
f 40/39/1 41/40/1 39/38/1 
f 42/41/1 43/42/1 41/40/1 
f 44/43/1 45/44/1 43/42/1 
f 46/45/1 47/46/1 45/44/1 
f 48/47/1 49/3/1 50/46/1 
f 1/1/1 51/4/1 2/2/1 
f 4/4/1 7/6/1 5/5/1 
f 7/6/1 9/8/1 8/7/1 
f 9/8/1 11/10/1 10/9/1 
f 11/10/1 13/12/1 12/11/1 
f 13/12/1 15/14/1 14/13/1 
f 15/14/1 17/16/1 16/15/1 
f 17/16/1 19/18/1 18/17/1 
f 19/18/1 21/20/1 20/19/1 
f 21/20/1 23/22/1 22/21/1 
f 23/22/1 25/24/1 24/23/1 
f 25/24/1 27/26/1 26/25/1 
f 27/26/1 29/28/1 28/27/1 
f 29/28/1 31/30/1 30/29/1 
f 31/30/1 33/32/1 32/31/1 
f 33/32/1 52/48/1 34/33/1 
f 35/34/1 38/37/1 36/35/1 
f 38/37/1 40/39/1 39/38/1 
f 40/39/1 42/41/1 41/40/1 
f 42/41/1 44/43/1 43/42/1 
f 44/43/1 46/45/1 45/44/1 
f 46/45/1 53/47/1 47/46/1 
f 48/47/1 54/1/1 49/3/1 
# 0 polygons - 46 triangles

