# Blender v3.1.2 OBJ File: ''
# www.blender.org
mtllib untitled.mtl
o Circle_0_Circle_0.002
v -4.585290 1.355210 -0.912010
v -4.290700 1.818560 -1.777140
v -3.596130 2.355110 -1.567430
v -3.874020 1.927800 -0.910880
v -0.912070 0.308321 4.690620
v -1.789090 0.135661 4.429111
v -1.688430 0.218110 3.133520
v -0.999380 0.195130 3.300281
v -4.675120 0.974730 0.000060
v -4.585290 1.355210 -0.912010
v -3.874020 1.927800 -0.910880
v -3.955900 1.597700 -0.196980
v -0.685620 4.617800 -3.445911
v 0.000450 4.958580 -3.291531
v -0.194890 5.012210 -2.670151
v -0.735530 4.712820 -2.794961
v 1.143420 5.327040 -2.755041
v 1.628060 5.397700 -2.431481
v 1.102040 5.397700 -2.032901
v 0.712680 5.353920 -2.273031
v -4.585290 0.658450 0.912130
v -4.675120 0.974730 0.000060
v -3.955900 1.597700 -0.196980
v -3.885330 1.332610 0.519610
v -1.444770 4.166700 -3.486481
v -0.685620 4.617800 -3.445911
v -0.735530 4.712820 -2.794961
v -1.332310 4.329510 -2.831511
v 0.610000 5.186260 -3.060361
v 1.143420 5.327040 -2.755041
v 0.712680 5.353920 -2.273031
v 0.285130 5.225370 -2.488901
v -4.319250 0.408050 1.789150
v -4.585290 0.658450 0.912130
v -3.885330 1.332610 0.519610
v -3.676310 1.125310 1.208660
v -2.250160 3.620080 -3.366361
v -1.444770 4.166700 -3.486481
v -1.332310 4.329510 -2.831511
v -1.962900 3.873800 -2.745131
v 0.000450 4.958580 -3.291531
v 0.610000 5.186260 -3.060361
v 0.285130 5.225370 -2.488901
v -0.194890 5.012210 -2.670151
v -3.887220 0.222990 2.597420
v -4.319250 0.408050 1.789150
v -3.676310 1.125310 1.208660
v -3.336870 0.970420 1.842370
v -3.046120 3.010950 -3.045311
v -2.250160 3.620080 -3.366361
v -1.962900 3.873800 -2.745131
v -2.586690 3.369051 -2.508621
v -3.305810 0.084620 3.317000
v -3.887220 0.222990 2.597420
v -3.336870 0.970420 1.842370
v -2.880080 0.789090 2.381960
v -3.754560 2.390020 -2.508311
v -3.046120 3.010950 -3.045311
v -2.586690 3.369051 -2.508621
v -3.150160 2.849330 -2.111871
v -2.597360 0.033581 3.940140
v -3.305810 0.084620 3.317000
v -2.880080 0.789090 2.381960
v -2.323460 0.467240 2.820520
v -4.290700 1.818560 -1.777140
v -3.754560 2.390020 -2.508311
v -3.150160 2.849330 -2.111871
v -3.596130 2.355110 -1.567430
v -1.789090 0.135661 4.429111
v -2.597360 0.033581 3.940140
v -2.323460 0.467240 2.820520
v -1.688430 0.218110 3.133520
v 4.598430 1.355210 0.843290
v 4.316840 1.818560 1.712880
v 3.619250 2.355111 1.513930
v 3.887230 1.927800 0.852860
v 0.841770 0.308319 -4.703741
v 1.722610 0.135659 -4.455390
v 1.641350 0.465650 -3.158441
v 0.949880 0.195130 -3.314871
v 4.674600 0.974730 -0.070020
v 4.598430 1.355210 0.843290
v 3.887230 1.927800 0.852860
v 3.958410 1.597700 0.137750
v 0.737910 4.617801 3.440820
v 0.049760 4.958581 3.297800
v 0.235830 5.012211 2.673870
v 0.778130 4.712821 2.789560
v -1.100890 5.327041 2.779949
v -1.590280 5.397701 2.463949
v -1.070290 5.397701 2.057539
v -0.677400 5.353921 2.291650
v 4.571130 0.658450 -0.980650
v 4.674600 0.974730 -0.070020
v 3.958410 1.597700 0.137750
v 3.877110 1.332610 -0.577700
v 1.497400 4.166701 3.468790
v 0.737910 4.617801 3.440820
v 0.778130 4.712821 2.789560
v 1.375220 4.329511 2.815990
v -0.563060 5.186261 3.076590
v -1.100890 5.327041 2.779949
v -0.677400 5.353921 2.291650
v -0.246730 5.225371 2.500610
v 4.291990 0.408050 -1.853590
v 4.571130 0.658450 -0.980650
v 3.877110 1.332610 -0.577700
v 3.657810 1.125310 -1.263540
v 2.300720 3.620081 3.335300
v 1.497400 4.166701 3.468790
v 1.375220 4.329511 2.815990
v 2.004260 3.873801 2.718930
v 0.049760 4.958581 3.297800
v -0.563060 5.186261 3.076590
v -0.246730 5.225371 2.500610
v 0.235830 5.012211 2.673870
v 3.847920 0.222990 -2.655300
v 4.291990 0.408050 -1.853590
v 3.657810 1.125310 -1.263540
v 3.308930 0.970420 -1.892100
v 3.091610 3.010951 3.001150
v 2.300720 3.620081 3.335300
v 2.004260 3.873801 2.718930
v 2.624270 3.369051 2.471910
v 3.255800 0.084620 -3.366101
v 3.847920 0.222990 -2.655300
v 3.308930 0.970420 -1.892100
v 2.844110 0.789090 -2.424800
v 3.791780 2.390020 2.452610
v 3.091610 3.010951 3.001150
v 2.624270 3.369051 2.471910
v 3.181590 2.849330 2.065740
v 2.538100 0.033579 -3.978570
v 3.255800 0.084620 -3.366101
v 2.844110 0.789090 -2.424800
v 2.280990 0.219710 -2.854980
v 4.316840 1.818560 1.712880
v 3.791780 2.390020 2.452610
v 3.181590 2.849330 2.065740
v 3.619250 2.355111 1.513930
v 1.722610 0.135659 -4.455390
v 2.538100 0.033579 -3.978570
v 2.280990 0.219710 -2.854980
v 1.641350 0.465650 -3.158441
v -5.224300 0.061981 5.224300
v 5.224300 0.061981 5.224300
v 5.224300 0.061979 -5.224300
v -5.224300 0.061979 -5.224300
v 0.572030 1.355210 -4.660310
v 1.456160 1.818560 -4.428161
v 1.297020 2.355110 -3.719911
v 0.621850 1.927800 -3.950701
v -4.753480 0.308320 -0.595710
v -4.555370 0.135660 -1.489200
v -3.255910 0.218110 -1.481480
v -3.372950 0.195130 -0.782260
v -0.344130 0.974729 -4.684670
v 0.572030 1.355210 -4.660310
v 0.621850 1.927800 -3.950701
v -0.096150 1.597700 -3.981391
v 3.383920 4.617801 -0.944351
v 3.280070 4.958580 -0.247551
v 2.646620 5.012211 -0.397521
v 2.731420 4.712821 -0.947091
v 2.828180 5.327041 0.932869
v 2.540400 5.397701 1.439779
v 2.105210 5.397701 0.943629
v 2.316700 5.353920 0.537859
v -1.247430 0.658450 -4.529820
v -0.344130 0.974729 -4.684670
v -0.096150 1.597700 -3.981391
v -0.805850 1.332610 -3.859731
v 3.368850 4.166700 -1.706151
v 3.383920 4.617801 -0.944351
v 2.731420 4.712821 -0.947091
v 2.724010 4.329511 -1.546571
v 3.093910 5.186261 0.378079
v 2.828180 5.327041 0.932869
v 2.316700 5.353920 0.537859
v 2.500950 5.225370 0.095289
v -2.103180 0.408049 -4.201721
v -1.247430 0.658450 -4.529820
v -0.805850 1.332610 -3.859731
v -1.478180 1.125310 -3.601950
v 3.190110 3.620080 -2.502671
v 3.368850 4.166700 -1.706151
v 2.724010 4.329511 -1.546571
v 2.591500 3.873800 -2.171061
v 3.280070 4.958580 -0.247551
v 3.093910 5.186261 0.378079
v 2.500950 5.225370 0.095289
v 2.646620 5.012211 -0.397521
v -2.878470 0.222990 -3.712981
v -2.103180 0.408049 -4.201721
v -1.478180 1.125310 -3.601950
v -2.085980 0.970420 -3.218060
v 2.811720 3.010950 -3.275311
v 3.190110 3.620080 -2.502671
v 2.591500 3.873800 -2.171061
v 2.309790 3.369050 -2.777951
v -3.554620 0.084620 -3.081590
v -2.878470 0.222990 -3.712981
v -2.085980 0.970420 -3.218060
v -2.591520 0.789090 -2.723830
v 2.224430 2.390020 -3.944861
v 2.811720 3.010950 -3.275311
v 2.309790 3.369050 -2.777951
v 1.872720 2.849330 -3.312991
v -4.125480 0.033580 -2.330370
v -3.554620 0.084620 -3.081590
v -2.591520 0.789090 -2.723830
v -2.989140 0.467240 -2.137270
v 1.456160 1.818560 -4.428161
v 2.224430 2.390020 -3.944861
v 1.872720 2.849330 -3.312991
v 1.297020 2.355110 -3.719911
v -4.555370 0.135660 -1.489200
v -4.125480 0.033580 -2.330370
v -2.989140 0.467240 -2.137270
v -3.255910 0.218110 -1.481480
v -0.521810 1.355211 4.625441
v -1.409160 1.818561 4.406981
v -1.260290 2.355111 3.697420
v -0.582170 1.927801 3.916840
v 4.742280 0.308320 0.481600
v 4.557570 0.135660 1.377950
v 3.258130 0.218110 1.389670
v 3.364700 0.195130 0.688790
v 0.394620 0.974731 4.636080
v -0.521810 1.355211 4.625441
v -0.582170 1.927801 3.916840
v 0.136140 1.597701 3.936590
v -3.383330 4.617801 0.968179
v -3.288850 4.958580 0.272999
v -2.652900 5.012211 0.414379
v -2.730510 4.712821 0.962179
v -2.853170 5.327041 -0.909741
v -2.572720 5.397701 -1.420111
v -2.130150 5.397701 -0.930521
v -2.335720 5.353920 -0.522131
v 1.295500 0.658451 4.467741
v 0.394620 0.974731 4.636080
v 0.136140 1.597701 3.936590
v 0.843940 1.332611 3.804330
v -3.358130 4.166701 1.726030
v -3.383330 4.617801 0.968179
v -2.730510 4.712821 0.962179
v -2.715340 4.329511 1.558030
v -3.111240 5.186261 -0.352961
v -2.853170 5.327041 -0.909741
v -2.335720 5.353920 -0.522131
v -2.513830 5.225370 -0.078281
v 2.146240 0.408051 4.126871
v 1.295500 0.658451 4.467741
v 0.843940 1.332611 3.804330
v 1.512340 1.125311 3.536520
v -3.168830 3.620081 2.515950
v -3.358130 4.166701 1.726030
v -2.715340 4.329511 1.558030
v -2.574770 3.873801 2.176820
v -3.288850 4.958580 0.272999
v -3.111240 5.186261 -0.352961
v -2.513830 5.225370 -0.078281
v -2.652900 5.012211 0.414379
v 2.914130 0.222991 3.626580
v 2.146240 0.408051 4.126871
v 1.512340 1.125311 3.536520
v 2.114330 0.970420 3.143570
v -2.780180 3.010951 3.279240
v -3.168830 3.620081 2.515950
v -2.574770 3.873801 2.176820
v -2.285210 3.369051 2.775950
v 3.580750 0.084620 2.985130
v 2.914130 0.222991 3.626580
v 2.114330 0.970420 3.143570
v 2.612410 0.789090 2.641830
v -2.183950 2.390021 3.937030
v -2.780180 3.010951 3.279240
v -2.285210 3.369051 2.775950
v -1.841240 2.849331 3.301390
v 4.140310 0.033580 2.225460
v 3.580750 0.084620 2.985130
v 2.612410 0.789090 2.641830
v 3.001210 0.467240 2.049390
v -1.409160 1.818561 4.406981
v -2.183950 2.390021 3.937030
v -1.841240 2.849331 3.301390
v -1.260290 2.355111 3.697420
v 4.557570 0.135660 1.377950
v 4.140310 0.033580 2.225460
v 3.001210 0.467240 2.049390
v 3.258130 0.218110 1.389670
vt 0.006350 0.994100
vt 0.996110 0.994100
vt 0.996110 0.004340
vt 0.006350 0.004340
vt 0.041820 0.355000
vt 0.070090 0.261800
vt 0.138410 0.281610
vt 0.116200 0.354830
vt 0.451190 0.937640
vt 0.338950 0.922550
vt 0.349640 0.784880
vt 0.422860 0.802600
vt 0.032270 0.451910
vt 0.041820 0.355000
vt 0.116200 0.354830
vt 0.108700 0.430980
vt 0.432140 -0.035320
vt 0.529060 -0.044870
vt 0.499010 0.040670
vt 0.422860 0.048170
vt 0.719170 -0.007050
vt 0.805050 0.038850
vt 0.715850 0.106450
vt 0.648370 0.070380
vt 0.041820 0.548830
vt 0.032270 0.451910
vt 0.108700 0.430980
vt 0.116200 0.507120
vt 0.338950 -0.007050
vt 0.432140 -0.035320
vt 0.422860 0.048170
vt 0.349640 0.070380
vt 0.625970 -0.035320
vt 0.719170 -0.007050
vt 0.648370 0.070380
vt 0.575150 0.048170
vt 0.070090 0.642020
vt 0.041820 0.548830
vt 0.116200 0.507120
vt 0.138410 0.580340
vt 0.253060 0.038850
vt 0.338950 -0.007050
vt 0.349640 0.070380
vt 0.282160 0.106450
vt 0.529060 -0.044870
vt 0.625970 -0.035320
vt 0.575150 0.048170
vt 0.499010 0.040670
vt 0.116000 0.727910
vt 0.070090 0.642020
vt 0.138410 0.580340
vt 0.174480 0.647680
vt 0.177780 0.100640
vt 0.253060 0.038850
vt 0.282160 0.106450
vt 0.223020 0.154990
vt 0.177780 0.804380
vt 0.116000 0.727910
vt 0.174480 0.647680
vt 0.223020 0.705020
vt 0.116000 0.175920
vt 0.177780 0.100640
vt 0.223020 0.154990
vt 0.174480 0.214130
vt 0.253060 0.870590
vt 0.177780 0.804380
vt 0.223020 0.705020
vt 0.282160 0.751620
vt 0.070090 0.261800
vt 0.116000 0.175920
vt 0.174480 0.214130
vt 0.138410 0.281610
vt 0.338950 0.922550
vt 0.253060 0.870590
vt 0.282160 0.751620
vt 0.349640 0.784880
vt 0.041820 0.355000
vt 0.070090 0.261800
vt 0.138410 0.281610
vt 0.116200 0.354830
vt 0.451190 0.937640
vt 0.338950 0.922550
vt 0.349640 0.784880
vt 0.422860 0.802600
vt 0.032270 0.451910
vt 0.041820 0.355000
vt 0.116200 0.354830
vt 0.108700 0.430980
vt 0.432140 -0.035320
vt 0.529060 -0.044870
vt 0.499010 0.040670
vt 0.422860 0.048170
vt 0.719170 -0.007050
vt 0.805050 0.038850
vt 0.715850 0.106450
vt 0.648370 0.070380
vt 0.041820 0.548830
vt 0.032270 0.451910
vt 0.108700 0.430980
vt 0.116200 0.507120
vt 0.338950 -0.007050
vt 0.432140 -0.035320
vt 0.422860 0.048170
vt 0.349640 0.070380
vt 0.625970 -0.035320
vt 0.719170 -0.007050
vt 0.648370 0.070380
vt 0.575150 0.048170
vt 0.070090 0.642020
vt 0.041820 0.548830
vt 0.116200 0.507120
vt 0.138410 0.580340
vt 0.253060 0.038850
vt 0.338950 -0.007050
vt 0.349640 0.070380
vt 0.282160 0.106450
vt 0.529060 -0.044870
vt 0.625970 -0.035320
vt 0.575150 0.048170
vt 0.499010 0.040670
vt 0.116000 0.727910
vt 0.070090 0.642020
vt 0.138410 0.580340
vt 0.174480 0.647680
vt 0.177780 0.100640
vt 0.253060 0.038850
vt 0.282160 0.106450
vt 0.223020 0.154990
vt 0.177780 0.804380
vt 0.116000 0.727910
vt 0.174480 0.647680
vt 0.223020 0.705020
vt 0.116000 0.175920
vt 0.177780 0.100640
vt 0.223020 0.154990
vt 0.174480 0.214130
vt 0.253060 0.870590
vt 0.177780 0.804380
vt 0.223020 0.705020
vt 0.282160 0.751620
vt 0.070090 0.261800
vt 0.116000 0.175920
vt 0.174480 0.214130
vt 0.138410 0.281610
vt 0.338950 0.922550
vt 0.253060 0.870590
vt 0.282160 0.751620
vt 0.349640 0.784880
vt 0.041820 0.355000
vt 0.070090 0.261800
vt 0.138410 0.281610
vt 0.116200 0.354830
vt 0.451190 0.937640
vt 0.338950 0.922550
vt 0.349640 0.784880
vt 0.422860 0.802600
vt 0.032270 0.451910
vt 0.041820 0.355000
vt 0.116200 0.354830
vt 0.108700 0.430980
vt 0.432140 -0.035320
vt 0.529060 -0.044870
vt 0.499010 0.040670
vt 0.422860 0.048170
vt 0.719170 -0.007050
vt 0.805050 0.038850
vt 0.715850 0.106450
vt 0.648370 0.070380
vt 0.041820 0.548830
vt 0.032270 0.451910
vt 0.108700 0.430980
vt 0.116200 0.507120
vt 0.338950 -0.007050
vt 0.432140 -0.035320
vt 0.422860 0.048170
vt 0.349640 0.070380
vt 0.625970 -0.035320
vt 0.719170 -0.007050
vt 0.648370 0.070380
vt 0.575150 0.048170
vt 0.070090 0.642020
vt 0.041820 0.548830
vt 0.116200 0.507120
vt 0.138410 0.580340
vt 0.253060 0.038850
vt 0.338950 -0.007050
vt 0.349640 0.070380
vt 0.282160 0.106450
vt 0.529060 -0.044870
vt 0.625970 -0.035320
vt 0.575150 0.048170
vt 0.499010 0.040670
vt 0.116000 0.727910
vt 0.070090 0.642020
vt 0.138410 0.580340
vt 0.174480 0.647680
vt 0.177780 0.100640
vt 0.253060 0.038850
vt 0.282160 0.106450
vt 0.223020 0.154990
vt 0.177780 0.804380
vt 0.116000 0.727910
vt 0.174480 0.647680
vt 0.223020 0.705020
vt 0.116000 0.175920
vt 0.177780 0.100640
vt 0.223020 0.154990
vt 0.174480 0.214130
vt 0.253060 0.870590
vt 0.177780 0.804380
vt 0.223020 0.705020
vt 0.282160 0.751620
vt 0.070090 0.261800
vt 0.116000 0.175920
vt 0.174480 0.214130
vt 0.138410 0.281610
vt 0.338950 0.922550
vt 0.253060 0.870590
vt 0.282160 0.751620
vt 0.349640 0.784880
vt 0.041820 0.355000
vt 0.070090 0.261800
vt 0.138410 0.281610
vt 0.116200 0.354830
vt 0.451190 0.937640
vt 0.338950 0.922550
vt 0.349640 0.784880
vt 0.422860 0.802600
vt 0.032270 0.451910
vt 0.041820 0.355000
vt 0.116200 0.354830
vt 0.108700 0.430980
vt 0.432140 -0.035320
vt 0.529060 -0.044870
vt 0.499010 0.040670
vt 0.422860 0.048170
vt 0.719170 -0.007050
vt 0.805050 0.038850
vt 0.715850 0.106450
vt 0.648370 0.070380
vt 0.041820 0.548830
vt 0.032270 0.451910
vt 0.108700 0.430980
vt 0.116200 0.507120
vt 0.338950 -0.007050
vt 0.432140 -0.035320
vt 0.422860 0.048170
vt 0.349640 0.070380
vt 0.625970 -0.035320
vt 0.719170 -0.007050
vt 0.648370 0.070380
vt 0.575150 0.048170
vt 0.070090 0.642020
vt 0.041820 0.548830
vt 0.116200 0.507120
vt 0.138410 0.580340
vt 0.253060 0.038850
vt 0.338950 -0.007050
vt 0.349640 0.070380
vt 0.282160 0.106450
vt 0.529060 -0.044870
vt 0.625970 -0.035320
vt 0.575150 0.048170
vt 0.499010 0.040670
vt 0.116000 0.727910
vt 0.070090 0.642020
vt 0.138410 0.580340
vt 0.174480 0.647680
vt 0.177780 0.100640
vt 0.253060 0.038850
vt 0.282160 0.106450
vt 0.223020 0.154990
vt 0.177780 0.804380
vt 0.116000 0.727910
vt 0.174480 0.647680
vt 0.223020 0.705020
vt 0.116000 0.175920
vt 0.177780 0.100640
vt 0.223020 0.154990
vt 0.174480 0.214130
vt 0.253060 0.870590
vt 0.177780 0.804380
vt 0.223020 0.705020
vt 0.282160 0.751620
vt 0.070090 0.261800
vt 0.116000 0.175920
vt 0.174480 0.214130
vt 0.138410 0.281610
vt 0.338950 0.922550
vt 0.253060 0.870590
vt 0.282160 0.751620
vt 0.349640 0.784880
vn 0.0000 1.0000 -0.0000
vn 0.6250 -0.7531 -0.2056
vn 0.6250 -0.7531 -0.2057
vn 0.0919 -0.9957 0.0118
vn 0.0920 -0.9957 0.0118
vn 0.5960 -0.7570 -0.2678
vn 0.5960 -0.7570 -0.2679
vn 0.4213 -0.8879 0.1849
vn 0.4213 -0.8879 0.1850
vn 0.4210 -0.8880 0.1851
vn 0.0650 -0.9928 0.1009
vn 0.0649 -0.9928 0.1009
vn 0.5601 -0.7612 -0.3268
vn 0.5600 -0.7613 -0.3269
vn 0.5128 -0.8466 0.1426
vn 0.1716 -0.9679 0.1837
vn 0.5177 -0.7661 -0.3810
vn 0.5177 -0.7661 -0.3809
vn 0.5784 -0.8114 0.0837
vn 0.3004 -0.9319 0.2032
vn 0.3001 -0.9320 0.2034
vn 0.3001 -0.9320 0.2033
vn 0.4658 -0.7727 -0.4313
vn 0.4657 -0.7727 -0.4313
vn 0.6206 -0.7840 0.0140
vn 0.6206 -0.7840 0.0141
vn 0.3458 -0.8011 -0.4885
vn 0.6412 -0.7649 -0.0610
vn 0.6412 -0.7649 -0.0609
vn 0.1171 -0.8851 -0.4504
vn 0.6420 -0.7545 -0.1362
vn 0.6420 -0.7545 -0.1361
vn 0.6421 -0.7545 -0.1358
vn 0.0152 -0.9783 -0.2067
vn -0.6218 -0.7531 0.2149
vn -0.6218 -0.7531 0.2150
vn -0.6218 -0.7531 0.2151
vn 0.0414 -0.9959 0.0800
vn 0.0414 -0.9959 0.0799
vn -0.5919 -0.7570 0.2767
vn -0.5919 -0.7570 0.2768
vn -0.4243 -0.8877 -0.1788
vn -0.4240 -0.8878 -0.1790
vn -0.0665 -0.9928 -0.0999
vn -0.5551 -0.7613 0.3352
vn -0.5550 -0.7613 0.3353
vn -0.5152 -0.8464 -0.1350
vn -0.5152 -0.8464 -0.1349
vn -0.1744 -0.9678 -0.1813
vn -0.1745 -0.9678 -0.1813
vn -0.5121 -0.7660 0.3886
vn -0.5120 -0.7661 0.3886
vn -0.5798 -0.8113 -0.0750
vn -0.3033 -0.9319 -0.1991
vn -0.3034 -0.9319 -0.1990
vn -0.4593 -0.7727 0.4382
vn -0.4592 -0.7727 0.4382
vn -0.4591 -0.7727 0.4383
vn -0.6208 -0.7839 -0.0047
vn -0.3384 -0.8011 0.4936
vn -0.3385 -0.8011 0.4936
vn -0.6403 -0.7649 0.0706
vn 0.0952 -0.9025 0.4201
vn -0.6398 -0.7546 0.1457
vn -0.6399 -0.7546 0.1456
vn -0.3085 -0.9382 0.1569
vn 0.2496 -0.7533 0.6085
vn -0.0052 -0.9957 0.0925
vn -0.0052 -0.9957 0.0926
vn 0.3098 -0.7570 0.5753
vn 0.3099 -0.7571 0.5752
vn -0.1541 -0.8882 0.4329
vn -0.1540 -0.8882 0.4330
vn -0.0960 -0.9928 0.0719
vn -0.0960 -0.9928 0.0720
vn 0.3659 -0.7612 0.5354
vn 0.3661 -0.7613 0.5352
vn -0.1053 -0.8471 0.5210
vn -0.1054 -0.8471 0.5209
vn -0.1709 -0.9679 0.1842
vn -0.1709 -0.9679 0.1843
vn 0.4170 -0.7660 0.4892
vn 0.4170 -0.7661 0.4891
vn -0.0421 -0.8121 0.5820
vn -0.1813 -0.9322 0.3134
vn -0.1812 -0.9321 0.3136
vn -0.1812 -0.9321 0.3137
vn 0.4635 -0.7727 0.4336
vn 0.4635 -0.7727 0.4337
vn 0.0302 -0.7847 0.6192
vn 0.0301 -0.7847 0.6192
vn 0.5120 -0.8011 0.3100
vn 0.1063 -0.7656 0.6345
vn 0.4576 -0.8851 0.0846
vn 0.1813 -0.7550 0.6301
vn 0.1813 -0.7550 0.6302
vn 0.1811 -0.7550 0.6302
vn 0.2073 -0.9783 0.0004
vn -0.2591 -0.7529 -0.6050
vn -0.2592 -0.7529 -0.6049
vn 0.0039 -0.9957 -0.0926
vn 0.0038 -0.9957 -0.0926
vn -0.3184 -0.7570 -0.5706
vn 0.1482 -0.8874 -0.4366
vn 0.1482 -0.8874 -0.4365
vn 0.1484 -0.8875 -0.4363
vn 0.0949 -0.9928 -0.0735
vn 0.0949 -0.9928 -0.0734
vn -0.3740 -0.7612 -0.5297
vn -0.3741 -0.7613 -0.5296
vn 0.0979 -0.8459 -0.5243
vn 0.1684 -0.9678 -0.1871
vn 0.1684 -0.9678 -0.1870
vn -0.4242 -0.7660 -0.4829
vn -0.4243 -0.7660 -0.4829
vn -0.4243 -0.7661 -0.4828
vn -0.4243 -0.7661 -0.4829
vn 0.0333 -0.8106 -0.5846
vn 0.0334 -0.8107 -0.5846
vn 0.1769 -0.9317 -0.3173
vn 0.1770 -0.9317 -0.3171
vn -0.4699 -0.7727 -0.4268
vn -0.4700 -0.7727 -0.4267
vn -0.0400 -0.7832 -0.6205
vn -0.0399 -0.7832 -0.6205
vn -0.5166 -0.8011 -0.3023
vn -0.1166 -0.7643 -0.6343
vn -0.4589 -0.8851 -0.0777
vn -0.4588 -0.8851 -0.0777
vn -0.1915 -0.7541 -0.6282
vn -0.1913 -0.7541 -0.6283
vn -0.2072 -0.9783 0.0027
vn -0.2072 -0.9783 0.0028
usemtl Material.001
s off
f 145/1/1 146/2/1 147/3/1
f 145/1/1 147/3/1 148/4/1
s 1
f 1/5/2 2/6/3 3/7/2
f 1/5/2 3/7/2 4/8/2
f 5/9/4 6/10/4 7/11/5
f 5/9/4 7/11/5 8/12/4
f 9/13/6 10/14/7 11/15/7
f 9/13/6 11/15/7 12/16/7
f 13/17/8 14/18/9 15/19/10
f 13/17/8 15/19/10 16/20/9
f 17/21/11 18/22/12 19/23/12
f 17/21/11 19/23/12 20/24/11
f 21/25/13 22/26/14 23/27/14
f 21/25/13 23/27/14 24/28/14
f 25/29/15 26/30/15 27/31/15
f 25/29/15 27/31/15 28/32/15
f 29/33/16 30/34/16 31/35/16
f 29/33/16 31/35/16 32/36/16
f 33/37/17 34/38/18 35/39/18
f 33/37/17 35/39/18 36/40/18
f 37/41/19 38/42/19 39/43/19
f 37/41/19 39/43/19 40/44/19
f 41/45/20 42/46/21 43/47/22
f 41/45/20 43/47/22 44/48/22
f 45/49/23 46/50/24 47/51/23
f 45/49/23 47/51/23 48/52/24
f 49/53/25 50/54/26 51/55/26
f 49/53/25 51/55/26 52/56/26
f 53/57/27 54/58/27 55/59/27
f 53/57/27 55/59/27 56/60/27
f 57/61/28 58/62/28 59/63/29
f 57/61/28 59/63/29 60/64/28
f 61/65/30 62/66/30 63/67/30
f 61/65/30 63/67/30 64/68/30
f 65/69/31 66/70/32 67/71/33
f 65/69/31 67/71/33 68/72/32
f 69/73/34 70/74/34 71/75/34
f 69/73/34 71/75/34 72/76/34
f 73/77/35 74/78/36 75/79/37
f 73/77/35 75/79/37 76/80/36
f 77/81/38 78/82/38 79/83/38
f 77/81/38 79/83/38 80/84/39
f 81/85/40 82/86/41 83/87/41
f 81/85/40 83/87/41 84/88/41
f 85/89/42 86/90/42 87/91/43
f 85/89/42 87/91/43 88/92/42
f 89/93/44 90/94/44 91/95/44
f 89/93/44 91/95/44 92/96/44
f 93/97/45 94/98/45 95/99/46
f 93/97/45 95/99/46 96/100/46
f 97/101/47 98/102/48 99/103/48
f 97/101/47 99/103/48 100/104/47
f 101/105/49 102/106/50 103/107/50
f 101/105/49 103/107/50 104/108/50
f 105/109/51 106/110/52 107/111/52
f 105/109/51 107/111/52 108/112/52
f 109/113/53 110/114/53 111/115/53
f 109/113/53 111/115/53 112/116/53
f 113/117/54 114/118/55 115/119/55
f 113/117/54 115/119/55 116/120/55
f 117/121/56 118/122/57 119/123/58
f 117/121/56 119/123/58 120/124/57
f 121/125/59 122/126/59 123/127/59
f 121/125/59 123/127/59 124/128/59
f 125/129/60 126/130/61 127/131/60
f 125/129/60 127/131/60 128/132/60
f 129/133/62 130/134/62 131/135/62
f 129/133/62 131/135/62 132/136/62
f 133/137/63 134/138/63 135/139/63
f 133/137/63 135/139/63 136/140/63
f 137/141/64 138/142/65 139/143/65
f 137/141/64 139/143/65 140/144/64
f 141/145/66 142/146/66 143/147/66
f 141/145/66 143/147/66 144/148/66
f 149/149/67 150/150/67 151/151/67
f 149/149/67 151/151/67 152/152/67
f 153/153/68 154/154/69 155/155/68
f 153/153/68 155/155/68 156/156/69
f 157/157/70 158/158/70 159/159/71
f 157/157/70 159/159/71 160/160/70
f 161/161/72 162/162/72 163/163/73
f 161/161/72 163/163/73 164/164/72
f 165/165/74 166/166/75 167/167/75
f 165/165/74 167/167/75 168/168/75
f 169/169/76 170/170/77 171/171/77
f 169/169/76 171/171/77 172/172/77
f 173/173/78 174/174/79 175/175/79
f 173/173/78 175/175/79 176/176/79
f 177/177/80 178/178/81 179/179/80
f 177/177/80 179/179/80 180/180/81
f 181/181/82 182/182/83 183/183/83
f 181/181/82 183/183/83 184/184/83
f 185/185/84 186/186/84 187/187/84
f 185/185/84 187/187/84 188/188/84
f 189/189/85 190/190/86 191/191/87
f 189/189/85 191/191/87 192/192/87
f 193/193/88 194/194/89 195/195/89
f 193/193/88 195/195/89 196/196/89
f 197/197/90 198/198/91 199/199/91
f 197/197/90 199/199/91 200/200/91
f 201/201/92 202/202/92 203/203/92
f 201/201/92 203/203/92 204/204/92
f 205/205/93 206/206/93 207/207/93
f 205/205/93 207/207/93 208/208/93
f 209/209/94 210/210/94 211/211/94
f 209/209/94 211/211/94 212/212/94
f 213/213/95 214/214/96 215/215/97
f 213/213/95 215/215/97 216/216/96
f 217/217/98 218/218/98 219/219/98
f 217/217/98 219/219/98 220/220/98
f 221/221/99 222/222/99 223/223/100
f 221/221/99 223/223/100 224/224/99
f 225/225/101 226/226/101 227/227/101
f 225/225/101 227/227/101 228/228/102
f 229/229/103 230/230/103 231/231/103
f 229/229/103 231/231/103 232/232/103
f 233/233/104 234/234/105 235/235/106
f 233/233/104 235/235/106 236/236/105
f 237/237/107 238/238/107 239/239/108
f 237/237/107 239/239/108 240/240/107
f 241/241/109 242/242/110 243/243/110
f 241/241/109 243/243/110 244/244/110
f 245/245/111 246/246/111 247/247/111
f 245/245/111 247/247/111 248/248/111
f 249/249/112 250/250/112 251/251/113
f 249/249/112 251/251/113 252/252/112
f 253/253/114 254/254/115 255/255/116
f 253/253/114 255/255/116 256/256/117
f 257/257/118 258/258/118 259/259/119
f 257/257/118 259/259/119 260/260/118
f 261/261/120 262/262/121 263/263/121
f 261/261/120 263/263/121 264/264/121
f 265/265/122 266/266/123 267/267/123
f 265/265/122 267/267/123 268/268/123
f 269/269/124 270/270/124 271/271/125
f 269/269/124 271/271/125 272/272/124
f 273/273/126 274/274/126 275/275/126
f 273/273/126 275/275/126 276/276/126
f 277/277/127 278/278/127 279/279/127
f 277/277/127 279/279/127 280/280/127
f 281/281/128 282/282/128 283/283/129
f 281/281/128 283/283/129 284/284/128
f 285/285/130 286/286/130 287/287/131
f 285/285/130 287/287/131 288/288/130
f 289/289/132 290/290/133 291/291/133
f 289/289/132 291/291/133 292/292/133
