# 3ds Max Wavefront OBJ Exporter v0.97b - (c)2007 guruware
# ì¬‚µ‚½ƒtƒ@ƒCƒ‹ : 09.10.2020 12:29:42

mtllib Cource01.mtl

#
# object Cource005
#

v  41.6237 4.2966 0.0762
v  40.0550 7.0298 -34.2982
v  41.6237 7.0298 0.0762
v  40.0550 4.2966 -34.2982
v  35.4559 7.0298 -44.9943
v  35.4559 4.2966 -44.9943
v  28.1399 7.0298 -54.1792
v  28.1399 4.2966 -54.1792
v  18.6054 7.0298 -61.2270
v  18.6054 4.2966 -61.2270
v  7.5023 7.0298 -65.6574
v  7.5023 4.2966 -65.6574
v  -4.4128 7.0298 -67.1686
v  -4.4128 4.2966 -67.1686
v  -16.3279 7.0298 -65.6574
v  -16.3279 4.2966 -65.6574
v  -27.4310 7.0298 -61.2270
v  -27.4310 4.2966 -61.2270
v  -36.9655 7.0298 -54.1792
v  -36.9655 4.2966 -54.1792
v  -44.2815 7.0298 -44.9943
v  -44.2815 4.2966 -44.9943
v  -48.8806 7.0298 -34.2982
v  -48.8806 4.2966 -34.2982
v  -50.4493 7.0298 0.0762
v  40.0550 9.7630 -34.2982
v  41.6237 9.7629 0.0762
v  35.4559 9.7630 -44.9943
v  28.1399 9.7630 -54.1792
v  18.6054 9.7630 -61.2270
v  7.5023 9.7630 -65.6574
v  -4.4128 9.7630 -67.1686
v  -16.3279 9.7630 -65.6574
v  -27.4310 9.7630 -61.2270
v  -36.9655 9.7630 -54.1792
v  -44.2815 9.7630 -44.9943
v  -48.8806 9.7630 -34.2982
v  -50.4493 9.7629 0.0762
v  40.0550 12.4961 -34.2982
v  41.6237 12.4961 0.0762
v  35.4559 12.4961 -44.9943
v  28.1399 12.4961 -54.1792
v  18.6054 12.4961 -61.2270
v  7.5023 12.4961 -65.6574
v  -4.4128 12.4961 -67.1686
v  -16.3279 12.4961 -65.6574
v  -27.4310 12.4961 -61.2270
v  -36.9655 12.4961 -54.1792
v  -44.2815 12.4961 -44.9943
v  -48.8806 12.4961 -34.2982
v  -50.4493 12.4961 0.0762
v  26.2782 4.2966 0.0762
v  25.2324 4.2966 -30.4721
v  22.1664 4.2966 -37.6028
v  17.2890 4.2966 -43.7261
v  10.9327 4.2966 -48.4246
v  3.5306 4.2966 -51.3783
v  -4.4128 4.2966 -52.3857
v  -12.3562 4.2966 -51.3783
v  -19.7583 4.2966 -48.4246
v  -26.1146 4.2966 -43.7261
v  -30.9920 4.2966 -37.6028
v  -34.0580 4.2966 -30.4721
v  -50.4493 4.2966 0.0762
v  -35.1038 4.2966 0.0762
v  10.9327 4.2966 0.0762
v  10.4098 4.2966 -26.6460
v  8.8768 4.2966 -30.2114
v  6.4381 4.2966 -33.2730
v  3.2599 4.2966 -35.6223
v  -0.4411 4.2966 -37.0991
v  -4.4128 4.2966 -37.6028
v  -8.3845 4.2966 -37.0991
v  -12.0855 4.2966 -35.6223
v  -15.2637 4.2966 -33.2730
v  -17.7024 4.2966 -30.2114
v  -19.2354 4.2966 -26.6460
v  -19.7583 4.2966 0.0762
v  -4.4128 4.2966 0.0762
v  26.2782 8.3964 0.0762
v  10.4098 8.3964 -26.6460
v  10.9327 8.3964 0.0762
v  25.2324 8.3964 -30.4721
v  8.8768 8.3964 -30.2114
v  22.1664 8.3964 -37.6028
v  6.4381 8.3964 -33.2730
v  17.2890 8.3964 -43.7261
v  3.2599 8.3964 -35.6223
v  10.9327 8.3964 -48.4246
v  -0.4411 8.3964 -37.0991
v  3.5306 8.3964 -51.3783
v  -4.4128 8.3964 -37.6028
v  -4.4128 8.3964 -52.3857
v  -8.3845 8.3964 -37.0991
v  -12.3562 8.3964 -51.3783
v  -12.0855 8.3964 -35.6223
v  -19.7583 8.3964 -48.4246
v  -15.2637 8.3964 -33.2730
v  -26.1146 8.3964 -43.7261
v  -17.7024 8.3964 -30.2114
v  -30.9920 8.3964 -37.6028
v  -19.2354 8.3964 -26.6460
v  -34.0580 8.3964 -30.4721
v  -19.7583 8.3964 0.0762
v  26.2782 12.4961 0.0762
v  25.2324 12.4961 -30.4721
v  22.1664 12.4961 -37.6028
v  17.2890 12.4961 -43.7261
v  10.9327 12.4961 -48.4246
v  3.5306 12.4961 -51.3783
v  -4.4128 12.4961 -52.3857
v  -12.3562 12.4961 -51.3783
v  -19.7583 12.4961 -48.4246
v  -26.1146 12.4961 -43.7261
v  -30.9920 12.4961 -37.6028
v  -34.0580 12.4961 -30.4721
v  -35.1038 8.3964 0.0762
v  10.4098 12.4961 -26.6460
v  10.9327 12.5017 0.0235
v  8.8768 12.4961 -30.2114
v  6.4381 12.4961 -33.2730
v  3.2599 12.4961 -35.6223
v  -0.4411 12.4961 -37.0991
v  -4.4128 12.4961 -37.6028
v  -8.3845 12.4961 -37.0991
v  -12.0855 12.4961 -35.6223
v  -15.2637 12.4961 -33.2730
v  -17.7024 12.4961 -30.2114
v  -19.2354 12.4961 -26.6460
v  -19.3256 12.4961 -22.8199
v  -35.1038 12.4961 0.0762
v  10.4762 12.4961 -22.8199
v  -19.7583 12.5017 0.0235
v  41.6237 4.2966 -0.0292
v  41.6237 7.0298 -0.0292
v  40.0550 7.0298 34.3452
v  40.0550 4.2966 34.3452
v  35.4559 7.0298 45.0413
v  35.4559 4.2966 45.0413
v  28.1399 7.0298 54.2262
v  28.1399 4.2966 54.2262
v  18.6054 7.0298 61.2740
v  18.6054 4.2966 61.2740
v  7.5023 7.0298 65.7044
v  7.5023 4.2966 65.7044
v  -4.4128 7.0298 67.2156
v  -4.4128 4.2966 67.2156
v  -16.3279 7.0298 65.7044
v  -16.3279 4.2966 65.7044
v  -27.4310 7.0298 61.2740
v  -27.4310 4.2966 61.2740
v  -36.9655 7.0298 54.2262
v  -36.9655 4.2966 54.2262
v  -44.2815 7.0298 45.0413
v  -44.2815 4.2966 45.0413
v  -48.8806 7.0298 34.3452
v  -48.8806 4.2966 34.3452
v  -50.4493 7.0298 -0.0292
v  41.6237 9.7629 -0.0292
v  40.0550 9.7630 34.3452
v  35.4559 9.7630 45.0413
v  28.1399 9.7630 54.2262
v  18.6054 9.7630 61.2740
v  7.5023 9.7630 65.7044
v  -4.4128 9.7630 67.2156
v  -16.3279 9.7630 65.7044
v  -27.4310 9.7630 61.2740
v  -36.9655 9.7630 54.2262
v  -44.2815 9.7630 45.0413
v  -48.8806 9.7630 34.3452
v  -50.4493 9.7629 -0.0292
v  41.6237 12.4961 -0.0292
v  40.0550 12.4961 34.3452
v  35.4559 12.4961 45.0413
v  28.1399 12.4961 54.2262
v  18.6054 12.4961 61.2740
v  7.5023 12.4961 65.7044
v  -4.4128 12.4961 67.2156
v  -16.3279 12.4961 65.7044
v  -27.4310 12.4961 61.2740
v  -36.9655 12.4961 54.2262
v  -44.2815 12.4961 45.0413
v  -48.8806 12.4961 34.3452
v  -50.4493 12.4961 -0.0292
v  25.2324 4.2966 30.5191
v  26.2782 4.2966 -0.0292
v  22.1664 4.2966 37.6498
v  17.2890 4.2966 43.7731
v  10.9327 4.2966 48.4716
v  3.5306 4.2966 51.4253
v  -4.4128 4.2966 52.4327
v  -12.3562 4.2966 51.4253
v  -19.7583 4.2966 48.4716
v  -26.1146 4.2966 43.7731
v  -30.9920 4.2966 37.6498
v  -34.0580 4.2966 30.5191
v  -50.4493 4.2966 -0.0292
v  -35.1038 4.2966 -0.0292
v  10.4098 4.2966 26.6930
v  10.9327 4.2966 -0.0292
v  8.8768 4.2966 30.2584
v  6.4381 4.2966 33.3200
v  3.2599 4.2966 35.6693
v  -0.4411 4.2966 37.1461
v  -4.4128 4.2966 37.6498
v  -8.3845 4.2966 37.1461
v  -12.0855 4.2966 35.6693
v  -15.2637 4.2966 33.3200
v  -17.7024 4.2966 30.2584
v  -19.2354 4.2966 26.6930
v  -19.7583 4.2966 -0.0292
v  -4.4128 4.2966 -0.0292
v  26.2782 8.3964 -0.0292
v  10.9327 8.3964 -0.0292
v  10.4098 8.3964 26.6930
v  25.2324 8.3964 30.5191
v  8.8768 8.3964 30.2584
v  22.1664 8.3964 37.6498
v  6.4381 8.3964 33.3200
v  17.2890 8.3964 43.7731
v  3.2599 8.3964 35.6693
v  10.9327 8.3964 48.4716
v  -0.4411 8.3964 37.1461
v  3.5306 8.3964 51.4253
v  -4.4128 8.3964 37.6498
v  -4.4128 8.3964 52.4327
v  -8.3845 8.3964 37.1461
v  -12.3562 8.3964 51.4253
v  -12.0855 8.3964 35.6693
v  -19.7583 8.3964 48.4716
v  -15.2637 8.3964 33.3200
v  -26.1146 8.3964 43.7731
v  -17.7024 8.3964 30.2584
v  -30.9920 8.3964 37.6498
v  -19.2354 8.3964 26.6930
v  -34.0580 8.3964 30.5191
v  -19.7583 8.3964 -0.0292
v  26.2782 12.4961 -0.0292
v  25.2324 12.4961 30.5191
v  22.1664 12.4961 37.6498
v  17.2890 12.4961 43.7731
v  10.9327 12.4961 48.4716
v  3.5306 12.4961 51.4253
v  -4.4128 12.4961 52.4327
v  -12.3562 12.4961 51.4253
v  -19.7583 12.4961 48.4716
v  -26.1146 12.4961 43.7731
v  -30.9920 12.4961 37.6498
v  -34.0580 12.4961 30.5191
v  -35.1038 8.3964 -0.0292
v  10.4098 12.4961 26.6930
v  8.8768 12.4961 30.2584
v  6.4381 12.4961 33.3200
v  3.2599 12.4961 35.6693
v  -0.4411 12.4961 37.1461
v  -4.4128 12.4961 37.6498
v  -8.3845 12.4961 37.1461
v  -12.0855 12.4961 35.6693
v  -15.2637 12.4961 33.3200
v  -17.7024 12.4961 30.2584
v  -19.2354 12.4961 26.6930
v  -19.3256 12.4961 22.8669
v  -35.1038 12.4961 -0.0292
v  10.4762 12.4961 22.8669
# 264 vertices

vn 0.9990 0.0000 -0.0439
vn 0.9763 0.0000 -0.2166
vn 0.8660 0.0000 -0.5000
vn 0.7071 0.0000 -0.7071
vn 0.5000 0.0000 -0.8660
vn 0.2588 0.0000 -0.9659
vn 0.0000 0.0000 -1.0000
vn -0.2588 0.0000 -0.9659
vn -0.5000 0.0000 -0.8660
vn -0.7071 0.0000 -0.7071
vn -0.8660 0.0000 -0.5000
vn -0.9763 0.0000 -0.2166
vn -0.9990 0.0000 -0.0439
vn -0.0000 0.0000 -1.0000
vn 0.0000 -1.0000 -0.0000
vn 0.0000 1.0000 0.0000
vn 0.0000 1.0000 -0.0000
vn -0.0000 1.0000 0.0000
vn -0.9995 0.0000 0.0330
vn -0.9774 0.0000 0.2112
vn -0.8660 0.0000 0.5000
vn -0.7071 0.0000 0.7071
vn -0.5000 0.0000 0.8660
vn -0.2588 0.0000 0.9659
vn -0.0000 0.0000 1.0000
vn 0.2588 0.0000 0.9659
vn 0.5000 0.0000 0.8660
vn 0.7071 0.0000 0.7071
vn 0.8660 0.0000 0.5000
vn 0.9774 0.0000 0.2112
vn 0.9995 0.0000 0.0330
vn 0.9998 -0.0003 -0.0189
vn 0.9789 0.0007 -0.2043
vn 1.0000 -0.0001 0.0000
vn 0.9789 0.0000 -0.2043
vn -0.9785 0.0000 -0.2062
vn -0.9787 -0.0011 -0.2054
vn -0.9998 -0.0049 -0.0191
vn -0.0650 0.9979 0.0011
vn -1.0000 -0.0007 -0.0000
vn -0.9998 -0.0004 -0.0188
vn 0.9990 0.0000 0.0439
vn 0.9763 0.0000 0.2166
vn 0.0000 0.0000 1.0000
vn -0.9763 0.0000 0.2166
vn -0.9990 0.0000 0.0439
vn -0.0000 1.0000 -0.0000
vn -0.9995 0.0000 -0.0330
vn -0.9774 0.0000 -0.2112
vn 0.9774 0.0000 -0.2112
vn 0.9995 0.0000 -0.0330
vn 0.9998 -0.0003 0.0189
vn 0.9789 0.0007 0.2043
vn 0.9789 0.0000 0.2043
vn -0.9785 0.0000 0.2062
vn -0.9787 -0.0011 0.2054
vn -0.9998 -0.0049 0.0191
vn -0.0650 0.9979 -0.0011
vn -0.9998 -0.0004 0.0188
# 59 vertex normals

vt 0.7500 0.0000 1.0000
vt 0.7917 0.3333 1.0000
vt 0.7500 0.3333 1.0000
vt 0.7917 0.0000 1.0000
vt 0.8333 0.3333 1.0000
vt 0.8333 0.0000 1.0000
vt 0.8750 0.3333 1.0000
vt 0.8750 0.0000 1.0000
vt 0.9167 0.3333 1.0000
vt 0.9167 0.0000 1.0000
vt 0.9583 0.3333 1.0000
vt 0.9583 0.0000 1.0000
vt 1.0000 0.3333 1.0000
vt 1.0000 0.0000 1.0000
vt 1.0417 0.3333 1.0000
vt 0.0417 0.0000 1.0000
vt 0.0833 0.3333 1.0000
vt 0.0417 0.3333 1.0000
vt 0.0833 0.0000 1.0000
vt 0.1250 0.3333 1.0000
vt 0.1250 0.0000 1.0000
vt 0.1667 0.3333 1.0000
vt 0.1667 0.0000 1.0000
vt 0.2083 0.3333 1.0000
vt 0.2083 0.0000 1.0000
vt 0.2500 0.3333 1.0000
vt 0.7917 0.6667 1.0000
vt 0.7500 0.6667 1.0000
vt 0.8333 0.6667 1.0000
vt 0.8750 0.6667 1.0000
vt 0.9167 0.6667 1.0000
vt 0.9583 0.6667 1.0000
vt 1.0000 0.6667 1.0000
vt 1.0417 0.6667 1.0000
vt 0.0833 0.6667 1.0000
vt 0.0417 0.6667 1.0000
vt 0.1250 0.6667 1.0000
vt 0.1667 0.6667 1.0000
vt 0.2083 0.6667 1.0000
vt 0.2500 0.6667 1.0000
vt 0.7917 1.0000 1.0000
vt 0.7500 1.0000 1.0000
vt 0.8333 1.0000 1.0000
vt 0.8750 1.0000 1.0000
vt 0.9167 1.0000 1.0000
vt 0.9583 1.0000 1.0000
vt 1.0000 1.0000 1.0000
vt 1.0417 1.0000 1.0000
vt 0.0833 1.0000 1.0000
vt 0.0417 1.0000 1.0000
vt 0.1250 1.0000 1.0000
vt 0.1667 1.0000 1.0000
vt 0.2083 1.0000 1.0000
vt 0.2500 1.0000 1.0000
vt 0.3706 0.9830 -0.2500
vt 0.5000 0.8333 -0.2500
vt 0.4137 0.8220 -0.2500
vt 0.2500 0.9330 -0.2500
vt 0.3333 0.7887 -0.2500
vt 0.1464 0.8536 -0.2500
vt 0.2643 0.7357 -0.2500
vt 0.0670 0.7500 -0.2500
vt 0.2113 0.6667 -0.2500
vt 0.0170 0.6294 -0.2500
vt 0.1780 0.5863 -0.2500
vt 0.0000 0.5000 -0.2500
vt 0.1667 0.5000 -0.2500
vt 0.0170 0.3706 -0.2500
vt 0.1780 0.4137 -0.2500
vt 0.0670 0.2500 -0.2500
vt 0.2113 0.3333 -0.2500
vt 0.1464 0.1464 -0.2500
vt 0.2643 0.2643 -0.2500
vt 0.2500 0.0670 -0.2500
vt 0.3333 0.2113 -0.2500
vt 0.3706 0.0170 -0.2500
vt 0.4137 0.1780 -0.2500
vt 0.5000 0.0000 -0.2500
vt 0.5000 0.1667 -0.2500
vt 0.5000 0.6667 -0.2500
vt 0.4569 0.6610 -0.2500
vt 0.4167 0.6443 -0.2500
vt 0.3821 0.6179 -0.2500
vt 0.3557 0.5833 -0.2500
vt 0.3390 0.5431 -0.2500
vt 0.3333 0.5000 -0.2500
vt 0.3390 0.4569 -0.2500
vt 0.3557 0.4167 -0.2500
vt 0.3821 0.3821 -0.2500
vt 0.4167 0.3557 -0.2500
vt 0.4569 0.3390 -0.2500
vt 0.5000 0.3333 -0.2500
vt 0.5000 0.5000 -0.2500
vt 0.5000 0.8333 0.2500
vt 0.4569 0.6610 0.2500
vt 0.5000 0.6667 0.2500
vt 0.4137 0.8220 0.2500
vt 0.4167 0.6443 0.2500
vt 0.3333 0.7887 0.2500
vt 0.3821 0.6179 0.2500
vt 0.2643 0.7357 0.2500
vt 0.3557 0.5833 0.2500
vt 0.2113 0.6667 0.2500
vt 0.3390 0.5431 0.2500
vt 0.1780 0.5863 0.2500
vt 0.3333 0.5000 0.2500
vt 0.1667 0.5000 0.2500
vt 0.3390 0.4569 0.2500
vt 0.1780 0.4137 0.2500
vt 0.3557 0.4167 0.2500
vt 0.2113 0.3333 0.2500
vt 0.3821 0.3821 0.2500
vt 0.2643 0.2643 0.2500
vt 0.4167 0.3557 0.2500
vt 0.3333 0.2113 0.2500
vt 0.4569 0.3390 0.2500
vt 0.4137 0.1780 0.2500
vt 0.5000 0.3333 0.2500
vt 0.5000 0.1667 0.2500
vt 1.0417 0.0000 1.0000
vt 0.2500 0.0000 1.0000
vt 0.5000 1.0000 -0.2500
# 122 texture coords

g Cource005
usemtl wire_115115115
s 1
f 1/1/1 2/2/2 3/3/1 
f 4/4/2 5/5/3 2/2/2 
f 6/6/3 7/7/4 5/5/3 
f 8/8/4 9/9/5 7/7/4 
f 10/10/5 11/11/6 9/9/5 
f 12/12/6 13/13/7 11/11/6 
f 14/14/7 15/15/8 13/13/7 
f 16/16/8 17/17/9 15/18/8 
f 18/19/9 19/20/10 17/17/9 
f 20/21/10 21/22/11 19/20/10 
f 22/23/11 23/24/12 21/22/11 
f 24/25/12 25/26/13 23/24/12 
f 3/3/1 26/27/2 27/28/1 
f 2/2/2 28/29/3 26/27/2 
f 5/5/3 29/30/4 28/29/3 
f 7/7/4 30/31/5 29/30/4 
f 9/9/5 31/32/6 30/31/5 
f 11/11/6 32/33/7 31/32/6 
f 13/13/7 33/34/8 32/33/7 
f 15/18/8 34/35/9 33/36/8 
f 17/17/9 35/37/10 34/35/9 
f 19/20/10 36/38/11 35/37/10 
f 21/22/11 37/39/12 36/38/11 
f 23/24/12 38/40/13 37/39/12 
f 27/28/1 39/41/2 40/42/1 
f 26/27/2 41/43/3 39/41/2 
f 28/29/3 42/44/4 41/43/3 
f 29/30/4 43/45/5 42/44/4 
f 30/31/5 44/46/6 43/45/5 
f 31/32/6 45/47/14 44/46/6 
f 32/33/7 46/48/8 45/47/14 
f 33/36/8 47/49/9 46/50/8 
f 34/35/9 48/51/10 47/49/9 
f 35/37/10 49/52/11 48/51/10 
f 36/38/11 50/53/12 49/52/11 
f 37/39/12 51/54/13 50/53/12 
s 2
f 4/55/15 52/56/15 53/57/15 
f 6/58/15 53/57/15 54/59/15 
f 8/60/15 54/59/15 55/61/15 
f 10/62/15 55/61/15 56/63/15 
f 12/64/15 56/63/15 57/65/15 
f 14/66/15 57/65/15 58/67/15 
f 16/68/15 58/67/15 59/69/15 
f 18/70/15 59/69/15 60/71/15 
f 20/72/15 60/71/15 61/73/15 
f 22/74/15 61/73/15 62/75/15 
f 24/76/15 62/75/15 63/77/15 
f 64/78/15 63/77/15 65/79/15 
f 53/57/15 66/80/15 67/81/15 
f 54/59/15 67/81/15 68/82/15 
f 55/61/15 68/82/15 69/83/15 
f 56/63/15 69/83/15 70/84/15 
f 57/65/15 70/84/15 71/85/15 
f 58/67/15 71/85/15 72/86/15 
f 59/69/15 72/86/15 73/87/15 
f 60/71/15 73/87/15 74/88/15 
f 61/73/15 74/88/15 75/89/15 
f 62/75/15 75/89/15 76/90/15 
f 63/77/15 76/90/15 77/91/15 
f 65/79/15 77/91/15 78/92/15 
f 67/81/15 66/80/15 79/93/15 
f 68/82/15 67/81/15 79/93/15 
f 69/83/15 68/82/15 79/93/15 
f 70/84/15 69/83/15 79/93/15 
f 71/85/15 70/84/15 79/93/15 
f 72/86/15 71/85/15 79/93/15 
f 73/87/15 72/86/15 79/93/15 
f 74/88/15 73/87/15 79/93/15 
f 75/89/15 74/88/15 79/93/15 
f 76/90/15 75/89/15 79/93/15 
f 77/91/15 76/90/15 79/93/15 
f 78/92/15 77/91/15 79/93/15 
s 1
f 80/94/16 81/95/16 82/96/16 
f 83/97/16 84/98/17 81/95/16 
f 85/99/17 86/100/17 84/98/17 
f 87/101/17 88/102/17 86/100/17 
f 89/103/17 90/104/17 88/102/17 
f 91/105/17 92/106/17 90/104/17 
f 93/107/17 94/108/17 92/106/17 
f 95/109/17 96/110/17 94/108/17 
f 97/111/17 98/112/17 96/110/17 
f 99/113/17 100/114/17 98/112/17 
f 101/115/17 102/116/18 100/114/17 
f 103/117/18 104/118/18 102/116/18 
s 4
f 105/94/19 83/97/20 80/94/19 
f 106/97/20 85/99/21 83/97/20 
f 107/99/21 87/101/22 85/99/21 
f 108/101/22 89/103/23 87/101/22 
f 109/103/23 91/105/24 89/103/23 
f 110/105/24 93/107/25 91/105/24 
f 111/107/25 95/109/26 93/107/25 
f 112/109/26 97/111/27 95/109/26 
f 113/111/27 99/113/28 97/111/27 
f 114/113/28 101/115/29 99/113/28 
f 115/115/29 103/117/30 101/115/29 
f 116/117/30 117/119/31 103/117/30 
f 82/96/32 118/95/33 119/96/34 
f 81/95/35 120/98/3 118/95/33 
f 84/98/3 121/100/4 120/98/3 
f 86/100/4 122/102/5 121/100/4 
f 88/102/5 123/104/6 122/102/5 
f 90/104/6 124/106/7 123/104/6 
f 92/106/7 125/108/8 124/106/7 
f 94/108/8 126/110/9 125/108/8 
f 96/110/9 127/112/10 126/110/9 
f 98/112/10 128/114/11 127/112/10 
f 100/114/11 129/116/36 128/114/11 
f 102/116/37 130/118/38 129/116/36 
s 1
f 1/1/1 4/4/2 2/2/2 
f 4/4/2 6/6/3 5/5/3 
f 6/6/3 8/8/4 7/7/4 
f 8/8/4 10/10/5 9/9/5 
f 10/10/5 12/12/6 11/11/6 
f 12/12/6 14/14/7 13/13/7 
f 14/14/7 16/120/8 15/15/8 
f 16/16/8 18/19/9 17/17/9 
f 18/19/9 20/21/10 19/20/10 
f 20/21/10 22/23/11 21/22/11 
f 22/23/11 24/25/12 23/24/12 
f 24/25/12 64/121/13 25/26/13 
f 3/3/1 2/2/2 26/27/2 
f 2/2/2 5/5/3 28/29/3 
f 5/5/3 7/7/4 29/30/4 
f 7/7/4 9/9/5 30/31/5 
f 9/9/5 11/11/6 31/32/6 
f 11/11/6 13/13/7 32/33/7 
f 13/13/7 15/15/8 33/34/8 
f 15/18/8 17/17/9 34/35/9 
f 17/17/9 19/20/10 35/37/10 
f 19/20/10 21/22/11 36/38/11 
f 21/22/11 23/24/12 37/39/12 
f 23/24/12 25/26/13 38/40/13 
f 27/28/1 26/27/2 39/41/2 
f 26/27/2 28/29/3 41/43/3 
f 28/29/3 29/30/4 42/44/4 
f 29/30/4 30/31/5 43/45/5 
f 30/31/5 31/32/6 44/46/6 
f 31/32/6 32/33/7 45/47/14 
f 32/33/7 33/34/8 46/48/8 
f 33/36/8 34/35/9 47/49/9 
f 34/35/9 35/37/10 48/51/10 
f 35/37/10 36/38/11 49/52/11 
f 36/38/11 37/39/12 50/53/12 
f 37/39/12 38/40/13 51/54/13 
s 2
f 4/55/15 1/122/15 52/56/15 
f 6/58/15 4/55/15 53/57/15 
f 8/60/15 6/58/15 54/59/15 
f 10/62/15 8/60/15 55/61/15 
f 12/64/15 10/62/15 56/63/15 
f 14/66/15 12/64/15 57/65/15 
f 16/68/15 14/66/15 58/67/15 
f 18/70/15 16/68/15 59/69/15 
f 20/72/15 18/70/15 60/71/15 
f 22/74/15 20/72/15 61/73/15 
f 24/76/15 22/74/15 62/75/15 
f 64/78/15 24/76/15 63/77/15 
f 53/57/15 52/56/15 66/80/15 
f 54/59/15 53/57/15 67/81/15 
f 55/61/15 54/59/15 68/82/15 
f 56/63/15 55/61/15 69/83/15 
f 57/65/15 56/63/15 70/84/15 
f 58/67/15 57/65/15 71/85/15 
f 59/69/15 58/67/15 72/86/15 
f 60/71/15 59/69/15 73/87/15 
f 61/73/15 60/71/15 74/88/15 
f 62/75/15 61/73/15 75/89/15 
f 63/77/15 62/75/15 76/90/15 
f 65/79/15 63/77/15 77/91/15 
s 1
f 80/94/16 83/97/16 81/95/16 
f 83/97/16 85/99/17 84/98/17 
f 85/99/17 87/101/17 86/100/17 
f 87/101/17 89/103/17 88/102/17 
f 89/103/17 91/105/17 90/104/17 
f 91/105/17 93/107/17 92/106/17 
f 93/107/17 95/109/17 94/108/17 
f 95/109/17 97/111/17 96/110/17 
f 97/111/17 99/113/17 98/112/17 
f 99/113/17 101/115/17 100/114/17 
f 101/115/17 103/117/18 102/116/18 
f 103/117/18 117/119/16 104/118/18 
s 4
f 105/94/19 106/97/20 83/97/20 
f 106/97/20 107/99/21 85/99/21 
f 107/99/21 108/101/22 87/101/22 
f 108/101/22 109/103/23 89/103/23 
f 109/103/23 110/105/24 91/105/24 
f 110/105/24 111/107/25 93/107/25 
f 111/107/25 112/109/26 95/109/26 
f 112/109/26 113/111/27 97/111/27 
f 113/111/27 114/113/28 99/113/28 
f 114/113/28 115/115/29 101/115/29 
f 115/115/29 116/117/30 103/117/30 
f 116/117/30 131/119/31 117/119/31 
f 82/96/32 81/95/35 118/95/33 
f 118/95/33 132/96/39 119/96/34 
f 81/95/35 84/98/3 120/98/3 
f 84/98/3 86/100/4 121/100/4 
f 86/100/4 88/102/5 122/102/5 
f 88/102/5 90/104/6 123/104/6 
f 90/104/6 92/106/7 124/106/7 
f 92/106/7 94/108/8 125/108/8 
f 94/108/8 96/110/9 126/110/9 
f 96/110/9 98/112/10 127/112/10 
f 98/112/10 100/114/11 128/114/11 
f 100/114/11 102/116/37 129/116/36 
f 102/116/37 133/118/40 130/118/38 
f 102/116/37 104/118/41 133/118/40 
s 1
f 134/1/42 135/3/42 136/2/43 
f 137/4/43 136/2/43 138/5/29 
f 139/6/29 138/5/29 140/7/28 
f 141/8/28 140/7/28 142/9/27 
f 143/10/27 142/9/27 144/11/26 
f 145/12/26 144/11/26 146/13/44 
f 147/14/44 146/13/44 148/15/24 
f 149/16/24 148/18/24 150/17/23 
f 151/19/23 150/17/23 152/20/22 
f 153/21/22 152/20/22 154/22/21 
f 155/23/21 154/22/21 156/24/45 
f 157/25/45 156/24/45 158/26/46 
f 135/3/42 159/28/42 160/27/43 
f 136/2/43 160/27/43 161/29/29 
f 138/5/29 161/29/29 162/30/28 
f 140/7/28 162/30/28 163/31/27 
f 142/9/27 163/31/27 164/32/26 
f 144/11/26 164/32/26 165/33/44 
f 146/13/44 165/33/44 166/34/24 
f 148/18/24 166/36/24 167/35/23 
f 150/17/23 167/35/23 168/37/22 
f 152/20/22 168/37/22 169/38/21 
f 154/22/21 169/38/21 170/39/45 
f 156/24/45 170/39/45 171/40/46 
f 159/28/42 172/42/42 173/41/43 
f 160/27/43 173/41/43 174/43/29 
f 161/29/29 174/43/29 175/44/28 
f 162/30/28 175/44/28 176/45/27 
f 163/31/27 176/45/27 177/46/26 
f 164/32/26 177/46/26 178/47/44 
f 165/33/44 178/47/44 179/48/24 
f 166/36/24 179/50/24 180/49/23 
f 167/35/23 180/49/23 181/51/22 
f 168/37/22 181/51/22 182/52/21 
f 169/38/21 182/52/21 183/53/45 
f 170/39/45 183/53/45 184/54/46 
s 2
f 137/55/15 185/57/15 186/56/15 
f 139/58/15 187/59/15 185/57/15 
f 141/60/15 188/61/15 187/59/15 
f 143/62/15 189/63/15 188/61/15 
f 145/64/15 190/65/15 189/63/15 
f 147/66/15 191/67/15 190/65/15 
f 149/68/15 192/69/15 191/67/15 
f 151/70/15 193/71/15 192/69/15 
f 153/72/15 194/73/15 193/71/15 
f 155/74/15 195/75/15 194/73/15 
f 157/76/15 196/77/15 195/75/15 
f 197/78/15 198/79/15 196/77/15 
f 185/57/15 199/81/15 200/80/15 
f 187/59/15 201/82/15 199/81/15 
f 188/61/15 202/83/15 201/82/15 
f 189/63/15 203/84/15 202/83/15 
f 190/65/15 204/85/15 203/84/15 
f 191/67/15 205/86/15 204/85/15 
f 192/69/15 206/87/15 205/86/15 
f 193/71/15 207/88/15 206/87/15 
f 194/73/15 208/89/15 207/88/15 
f 195/75/15 209/90/15 208/89/15 
f 196/77/15 210/91/15 209/90/15 
f 198/79/15 211/92/15 210/91/15 
f 199/81/15 212/93/15 200/80/15 
f 201/82/15 212/93/15 199/81/15 
f 202/83/15 212/93/15 201/82/15 
f 203/84/15 212/93/15 202/83/15 
f 204/85/15 212/93/15 203/84/15 
f 205/86/15 212/93/15 204/85/15 
f 206/87/15 212/93/15 205/86/15 
f 207/88/15 212/93/15 206/87/15 
f 208/89/15 212/93/15 207/88/15 
f 209/90/15 212/93/15 208/89/15 
f 210/91/15 212/93/15 209/90/15 
f 211/92/15 212/93/15 210/91/15 
s 1
f 213/94/17 214/96/17 215/95/17 
f 216/97/17 215/95/17 217/98/17 
f 218/99/17 217/98/17 219/100/17 
f 220/101/17 219/100/17 221/102/17 
f 222/103/17 221/102/17 223/104/17 
f 224/105/17 223/104/17 225/106/17 
f 226/107/17 225/106/17 227/108/17 
f 228/109/17 227/108/17 229/110/17 
f 230/111/17 229/110/17 231/112/17 
f 232/113/17 231/112/17 233/114/17 
f 234/115/17 233/114/17 235/116/47 
f 236/117/47 235/116/47 237/118/47 
s 4
f 238/94/48 213/94/48 216/97/49 
f 239/97/49 216/97/49 218/99/11 
f 240/99/11 218/99/11 220/101/10 
f 241/101/10 220/101/10 222/103/9 
f 242/103/9 222/103/9 224/105/8 
f 243/105/8 224/105/8 226/107/14 
f 244/107/14 226/107/14 228/109/6 
f 245/109/6 228/109/6 230/111/5 
f 246/111/5 230/111/5 232/113/4 
f 247/113/4 232/113/4 234/115/3 
f 248/115/3 234/115/3 236/117/50 
f 249/117/50 236/117/50 250/119/51 
f 214/96/52 119/96/34 251/95/53 
f 215/95/54 251/95/53 252/98/29 
f 217/98/29 252/98/29 253/100/28 
f 219/100/28 253/100/28 254/102/27 
f 221/102/27 254/102/27 255/104/26 
f 223/104/26 255/104/26 256/106/44 
f 225/106/25 256/106/44 257/108/24 
f 227/108/24 257/108/24 258/110/23 
f 229/110/23 258/110/23 259/112/22 
f 231/112/22 259/112/22 260/114/21 
f 233/114/21 260/114/21 261/116/55 
f 235/116/56 261/116/55 262/118/57 
s 1
f 134/1/42 136/2/43 137/4/43 
f 137/4/43 138/5/29 139/6/29 
f 139/6/29 140/7/28 141/8/28 
f 141/8/28 142/9/27 143/10/27 
f 143/10/27 144/11/26 145/12/26 
f 145/12/26 146/13/44 147/14/44 
f 147/14/44 148/15/24 149/120/24 
f 149/16/24 150/17/23 151/19/23 
f 151/19/23 152/20/22 153/21/22 
f 153/21/22 154/22/21 155/23/21 
f 155/23/21 156/24/45 157/25/45 
f 157/25/45 158/26/46 197/121/46 
f 135/3/42 160/27/43 136/2/43 
f 136/2/43 161/29/29 138/5/29 
f 138/5/29 162/30/28 140/7/28 
f 140/7/28 163/31/27 142/9/27 
f 142/9/27 164/32/26 144/11/26 
f 144/11/26 165/33/44 146/13/44 
f 146/13/44 166/34/24 148/15/24 
f 148/18/24 167/35/23 150/17/23 
f 150/17/23 168/37/22 152/20/22 
f 152/20/22 169/38/21 154/22/21 
f 154/22/21 170/39/45 156/24/45 
f 156/24/45 171/40/46 158/26/46 
f 159/28/42 173/41/43 160/27/43 
f 160/27/43 174/43/29 161/29/29 
f 161/29/29 175/44/28 162/30/28 
f 162/30/28 176/45/27 163/31/27 
f 163/31/27 177/46/26 164/32/26 
f 164/32/26 178/47/44 165/33/44 
f 165/33/44 179/48/24 166/34/24 
f 166/36/24 180/49/23 167/35/23 
f 167/35/23 181/51/22 168/37/22 
f 168/37/22 182/52/21 169/38/21 
f 169/38/21 183/53/45 170/39/45 
f 170/39/45 184/54/46 171/40/46 
s 2
f 137/55/15 186/56/15 134/122/15 
f 139/58/15 185/57/15 137/55/15 
f 141/60/15 187/59/15 139/58/15 
f 143/62/15 188/61/15 141/60/15 
f 145/64/15 189/63/15 143/62/15 
f 147/66/15 190/65/15 145/64/15 
f 149/68/15 191/67/15 147/66/15 
f 151/70/15 192/69/15 149/68/15 
f 153/72/15 193/71/15 151/70/15 
f 155/74/15 194/73/15 153/72/15 
f 157/76/15 195/75/15 155/74/15 
f 197/78/15 196/77/15 157/76/15 
f 185/57/15 200/80/15 186/56/15 
f 187/59/15 199/81/15 185/57/15 
f 188/61/15 201/82/15 187/59/15 
f 189/63/15 202/83/15 188/61/15 
f 190/65/15 203/84/15 189/63/15 
f 191/67/15 204/85/15 190/65/15 
f 192/69/15 205/86/15 191/67/15 
f 193/71/15 206/87/15 192/69/15 
f 194/73/15 207/88/15 193/71/15 
f 195/75/15 208/89/15 194/73/15 
f 196/77/15 209/90/15 195/75/15 
f 198/79/15 210/91/15 196/77/15 
s 1
f 213/94/17 215/95/17 216/97/17 
f 216/97/17 217/98/17 218/99/17 
f 218/99/17 219/100/17 220/101/17 
f 220/101/17 221/102/17 222/103/17 
f 222/103/17 223/104/17 224/105/17 
f 224/105/17 225/106/17 226/107/17 
f 226/107/17 227/108/17 228/109/17 
f 228/109/17 229/110/17 230/111/17 
f 230/111/17 231/112/17 232/113/17 
f 232/113/17 233/114/17 234/115/17 
f 234/115/17 235/116/47 236/117/47 
f 236/117/47 237/118/47 250/119/17 
s 4
f 238/94/48 216/97/49 239/97/49 
f 239/97/49 218/99/11 240/99/11 
f 240/99/11 220/101/10 241/101/10 
f 241/101/10 222/103/9 242/103/9 
f 242/103/9 224/105/8 243/105/8 
f 243/105/8 226/107/14 244/107/14 
f 244/107/14 228/109/6 245/109/6 
f 245/109/6 230/111/5 246/111/5 
f 246/111/5 232/113/4 247/113/4 
f 247/113/4 234/115/3 248/115/3 
f 248/115/3 236/117/50 249/117/50 
f 249/117/50 250/119/51 263/119/51 
f 214/96/52 251/95/53 215/95/54 
f 251/95/53 119/96/34 264/96/58 
f 215/95/54 252/98/29 217/98/29 
f 217/98/29 253/100/28 219/100/28 
f 219/100/28 254/102/27 221/102/27 
f 221/102/27 255/104/26 223/104/26 
f 223/104/26 256/106/44 225/106/25 
f 225/106/25 257/108/24 227/108/24 
f 227/108/24 258/110/23 229/110/23 
f 229/110/23 259/112/22 231/112/22 
f 231/112/22 260/114/21 233/114/21 
f 233/114/21 261/116/55 235/116/56 
f 235/116/56 262/118/57 133/118/40 
f 235/116/56 133/118/40 237/118/59 
# 0 polygons - 412 triangles

