# 3ds Max Wavefront OBJ Exporter v0.97b - (c)2007 guruware
# 作成したファイル : 30.10.2020 11:14:31

mtllib CourceNew01.mtl

#
# object 真道路002
#

v  26.2782 8.4809 -0.0000
v  10.4098 8.4809 -26.6460
v  10.9327 8.4809 -0.0000
v  25.2324 8.4809 -30.4721
v  8.8768 8.4809 -30.2114
v  22.1664 8.4809 -37.6028
v  6.4381 8.4809 -33.2730
v  17.2890 8.4809 -43.7261
v  3.2599 8.4809 -35.6223
v  10.9327 8.4809 -48.4246
v  -0.4411 8.4809 -37.0991
v  3.5306 8.4809 -51.3783
v  -4.4128 8.4809 -37.6028
v  -4.4128 8.4809 -52.3857
v  -8.3845 8.4809 -37.0991
v  -12.3562 8.4809 -51.3783
v  -12.0855 8.4809 -35.6223
v  -19.7583 8.4809 -48.4246
v  -15.2637 8.4809 -33.2730
v  -26.1146 8.4809 -43.7261
v  -17.7024 8.4809 -30.2114
v  -30.9920 8.4809 -37.6028
v  -19.2354 8.4809 -26.6460
v  -34.0580 8.4809 -30.4721
v  -19.7583 8.4809 -0.0000
v  -35.1038 8.4809 -0.0000
v  10.4098 8.4809 26.6460
v  25.2324 8.4809 30.4721
v  8.8768 8.4809 30.2114
v  22.1664 8.4809 37.6028
v  6.4381 8.4809 33.2730
v  17.2890 8.4809 43.7261
v  3.2599 8.4809 35.6223
v  10.9327 8.4809 48.4246
v  -0.4411 8.4809 37.0991
v  3.5306 8.4809 51.3783
v  -4.4128 8.4809 37.6028
v  -4.4128 8.4809 52.3857
v  -8.3845 8.4809 37.0991
v  -12.3562 8.4809 51.3783
v  -12.0855 8.4809 35.6223
v  -19.7583 8.4809 48.4246
v  -15.2637 8.4809 33.2730
v  -26.1146 8.4809 43.7261
v  -17.7024 8.4809 30.2114
v  -30.9920 8.4809 37.6028
v  -19.2354 8.4809 26.6460
v  -34.0580 8.4809 30.4721
# 48 vertices

vn 0.0000 1.0000 0.0000
vn 0.0000 1.0000 -0.0000
vn -0.0000 1.0000 0.0000
vn -0.0000 1.0000 -0.0000
# 4 vertex normals

vt 0.5000 0.8333 0.2500
vt 0.4569 0.6610 0.2500
vt 0.5000 0.6667 0.2500
vt 0.4137 0.8220 0.2500
vt 0.4167 0.6443 0.2500
vt 0.3333 0.7887 0.2500
vt 0.3821 0.6179 0.2500
vt 0.2643 0.7357 0.2500
vt 0.3557 0.5833 0.2500
vt 0.2113 0.6667 0.2500
vt 0.3390 0.5431 0.2500
vt 0.1780 0.5863 0.2500
vt 0.3333 0.5000 0.2500
vt 0.1667 0.5000 0.2500
vt 0.3390 0.4569 0.2500
vt 0.1780 0.4137 0.2500
vt 0.3557 0.4167 0.2500
vt 0.2113 0.3333 0.2500
vt 0.3821 0.3821 0.2500
vt 0.2643 0.2643 0.2500
vt 0.4167 0.3557 0.2500
vt 0.3333 0.2113 0.2500
vt 0.4569 0.3390 0.2500
vt 0.4137 0.1780 0.2500
vt 0.5000 0.3333 0.2500
vt 0.5000 0.1667 0.2500
# 26 texture coords

g 真道路002
usemtl Material__4
s 1
f 1/1/1 2/2/1 3/3/2 
f 4/4/1 5/5/2 2/2/1 
f 6/6/2 7/7/2 5/5/2 
f 8/8/2 9/9/2 7/7/2 
f 10/10/2 11/11/2 9/9/2 
f 12/12/2 13/13/2 11/11/2 
f 14/14/2 15/15/2 13/13/2 
f 16/16/2 17/17/2 15/15/2 
f 18/18/2 19/19/2 17/17/2 
f 20/20/2 21/21/2 19/19/2 
f 22/22/2 23/23/3 21/21/2 
f 24/24/3 25/25/4 23/23/3 
f 1/1/1 4/4/1 2/2/1 
f 4/4/1 6/6/2 5/5/2 
f 6/6/2 8/8/2 7/7/2 
f 8/8/2 10/10/2 9/9/2 
f 10/10/2 12/12/2 11/11/2 
f 12/12/2 14/14/2 13/13/2 
f 14/14/2 16/16/2 15/15/2 
f 16/16/2 18/18/2 17/17/2 
f 18/18/2 20/20/2 19/19/2 
f 20/20/2 22/22/2 21/21/2 
f 22/22/2 24/24/3 23/23/3 
f 24/24/3 26/26/2 25/25/4 
f 1/1/1 3/3/2 27/2/2 
f 28/4/2 27/2/2 29/5/2 
f 30/6/2 29/5/2 31/7/2 
f 32/8/2 31/7/2 33/9/2 
f 34/10/2 33/9/2 35/11/2 
f 36/12/2 35/11/2 37/13/2 
f 38/14/2 37/13/2 39/15/2 
f 40/16/2 39/15/2 41/17/2 
f 42/18/2 41/17/2 43/19/2 
f 44/20/2 43/19/2 45/21/2 
f 46/22/2 45/21/2 47/23/4 
f 48/24/4 47/23/4 25/25/4 
f 1/1/1 27/2/2 28/4/2 
f 28/4/2 29/5/2 30/6/2 
f 30/6/2 31/7/2 32/8/2 
f 32/8/2 33/9/2 34/10/2 
f 34/10/2 35/11/2 36/12/2 
f 36/12/2 37/13/2 38/14/2 
f 38/14/2 39/15/2 40/16/2 
f 40/16/2 41/17/2 42/18/2 
f 42/18/2 43/19/2 44/20/2 
f 44/20/2 45/21/2 46/22/2 
f 46/22/2 47/23/4 48/24/4 
f 48/24/4 25/25/4 26/26/2 
# 0 polygons - 48 triangles

