# 3ds Max Wavefront OBJ Exporter v0.97b - (c)2007 guruware
# ì¬‚µ‚½ƒtƒ@ƒCƒ‹ : 09.10.2020 12:23:18

mtllib Grass01.mtl

#
# object Grass002
#

v  41.6237 12.4961 0.0762
v  25.2324 12.4961 -30.4721
v  26.2782 12.4961 0.0762
v  40.0550 12.4961 -34.2982
v  22.1664 12.4961 -37.6028
v  35.4559 12.4961 -44.9943
v  17.2890 12.4961 -43.7261
v  28.1399 12.4961 -54.1792
v  10.9327 12.4961 -48.4246
v  18.6054 12.4961 -61.2270
v  3.5306 12.4961 -51.3783
v  7.5023 12.4961 -65.6574
v  -4.4128 12.4961 -52.3857
v  -4.4128 12.4961 -67.1686
v  -12.3562 12.4961 -51.3783
v  -16.3279 12.4961 -65.6574
v  -19.7583 12.4961 -48.4246
v  -27.4310 12.4961 -61.2270
v  -26.1146 12.4961 -43.7261
v  -36.9655 12.4961 -54.1792
v  -30.9920 12.4961 -37.6028
v  -44.2815 12.4961 -44.9943
v  -34.0580 12.4961 -30.4721
v  -48.8806 12.4961 -34.2982
v  -35.1038 12.4961 0.0762
v  10.4762 12.4961 -22.8199
v  10.4098 12.4961 -26.6460
v  -4.4128 12.4961 -22.8199
v  8.8768 12.4961 -30.2114
v  6.4381 12.4961 -33.2730
v  3.2599 12.4961 -35.6223
v  -0.4411 12.4961 -37.0991
v  -4.4128 12.4961 -37.6028
v  -8.3845 12.4961 -37.0991
v  -12.0855 12.4961 -35.6223
v  -15.2637 12.4961 -33.2730
v  -17.7024 12.4961 -30.2114
v  -19.2354 12.4961 -26.6460
v  -19.3256 12.4961 -22.8199
v  -4.4128 12.5017 0.0235
v  -19.7583 12.5017 0.0235
v  10.9327 12.5017 0.0235
v  -50.4493 12.4961 0.0762
v  41.6237 12.4961 -0.0292
v  26.2782 12.4961 -0.0292
v  25.2324 12.4961 30.5191
v  40.0550 12.4961 34.3452
v  22.1664 12.4961 37.6498
v  35.4559 12.4961 45.0413
v  17.2890 12.4961 43.7731
v  28.1399 12.4961 54.2262
v  10.9327 12.4961 48.4716
v  18.6054 12.4961 61.2740
v  3.5306 12.4961 51.4253
v  7.5023 12.4961 65.7044
v  -4.4128 12.4961 52.4327
v  -4.4128 12.4961 67.2156
v  -12.3562 12.4961 51.4253
v  -16.3279 12.4961 65.7044
v  -19.7583 12.4961 48.4716
v  -27.4310 12.4961 61.2740
v  -26.1146 12.4961 43.7731
v  -36.9655 12.4961 54.2262
v  -30.9920 12.4961 37.6498
v  -44.2815 12.4961 45.0413
v  -34.0580 12.4961 30.5191
v  -48.8806 12.4961 34.3452
v  -35.1038 12.4961 -0.0292
v  10.4762 12.4961 22.8669
v  -4.4128 12.4961 22.8669
v  10.4098 12.4961 26.6930
v  8.8768 12.4961 30.2584
v  6.4381 12.4961 33.3200
v  3.2599 12.4961 35.6693
v  -0.4411 12.4961 37.1461
v  -4.4128 12.4961 37.6498
v  -8.3845 12.4961 37.1461
v  -12.0855 12.4961 35.6693
v  -15.2637 12.4961 33.3200
v  -17.7024 12.4961 30.2584
v  -19.2354 12.4961 26.6930
v  -19.3256 12.4961 22.8669
v  -50.4493 12.4961 -0.0292
# 83 vertices

vn 0.0000 1.0000 -0.0000
vn 0.0000 1.0000 0.0000
vn 0.0000 1.0000 -0.0002
vn -0.0000 1.0000 -0.0000
vn -0.0000 1.0000 -0.0002
vn 0.0000 1.0000 0.0002
vn -0.0000 1.0000 0.0002
# 7 vertex normals

vt 0.5000 1.0000 0.2500
vt 0.4137 0.8220 0.2500
vt 0.5000 0.8333 0.2500
vt 0.3706 0.9830 0.2500
vt 0.3333 0.7887 0.2500
vt 0.2500 0.9330 0.2500
vt 0.2643 0.7357 0.2500
vt 0.1464 0.8536 0.2500
vt 0.2113 0.6667 0.2500
vt 0.0670 0.7500 0.2500
vt 0.1780 0.5863 0.2500
vt 0.0170 0.6294 0.2500
vt 0.1667 0.5000 0.2500
vt 0.0000 0.5000 0.2500
vt 0.1780 0.4137 0.2500
vt 0.0170 0.3706 0.2500
vt 0.2113 0.3333 0.2500
vt 0.0670 0.2500 0.2500
vt 0.2643 0.2643 0.2500
vt 0.1464 0.1464 0.2500
vt 0.3333 0.2113 0.2500
vt 0.2500 0.0670 0.2500
vt 0.4137 0.1780 0.2500
vt 0.3706 0.0170 0.2500
vt 0.5000 0.1667 0.2500
vt 0.5000 0.6667 0.2500
vt 0.4569 0.6610 0.2500
vt 0.5000 0.5000 0.2500
vt 0.4167 0.6443 0.2500
vt 0.3821 0.6179 0.2500
vt 0.3557 0.5833 0.2500
vt 0.3390 0.5431 0.2500
vt 0.3333 0.5000 0.2500
vt 0.3390 0.4569 0.2500
vt 0.3557 0.4167 0.2500
vt 0.3821 0.3821 0.2500
vt 0.4167 0.3557 0.2500
vt 0.4569 0.3390 0.2500
vt 0.5000 0.3333 0.2500
vt 0.5000 0.0000 0.2500
# 40 texture coords

g Grass002
usemtl Material__2
s 2
f 1/1/1 2/2/1 3/3/1 
f 4/4/1 5/5/1 2/2/1 
f 6/6/1 7/7/1 5/5/1 
f 8/8/1 9/9/1 7/7/1 
f 10/10/1 11/11/1 9/9/1 
f 12/12/1 13/13/1 11/11/1 
f 14/14/1 15/15/1 13/13/1 
f 16/16/1 17/17/1 15/15/1 
f 18/18/1 19/19/1 17/17/1 
f 20/20/1 21/21/1 19/19/1 
f 22/22/1 23/23/1 21/21/1 
f 24/24/1 25/25/1 23/23/1 
s 1
f 26/26/1 27/27/1 28/28/1 
f 27/27/1 29/29/1 28/28/1 
f 29/29/1 30/30/1 28/28/1 
f 30/30/1 31/31/1 28/28/1 
f 31/31/1 32/32/1 28/28/1 
f 32/32/1 33/33/1 28/28/1 
f 33/33/1 34/34/1 28/28/1 
f 34/34/1 35/35/1 28/28/1 
f 35/35/1 36/36/1 28/28/1 
f 36/36/1 37/37/1 28/28/1 
f 37/37/1 38/38/1 28/28/1 
f 38/38/1 39/39/1 28/28/1 
s 8
f 40/28/2 28/28/3 41/39/4 
f 42/26/2 26/26/3 40/28/2 
s 2
f 1/1/1 4/4/1 2/2/1 
f 4/4/1 6/6/1 5/5/1 
f 6/6/1 8/8/1 7/7/1 
f 8/8/1 10/10/1 9/9/1 
f 10/10/1 12/12/1 11/11/1 
f 12/12/1 14/14/1 13/13/1 
f 14/14/1 16/16/1 15/15/1 
f 16/16/1 18/18/1 17/17/1 
f 18/18/1 20/20/1 19/19/1 
f 20/20/1 22/22/1 21/21/1 
f 22/22/1 24/24/1 23/23/1 
f 24/24/1 43/40/1 25/25/1 
s 8
f 28/28/3 39/39/5 41/39/4 
f 26/26/3 28/28/3 40/28/2 
s 2
f 44/1/1 45/3/1 46/2/1 
f 47/4/1 46/2/1 48/5/1 
f 49/6/1 48/5/1 50/7/1 
f 51/8/1 50/7/1 52/9/1 
f 53/10/1 52/9/1 54/11/1 
f 55/12/1 54/11/1 56/13/1 
f 57/14/1 56/13/1 58/15/1 
f 59/16/1 58/15/1 60/17/1 
f 61/18/1 60/17/1 62/19/1 
f 63/20/1 62/19/1 64/21/1 
f 65/22/1 64/21/1 66/23/1 
f 67/24/1 66/23/1 68/25/1 
s 1
f 69/26/1 70/28/1 71/27/1 
f 71/27/1 70/28/1 72/29/1 
f 72/29/1 70/28/1 73/30/1 
f 73/30/1 70/28/1 74/31/1 
f 74/31/1 70/28/1 75/32/1 
f 75/32/1 70/28/1 76/33/1 
f 76/33/1 70/28/1 77/34/1 
f 77/34/1 70/28/1 78/35/1 
f 78/35/1 70/28/1 79/36/1 
f 79/36/1 70/28/1 80/37/1 
f 80/37/1 70/28/1 81/38/1 
f 81/38/1 70/28/1 82/39/1 
s 8
f 40/28/2 41/39/4 70/28/6 
f 42/26/2 40/28/2 69/26/6 
s 2
f 44/1/1 46/2/1 47/4/1 
f 47/4/1 48/5/1 49/6/1 
f 49/6/1 50/7/1 51/8/1 
f 51/8/1 52/9/1 53/10/1 
f 53/10/1 54/11/1 55/12/1 
f 55/12/1 56/13/1 57/14/1 
f 57/14/1 58/15/1 59/16/1 
f 59/16/1 60/17/1 61/18/1 
f 61/18/1 62/19/1 63/20/1 
f 63/20/1 64/21/1 65/22/1 
f 65/22/1 66/23/1 67/24/1 
f 67/24/1 68/25/1 83/40/1 
s 8
f 70/28/6 41/39/4 82/39/7 
f 69/26/6 40/28/2 70/28/6 
# 0 polygons - 80 triangles

