# 3ds Max Wavefront OBJ Exporter v0.97b - (c)2007 guruware
# 作成したファイル : 27.10.2020 13:56:13

mtllib minicarsol.mtl

#
# object カーソル
#

v  6.0000 0.0000 -10.0000
v  0.0000 -0.0000 -3.0000
v  -0.0000 0.0000 10.0000
v  -6.0000 0.0000 -10.0000
# 4 vertices

vn -0.0000 1.0000 -0.0000
vn 0.0000 1.0000 -0.0000
# 2 vertex normals

vt 0.0000 1.0000 0.0000
vt 0.0000 0.0000 0.0000
vt 1.0000 1.0000 0.0000
vt 1.0000 0.0000 0.0000
# 4 texture coords

g カーソル
usemtl Material__25
s 1
f 1/1/1 2/2/2 3/3/2 
f 2/2/2 4/4/2 3/3/2 
# 0 polygons - 2 triangles

