# 3ds Max Wavefront OBJ Exporter v0.97b - (c)2007 guruware
# 作成したファイル : 13.11.2020 15:05:38

mtllib NewNewR-W.mtl

#
# object 真2こーはく001
#

v  26.2782 8.4809 -0.0000
v  24.6075 8.4809 -30.2898
v  25.6312 8.4809 2.4010
v  25.2324 8.4809 -30.4721
v  21.6061 8.4809 -37.2702
v  22.1664 8.4809 -37.6028
v  16.8315 8.4809 -43.2644
v  17.2890 8.4809 -43.7261
v  10.6092 8.4809 -47.8639
v  10.9327 8.4809 -48.4246
v  3.3632 8.4809 -50.7553
v  3.5306 8.4809 -51.3783
v  -4.4128 8.4809 -51.7415
v  -4.4128 8.4809 -52.3857
v  -12.1888 8.4809 -50.7553
v  -12.3562 8.4809 -51.3783
v  -19.4348 8.4809 -47.8639
v  -19.7583 8.4809 -48.4246
v  -25.6571 8.4809 -43.2644
v  -26.1146 8.4809 -43.7261
v  -30.4317 8.4809 -37.2702
v  -30.9920 8.4809 -37.6028
v  -33.4331 8.4809 -30.2898
v  -34.0580 8.4809 -30.4721
v  -34.4568 8.4809 2.4010
v  -35.1038 8.4809 -0.0000
v  25.6312 8.4809 -2.4009
v  24.6075 8.4809 30.2898
v  25.2324 8.4809 30.4721
v  21.6061 8.4809 37.2702
v  22.1664 8.4809 37.6028
v  16.8315 8.4809 43.2644
v  17.2890 8.4809 43.7261
v  10.6092 8.4809 47.8639
v  10.9327 8.4809 48.4246
v  3.3632 8.4809 50.7553
v  3.5306 8.4809 51.3783
v  -4.4128 8.4809 51.7415
v  -4.4128 8.4809 52.3857
v  -12.1888 8.4809 50.7553
v  -12.3562 8.4809 51.3783
v  -19.4348 8.4809 47.8639
v  -19.7583 8.4809 48.4246
v  -25.6571 8.4809 43.2644
v  -26.1146 8.4809 43.7261
v  -30.4317 8.4809 37.2702
v  -30.9920 8.4809 37.6028
v  -33.4331 8.4809 30.2898
v  -34.0580 8.4809 30.4721
v  -34.4568 8.4809 -2.4009
# 50 vertices

vn -0.0000 1.0000 0.0000
vn 0.0000 1.0000 0.0000
vn 0.0000 1.0000 -0.0000
vn -0.0000 1.0000 -0.0000
# 4 vertex normals

vt 0.4948 0.5679 -2.5000
vt 0.2048 0.5438 -2.5000
vt 0.5180 0.5626 -2.5000
vt 0.2029 0.5495 -2.5000
vt 0.1387 0.5142 -2.5000
vt 0.1354 0.5193 -2.5000
vt 0.0825 0.4686 -2.5000
vt 0.0780 0.4727 -2.5000
vt 0.0400 0.4103 -2.5000
vt 0.0346 0.4131 -2.5000
vt 0.0140 0.3431 -2.5000
vt 0.0080 0.3445 -2.5000
vt 0.0061 0.2718 -2.5000
vt 0.0000 0.2716 2.5000
vt 0.0167 0.2010 -2.5000
vt 0.0108 0.1994 -2.5000
vt 0.0450 0.1355 -2.5000
vt 0.0398 0.1325 -2.5000
vt 0.0892 0.0798 -2.5000
vt 0.0849 0.0756 -2.5000
vt 0.1461 0.0374 -2.5000
vt 0.1430 0.0323 -2.5000
vt 0.2118 0.0112 -2.5000
vt 0.2102 0.0055 -2.5000
vt 0.5177 0.0061 -2.5000
vt 0.4953 0.0000 -2.5000
vt 0.4714 0.5623 -2.5000
vt 0.7883 0.5461 -2.5000
vt 0.7902 0.5519 -2.5000
vt 0.8554 0.5166 -2.5000
vt 0.8587 0.5217 -2.5000
vt 0.9124 0.4707 -2.5000
vt 0.9170 0.4749 -2.5000
vt 0.9556 0.4118 -2.5000
vt 0.9611 0.4147 -2.5000
vt 0.9819 0.3439 -2.5000
vt 0.9880 0.3453 -2.5000
vt 0.9898 0.2718 -2.5000
vt 0.9960 0.2716 2.5000
vt 0.9789 0.2004 -2.5000
vt 0.9848 0.1987 -2.5000
vt 0.9500 0.1345 -2.5000
vt 0.9552 0.1314 -2.5000
vt 0.9052 0.0784 -2.5000
vt 0.9095 0.0742 -2.5000
vt 0.8476 0.0359 -2.5000
vt 0.8507 0.0308 -2.5000
vt 0.7812 0.0099 -2.5000
vt 0.7828 0.0041 -2.5000
vt 0.4728 0.0063 -2.5000
# 50 texture coords

g 真2こーはく001
usemtl Material__7
s 1
f 1/1/1 2/2/1 3/3/1 
f 4/4/1 5/5/1 2/2/1 
f 6/6/1 7/7/1 5/5/1 
f 8/8/1 9/9/1 7/7/1 
f 10/10/1 11/11/1 9/9/1 
f 12/12/1 13/13/2 11/11/1 
f 14/14/2 15/15/2 13/13/2 
f 16/16/2 17/17/2 15/15/2 
f 18/18/2 19/19/2 17/17/2 
f 20/20/2 21/21/2 19/19/2 
f 22/22/2 23/23/2 21/21/2 
f 24/24/2 25/25/2 23/23/2 
f 1/1/1 4/4/1 2/2/1 
f 4/4/1 6/6/1 5/5/1 
f 6/6/1 8/8/1 7/7/1 
f 8/8/1 10/10/1 9/9/1 
f 10/10/1 12/12/1 11/11/1 
f 12/12/1 14/14/2 13/13/2 
f 14/14/2 16/16/2 15/15/2 
f 16/16/2 18/18/2 17/17/2 
f 18/18/2 20/20/2 19/19/2 
f 20/20/2 22/22/2 21/21/2 
f 22/22/2 24/24/2 23/23/2 
f 24/24/2 26/26/3 25/25/2 
f 1/1/1 27/27/4 28/28/4 
f 29/29/4 28/28/4 30/30/4 
f 31/31/4 30/30/4 32/32/4 
f 33/33/4 32/32/4 34/34/4 
f 35/35/4 34/34/4 36/36/4 
f 37/37/4 36/36/4 38/38/3 
f 39/39/3 38/38/3 40/40/3 
f 41/41/3 40/40/3 42/42/3 
f 43/43/3 42/42/3 44/44/3 
f 45/45/3 44/44/3 46/46/3 
f 47/47/3 46/46/3 48/48/3 
f 49/49/3 48/48/3 50/50/3 
f 1/1/1 28/28/4 29/29/4 
f 29/29/4 30/30/4 31/31/4 
f 31/31/4 32/32/4 33/33/4 
f 33/33/4 34/34/4 35/35/4 
f 35/35/4 36/36/4 37/37/4 
f 37/37/4 38/38/3 39/39/3 
f 39/39/3 40/40/3 41/41/3 
f 41/41/3 42/42/3 43/43/3 
f 43/43/3 44/44/3 45/45/3 
f 45/45/3 46/46/3 47/47/3 
f 47/47/3 48/48/3 49/49/3 
f 49/49/3 50/50/3 26/26/3 
# 0 polygons - 48 triangles

#
# object 真2こーはく002
#

v  11.5778 8.4809 -0.0000
v  10.4098 8.4809 -26.6460
v  10.9327 8.4809 -0.0000
v  11.0329 8.4809 -26.8110
v  8.8768 8.4809 -30.2114
v  9.4355 8.4809 -30.5263
v  6.4381 8.4809 -33.2730
v  6.8943 8.4809 -33.7166
v  3.2599 8.4809 -35.6223
v  3.5825 8.4809 -36.1647
v  -0.4411 8.4809 -37.0991
v  -0.2741 8.4809 -37.7036
v  -4.4128 8.4809 -37.6028
v  -4.4128 8.4809 -38.2285
v  -8.3845 8.4809 -37.0991
v  -8.5515 8.4809 -37.7036
v  -12.0855 8.4809 -35.6223
v  -12.4081 8.4809 -36.1647
v  -15.2637 8.4809 -33.2730
v  -15.7199 8.4809 -33.7166
v  -17.7024 8.4809 -30.2114
v  -18.2611 8.4809 -30.5263
v  -19.2354 8.4809 -26.6460
v  -19.8585 8.4809 -26.8111
v  -19.7583 8.4809 -0.0000
v  -20.4034 8.4809 -0.0000
v  10.4098 8.4809 26.6460
v  11.0329 8.4809 26.8110
v  8.8768 8.4809 30.2114
v  9.4355 8.4809 30.5263
v  6.4381 8.4809 33.2730
v  6.8943 8.4809 33.7166
v  3.2599 8.4809 35.6223
v  3.5825 8.4809 36.1647
v  -0.4411 8.4809 37.0991
v  -0.2741 8.4809 37.7036
v  -4.4128 8.4809 37.6028
v  -4.4128 8.4809 38.2285
v  -8.3845 8.4809 37.0991
v  -8.5515 8.4809 37.7036
v  -12.0855 8.4809 35.6223
v  -12.4081 8.4809 36.1647
v  -15.2637 8.4809 33.2730
v  -15.7199 8.4809 33.7166
v  -17.7024 8.4809 30.2114
v  -18.2611 8.4809 30.5263
v  -19.2354 8.4809 26.6460
v  -19.8585 8.4809 26.8111
# 48 vertices

vn 0.0000 1.0000 0.0000
vn 0.0000 1.0000 -0.0000
vn -0.0000 1.0000 -0.0000
vn -0.0000 1.0000 0.0000
# 4 vertex normals

vt 0.3340 0.8539 -2.5000
vt 0.1014 0.8443 -2.5000
vt 0.3340 0.8484 -2.5000
vt 0.0999 0.8496 -2.5000
vt 0.0702 0.8314 -2.5000
vt 0.0674 0.8362 -2.5000
vt 0.0434 0.8110 -2.5000
vt 0.0395 0.8148 -2.5000
vt 0.0228 0.7842 -2.5000
vt 0.0181 0.7869 -2.5000
vt 0.0099 0.7531 -2.5000
vt 0.0046 0.7545 -2.5000
vt 0.0055 0.7196 -2.5000
vt 0.0000 0.7196 2.5000
vt 0.0099 0.6862 -2.5000
vt 0.0046 0.6848 -2.5000
vt 0.0228 0.6550 -2.5000
vt 0.0180 0.6523 -2.5000
vt 0.0433 0.6282 -2.5000
vt 0.0394 0.6244 -2.5000
vt 0.0701 0.6077 -2.5000
vt 0.0673 0.6030 -2.5000
vt 0.1012 0.5948 -2.5000
vt 0.0998 0.5896 -2.5000
vt 0.3340 0.5906 -2.5000
vt 0.3340 0.5852 -2.5000
vt 0.5666 0.8439 -2.5000
vt 0.5680 0.8492 -2.5000
vt 0.5976 0.8311 -2.5000
vt 0.6004 0.8358 -2.5000
vt 0.6243 0.8106 -2.5000
vt 0.6282 0.8144 -2.5000
vt 0.6448 0.7839 -2.5000
vt 0.6495 0.7867 -2.5000
vt 0.6576 0.7529 -2.5000
vt 0.6629 0.7543 -2.5000
vt 0.6620 0.7196 -2.5000
vt 0.6675 0.7196 2.5000
vt 0.6577 0.6863 -2.5000
vt 0.6629 0.6849 -2.5000
vt 0.6448 0.6552 -2.5000
vt 0.6496 0.6525 -2.5000
vt 0.6244 0.6285 -2.5000
vt 0.6283 0.6247 -2.5000
vt 0.5977 0.6080 -2.5000
vt 0.6005 0.6033 -2.5000
vt 0.5666 0.5951 -2.5000
vt 0.5681 0.5899 -2.5000
# 48 texture coords

g 真2こーはく002
usemtl Material__7
s 1
f 51/51/5 52/52/6 53/53/6 
f 54/54/6 55/55/6 52/52/6 
f 56/56/6 57/57/6 55/55/6 
f 58/58/6 59/59/6 57/57/6 
f 60/60/6 61/61/6 59/59/6 
f 62/62/6 63/63/6 61/61/6 
f 64/64/6 65/65/7 63/63/6 
f 66/66/7 67/67/7 65/65/7 
f 68/68/7 69/69/7 67/67/7 
f 70/70/7 71/71/7 69/69/7 
f 72/72/7 73/73/7 71/71/7 
f 74/74/7 75/75/8 73/73/7 
f 51/51/5 54/54/6 52/52/6 
f 54/54/6 56/56/6 55/55/6 
f 56/56/6 58/58/6 57/57/6 
f 58/58/6 60/60/6 59/59/6 
f 60/60/6 62/62/6 61/61/6 
f 62/62/6 64/64/6 63/63/6 
f 64/64/6 66/66/7 65/65/7 
f 66/66/7 68/68/7 67/67/7 
f 68/68/7 70/70/7 69/69/7 
f 70/70/7 72/72/7 71/71/7 
f 72/72/7 74/74/7 73/73/7 
f 74/74/7 76/76/8 75/75/8 
f 51/51/5 53/53/6 77/77/5 
f 78/78/5 77/77/5 79/79/5 
f 80/80/5 79/79/5 81/81/5 
f 82/82/5 81/81/5 83/83/5 
f 84/84/5 83/83/5 85/85/5 
f 86/86/5 85/85/5 87/87/5 
f 88/88/5 87/87/5 89/89/8 
f 90/90/8 89/89/8 91/91/8 
f 92/92/8 91/91/8 93/93/8 
f 94/94/8 93/93/8 95/95/8 
f 96/96/8 95/95/8 97/97/8 
f 98/98/8 97/97/8 75/75/8 
f 51/51/5 77/77/5 78/78/5 
f 78/78/5 79/79/5 80/80/5 
f 80/80/5 81/81/5 82/82/5 
f 82/82/5 83/83/5 84/84/5 
f 84/84/5 85/85/5 86/86/5 
f 86/86/5 87/87/5 88/88/5 
f 88/88/5 89/89/8 90/90/8 
f 90/90/8 91/91/8 92/92/8 
f 92/92/8 93/93/8 94/94/8 
f 94/94/8 95/95/8 96/96/8 
f 96/96/8 97/97/8 98/98/8 
f 98/98/8 75/75/8 76/76/8 
# 0 polygons - 48 triangles

