# 3ds Max Wavefront OBJ Exporter v0.97b - (c)2007 guruware
# 作成したファイル : 06.11.2020 11:44:39

mtllib RedWhiteTile.mtl

#
# object 真紅白タイル
#

v  28.2002 8.4809 -0.0000
v  9.3762 8.4809 -26.7367
v  9.8626 8.4809 -0.0000
v  27.0890 8.4809 -30.0893
v  7.9500 8.4809 -30.0534
v  23.8309 8.4809 -37.6666
v  5.6814 8.4809 -32.9016
v  18.6481 8.4809 -44.1734
v  2.7249 8.4809 -35.0870
v  11.8937 8.4809 -49.1661
v  -0.7181 8.4809 -36.4608
v  4.0281 8.4809 -52.3047
v  -4.4128 8.4809 -36.9294
v  -4.4128 8.4809 -53.3753
v  -8.1075 8.4809 -36.4608
v  -12.8537 8.4809 -52.3047
v  -11.5505 8.4809 -35.0870
v  -20.7193 8.4809 -49.1661
v  -14.5070 8.4809 -32.9016
v  -27.4737 8.4809 -44.1734
v  -16.7757 8.4809 -30.0534
v  -32.6565 8.4809 -37.6666
v  -18.2018 8.4809 -26.7367
v  -35.9146 8.4809 -30.0893
v  -18.6882 8.4809 -0.0000
v  -37.0258 8.4809 -0.0000
v  9.3762 8.4809 26.7367
v  27.0890 8.4809 30.0893
v  7.9500 8.4809 30.0534
v  23.8309 8.4809 37.6666
v  5.6814 8.4809 32.9016
v  18.6481 8.4809 44.1734
v  2.7249 8.4809 35.0870
v  11.8937 8.4809 49.1661
v  -0.7181 8.4809 36.4609
v  4.0281 8.4809 52.3047
v  -4.4128 8.4809 36.9294
v  -4.4128 8.4809 53.3753
v  -8.1075 8.4809 36.4609
v  -12.8537 8.4809 52.3047
v  -11.5505 8.4809 35.0870
v  -20.7193 8.4809 49.1661
v  -14.5070 8.4809 32.9016
v  -27.4737 8.4809 44.1734
v  -16.7757 8.4809 30.0534
v  -32.6565 8.4809 37.6666
v  -18.2018 8.4809 26.7367
v  -35.9146 8.4809 30.0893
# 48 vertices

vn 0.0000 1.0000 0.0000
vn 0.0000 1.0000 -0.0000
vn -0.0000 1.0000 -0.0000
vn -0.0000 1.0000 0.0000
# 4 vertex normals

vt 0.5000 0.0200 0.0000
vt 0.7404 0.1831 0.0000
vt 0.5000 0.1789 0.0000
vt 0.7706 0.0296 0.0000
vt 0.7703 0.1954 0.0000
vt 0.8387 0.0579 0.0000
vt 0.7959 0.2151 0.0000
vt 0.8972 0.1028 0.0000
vt 0.8155 0.2407 0.0000
vt 0.9421 0.1613 0.0000
vt 0.8279 0.2705 0.0000
vt 0.9704 0.2294 0.0000
vt 0.8321 0.3025 0.0000
vt 0.9800 0.3025 0.0000
vt 0.8279 0.3345 0.0000
vt 0.9704 0.3757 0.0000
vt 0.8155 0.3644 0.0000
vt 0.9421 0.4438 0.0000
vt 0.7959 0.3900 0.0000
vt 0.8972 0.5023 0.0000
vt 0.7703 0.4096 0.0000
vt 0.8387 0.5472 0.0000
vt 0.7404 0.4220 0.0000
vt 0.7706 0.5754 0.0000
vt 0.5000 0.4262 0.0000
vt 0.5000 0.5851 0.0000
vt 0.2596 0.1831 0.0000
vt 0.2294 0.0296 0.0000
vt 0.2297 0.1954 0.0000
vt 0.1613 0.0579 0.0000
vt 0.2041 0.2151 0.0000
vt 0.1028 0.1028 0.0000
vt 0.1845 0.2407 0.0000
vt 0.0579 0.1613 0.0000
vt 0.1721 0.2705 0.0000
vt 0.0296 0.2294 0.0000
vt 0.1679 0.3025 0.0000
vt 0.0200 0.3025 0.0000
vt 0.1721 0.3345 0.0000
vt 0.0296 0.3757 0.0000
vt 0.1845 0.3644 0.0000
vt 0.0579 0.4438 0.0000
vt 0.2041 0.3900 0.0000
vt 0.1028 0.5023 0.0000
vt 0.2297 0.4096 0.0000
vt 0.1613 0.5472 0.0000
vt 0.2596 0.4220 0.0000
vt 0.2294 0.5754 0.0000
# 48 texture coords

g 真紅白タイル
usemtl Material__6
s 1
f 1/1/1 2/2/1 3/3/2 
f 4/4/1 5/5/2 2/2/1 
f 6/6/2 7/7/2 5/5/2 
f 8/8/2 9/9/2 7/7/2 
f 10/10/2 11/11/2 9/9/2 
f 12/12/2 13/13/2 11/11/2 
f 14/14/2 15/15/3 13/13/2 
f 16/16/3 17/17/3 15/15/3 
f 18/18/3 19/19/3 17/17/3 
f 20/20/3 21/21/3 19/19/3 
f 22/22/3 23/23/4 21/21/3 
f 24/24/4 25/25/3 23/23/4 
f 1/1/1 4/4/1 2/2/1 
f 4/4/1 6/6/2 5/5/2 
f 6/6/2 8/8/2 7/7/2 
f 8/8/2 10/10/2 9/9/2 
f 10/10/2 12/12/2 11/11/2 
f 12/12/2 14/14/2 13/13/2 
f 14/14/2 16/16/3 15/15/3 
f 16/16/3 18/18/3 17/17/3 
f 18/18/3 20/20/3 19/19/3 
f 20/20/3 22/22/3 21/21/3 
f 22/22/3 24/24/4 23/23/4 
f 24/24/4 26/26/1 25/25/3 
f 1/1/1 3/3/2 27/27/2 
f 28/28/2 27/27/2 29/29/1 
f 30/30/1 29/29/1 31/31/1 
f 32/32/1 31/31/1 33/33/1 
f 34/34/1 33/33/1 35/35/1 
f 36/36/1 35/35/1 37/37/1 
f 38/38/1 37/37/1 39/39/4 
f 40/40/4 39/39/4 41/41/4 
f 42/42/4 41/41/4 43/43/4 
f 44/44/4 43/43/4 45/45/4 
f 46/46/4 45/45/4 47/47/3 
f 48/48/3 47/47/3 25/25/3 
f 1/1/1 27/27/2 28/28/2 
f 28/28/2 29/29/1 30/30/1 
f 30/30/1 31/31/1 32/32/1 
f 32/32/1 33/33/1 34/34/1 
f 34/34/1 35/35/1 36/36/1 
f 36/36/1 37/37/1 38/38/1 
f 38/38/1 39/39/4 40/40/4 
f 40/40/4 41/41/4 42/42/4 
f 42/42/4 43/43/4 44/44/4 
f 44/44/4 45/45/4 46/46/4 
f 46/46/4 47/47/3 48/48/3 
f 48/48/3 25/25/3 26/26/1 
# 0 polygons - 48 triangles

