# Blender v2.80 (sub 75) OBJ File: ''
# www.blender.org
mtllib Rock1.mtl
o Cube.001
v -0.630920 -0.226328 0.592326
v -0.537873 -0.057997 1.154378
v -1.052088 -0.064600 0.954513
v -1.155731 -0.217847 0.459469
v -0.677921 1.329703 0.698183
v -1.176430 1.281231 0.646380
v -1.019775 1.174950 1.105961
v -0.610285 1.147948 1.327881
v 1.115930 1.067893 0.980967
v 0.808457 1.346412 0.902078
v 0.444005 1.032712 1.513821
v 0.936321 0.677546 1.426494
v -0.944509 0.743625 1.392342
v -1.281588 0.883991 1.218077
v -1.719440 0.916506 -0.699776
v -1.356023 1.245036 -0.716849
v -0.681862 1.180458 -1.481573
v -0.974527 0.926074 -1.431442
v -0.751048 0.149059 -1.123006
v -0.321458 -0.060305 -0.702046
v -0.692441 -0.114299 -0.835835
v -1.063276 0.074521 -1.015607
v -0.359688 -0.219676 -0.596748
v -0.476225 -0.274043 -0.037390
v -1.094633 -0.254018 -0.118459
v -0.862364 -0.219203 -0.537108
v 0.548058 -0.284113 -0.657622
v 0.480423 -0.312115 -0.111060
v -0.015789 -0.312706 -0.060242
v 0.172793 -0.188473 -0.532460
v 0.383454 -0.298149 0.533170
v 0.243586 -0.141476 1.191072
v -0.154563 -0.114500 1.228987
v -0.106274 -0.274351 0.595963
v 0.342781 1.370886 0.863692
v -0.198010 1.360380 0.630818
v -0.344848 1.152380 1.730000
v -0.065279 1.102928 1.796044
v 0.801564 1.333314 -0.716665
v 0.062998 1.276304 -0.994314
v 0.046107 1.351565 -0.253730
v 0.611501 1.352344 -0.290780
v -0.544178 1.290048 -0.889409
v -1.177093 1.303243 0.009798
v -0.603343 1.343584 -0.011276
v 1.347667 0.189763 0.746821
v 1.267461 0.630730 1.008356
v 1.155268 0.478039 1.381585
v 1.014587 0.183491 1.312948
v 1.323792 0.127379 -0.856060
v 1.267107 0.600208 -0.689727
v 1.175182 0.692469 0.169032
v 1.268899 0.241091 -0.063884
v 1.423543 0.897206 -0.707035
v 1.231954 1.216866 -0.594471
v 0.975431 1.246559 0.047895
v 1.050912 1.068503 0.197512
v -0.706694 0.190636 1.346937
v -1.043570 0.402928 1.289593
v -1.648060 0.452009 0.853586
v -1.571341 0.110279 0.770709
v 0.494274 0.153436 1.399456
v 0.667029 0.439932 1.448684
v 0.260077 0.452640 1.365451
v -0.135120 0.156677 1.505020
v 0.524189 0.691410 1.410453
v -0.066870 0.652060 1.602193
v -1.346437 -0.078697 -0.808084
v -1.759897 0.319614 -0.724614
v -1.185727 0.481559 -1.133555
v -1.550380 0.033513 0.487642
v -1.646483 0.462612 0.459024
v -1.648881 0.429819 -0.064031
v -1.548443 -0.153801 -0.255587
v -1.434319 1.017100 0.746778
v -1.483055 1.068517 0.045330
v -0.263198 0.916780 -1.716774
v -0.775458 0.497559 -1.402503
v 0.802037 0.850318 -1.528586
v 0.556317 0.449266 -1.496503
v -0.199824 0.336820 -1.536424
v 0.153226 0.839249 -1.832230
v 0.512712 0.114694 -1.198383
v 0.468949 -0.142859 -1.026806
v 0.067265 -0.072713 -0.783522
v -0.180515 0.060946 -1.233899
v 0.896930 -0.116701 -1.078061
v 1.042022 -0.190494 -0.637866
v 1.045407 -0.157597 -0.147996
v 1.008866 -0.126459 0.470257
v 0.736314 -0.076033 1.066762
v 1.303753 1.083753 -1.023542
v 0.770454 1.122192 -1.299703
v 0.105258 1.126820 -1.585067
v -0.174992 1.147173 -1.801163
v 1.081272 0.175115 -1.287556
v 1.200361 0.538245 -1.221685
v 1.385825 0.807576 -1.181814
vt 0.137636 0.563411
vt 0.082613 0.506661
vt 0.152906 0.498683
vt 0.155028 0.344089
vt 0.155630 0.402329
vt 0.099783 0.387655
vt 0.896175 0.282885
vt 0.794976 0.248970
vt 0.870663 0.174892
vt 0.949240 0.587705
vt 0.905653 0.682602
vt 0.916733 0.604517
vt 0.369246 0.000842
vt 0.460672 0.063535
vt 0.336809 0.082005
vt 0.485748 0.254952
vt 0.481603 0.323059
vt 0.447322 0.276247
vt 0.215363 0.578539
vt 0.270084 0.523882
vt 0.276846 0.583529
vt 0.226456 0.694739
vt 0.266533 0.646047
vt 0.288525 0.695621
vt 0.060049 0.668982
vt 0.140662 0.629249
vt 0.149628 0.688747
vt 0.046020 0.277128
vt 0.042023 0.402498
vt 0.011393 0.383384
vt 0.226136 0.127633
vt 0.116225 0.149680
vt 0.133867 0.094672
vt 0.335575 0.267841
vt 0.206193 0.274302
vt 0.273683 0.187557
vt 0.520455 0.684734
vt 0.404599 0.713241
vt 0.422948 0.654063
vt 0.529375 0.479105
vt 0.439840 0.553878
vt 0.422729 0.459207
vt 0.672331 0.787452
vt 0.731678 0.707183
vt 0.744126 0.814485
vt 0.006598 0.482318
vt 0.090851 0.431859
vt 0.016271 0.536299
vt 0.857058 0.070133
vt 0.818683 0.137473
vt 0.786060 0.070157
vt 0.720806 0.251159
vt 0.758736 0.168010
vt 0.829103 0.182611
vt 0.408067 0.318081
vt 0.431026 0.176751
vt 0.834672 0.401576
vt 0.758928 0.488146
vt 0.747834 0.361119
vt 0.844101 0.700647
vt 0.766456 0.640000
vt 0.853441 0.628842
vt 0.491069 0.166304
vt 0.554998 0.057463
vt 0.642437 0.169965
vt 0.608937 0.072162
vt 0.661203 0.071636
vt 0.619708 0.321108
vt 0.556413 0.271543
vt 0.628288 0.255903
vt 0.223692 0.502410
vt 0.220811 0.635843
vt 0.058285 0.569867
vt 0.115533 0.299946
vt 0.165692 0.199396
vt 0.258354 0.321530
vt 0.934356 0.187628
vt 0.907061 0.133559
vt 0.539575 0.580737
vt 0.617335 0.678426
vt 0.622627 0.581780
vt 0.672331 0.661064
vt 0.939564 0.506329
vt 0.869574 0.490922
vt 0.744126 0.821215
vt 0.791426 0.711743
vt 0.791582 0.866218
vt 1.000000 0.606532
vt 0.944083 0.694636
vt 0.348488 0.225548
vt 0.672331 0.596657
vt 0.677773 0.459778
vt 0.674914 0.687648
vt 0.565426 0.199969
vt 0.387737 0.801509
vt 0.336920 0.785916
vt 0.384519 0.726331
vt 0.506205 0.350977
vt 0.512673 0.310590
vt 0.560004 0.310321
vt 0.609960 0.361119
vt 0.324683 0.722893
vt 0.320949 0.673747
vt 0.218381 0.752553
vt 0.278588 0.749240
vt 0.143231 0.752483
vt 0.069266 0.722735
vt 0.808347 0.361119
vt 0.854473 0.349296
vt 0.056221 0.145884
vt 0.000000 0.241327
vt 0.085645 0.065345
vt 0.116277 0.014773
vt 0.187902 0.035191
vt 0.273048 0.064123
vt 0.336809 0.140426
vt 0.316518 0.068429
vt 0.336809 0.674909
vt 0.340137 0.610197
vt 0.339988 0.536299
vt 0.336833 0.476818
vt 0.353162 0.419686
vt 0.517650 0.412671
vt 0.429528 0.400325
vt 0.604166 0.482239
vt 0.586459 0.423461
vt 0.646477 0.441109
vt 0.000000 0.608449
vt 0.053708 0.620010
vt 0.736508 0.092307
vt 0.012308 0.682984
vt 0.913859 0.076969
vt 0.855242 0.125920
vt 0.448079 0.354288
vt 0.291247 0.454530
vt 0.685316 0.388716
vt 0.130148 0.436240
vt 0.867108 0.417288
vt 0.821728 0.494375
vt 0.489191 0.000000
vt 0.563922 0.000091
vt 0.582099 0.007382
vt 0.207942 0.000000
vt 0.639569 0.392860
vt 0.579472 0.365264
vt 0.693822 0.237100
vt 0.693981 0.150197
vt 0.668575 0.311882
vt 0.206316 0.378186
vt 0.477461 0.726331
vt 0.683844 0.711964
vt 0.054401 0.402498
vt 0.693981 0.268226
vt 0.766741 0.707183
vt 0.662917 0.562066
vt 0.752056 0.707183
vt 0.999879 0.706758
vt 0.336809 0.833560
vt 0.559475 0.342029
vt 0.670954 0.491413
vt 0.694133 0.143704
vt 0.019832 0.742597
vt 0.232244 0.440506
vt 0.293309 0.025246
vt 0.477201 0.361119
vn -0.0796 -0.9779 0.1933
vn -0.3110 -0.7884 0.5306
vn -0.3029 -0.9404 0.1544
vn -0.0711 0.9848 0.1584
vn -0.3408 0.7859 0.5159
vn -0.3430 0.7129 0.6117
vn 0.7746 0.5582 0.2971
vn 0.4023 0.4399 0.8029
vn 0.3900 0.2557 0.8845
vn -0.3367 0.1069 0.9355
vn -0.6012 0.3344 0.7257
vn -0.4539 0.8610 -0.2292
vn -0.5716 0.1441 -0.8077
vn -0.8850 0.3677 -0.2854
vn -0.1928 -0.6945 -0.6932
vn 0.0540 -0.8200 -0.5698
vn -0.2159 -0.5940 -0.7750
vn -0.0570 -0.9981 -0.0203
vn -0.0850 -0.9630 -0.2556
vn 0.0461 -0.8960 -0.4416
vn 0.0987 -0.9944 -0.0367
vn -0.1111 -0.9578 -0.2650
vn -0.0455 -0.9842 -0.1712
vn 0.1037 -0.8561 0.5063
vn -0.0700 -0.9853 0.1560
vn 0.1192 -0.9830 0.1395
vn 0.0425 0.9844 0.1706
vn -0.5304 0.3813 0.7571
vn 0.1152 0.3408 0.9330
vn 0.0154 0.9806 -0.1951
vn 0.1034 0.9946 -0.0072
vn 0.1487 0.9773 -0.1511
vn -0.0517 0.9983 -0.0276
vn -0.0381 0.9913 -0.1258
vn 0.9480 0.1831 0.2604
vn 0.4953 -0.5645 0.6603
vn 0.9208 -0.3592 0.1522
vn 0.9820 -0.1864 0.0315
vn 0.9813 -0.1899 0.0309
vn 0.9181 -0.3523 -0.1816
vn 0.6265 0.7776 0.0523
vn 0.8902 0.4374 0.1271
vn 0.9953 0.0411 0.0874
vn -0.4154 -0.3022 0.8580
vn -0.7569 -0.5304 0.3818
vn -0.2406 -0.2975 0.9239
vn 0.1145 -0.4030 0.9080
vn 0.0598 -0.1403 0.9883
vn -0.1155 -0.0996 0.9883
vn -0.0262 -0.5068 0.8617
vn 0.0609 -0.1822 0.9814
vn -0.3634 -0.7434 -0.5615
vn -0.5324 -0.2732 -0.8011
vn -0.7982 -0.5954 0.0912
vn -0.9937 -0.0037 0.1122
vn -0.6544 -0.7561 -0.0059
vn -0.4112 0.8941 0.1772
vn -0.8157 0.5698 0.0997
vn -0.7978 0.5545 0.2365
vn -0.4000 -0.4217 -0.8137
vn -0.3760 -0.1942 -0.9060
vn 0.2356 -0.4800 -0.8450
vn 0.1737 0.0099 -0.9847
vn 0.4465 0.1931 -0.8737
vn -0.1024 -0.8307 -0.5471
vn -0.1113 -0.8515 -0.5123
vn 0.0222 -0.6169 -0.7867
vn -0.1681 -0.9857 -0.0124
vn -0.0293 -0.9964 -0.0791
vn -0.1957 -0.8383 0.5088
vn -0.0556 0.9950 0.0828
vn -0.0124 0.9984 -0.0552
vn -0.3327 0.9429 0.0140
vn 0.7374 -0.0424 0.6740
vn 0.9736 0.2216 0.0545
vn 0.3573 0.9043 0.2334
vn -0.9140 -0.0170 0.4052
vn -0.8943 -0.2134 -0.3932
vn -0.1291 -0.5752 -0.8077
vn 0.0138 -0.7619 -0.6475
vn -0.1571 -0.9331 -0.3235
vn 0.2340 -0.7933 -0.5620
vn 0.6102 -0.7907 0.0491
vn 0.5111 -0.8572 -0.0625
vn 0.5176 -0.8492 0.1045
vn 0.3116 -0.8578 0.4087
vn 0.5473 0.8266 0.1313
vn 0.6354 0.6781 -0.3692
vn 0.2690 0.8056 -0.5279
vn 0.2565 0.8650 -0.4312
vn -0.3230 0.7285 -0.6040
vn -0.0907 0.5808 -0.8090
vn 0.7469 -0.2194 -0.6276
vn 0.4762 -0.4125 -0.7765
vn 0.8595 -0.0056 -0.5111
vn -0.1175 -0.8578 0.5004
vn -0.0014 -0.0779 0.9969
vn -0.9983 0.0552 0.0163
usemtl Material.002
s 1
f 1/1/1 3/2/2 4/3/3
f 5/4/4 7/5/5 8/6/6
f 9/7/7 11/8/8 12/9/9
f 13/10/10 7/11/5 14/12/11
f 16/13/12 18/14/13 15/15/14
f 19/16/15 21/17/16 22/18/17
f 24/19/18 26/20/19 23/21/20
f 28/22/21 30/23/22 27/24/23
f 32/25/24 34/26/25 31/27/26
f 35/28/27 37/29/28 38/30/29
f 40/31/30 42/32/31 39/33/32
f 16/34/12 45/35/33 43/36/34
f 47/37/35 49/38/36 46/39/37
f 51/40/38 53/41/39 50/42/40
f 55/43/41 57/44/42 54/45/43
f 59/46/44 61/47/45 58/48/46
f 62/49/47 64/50/48 65/51/49
f 38/52/29 67/53/50 66/54/51
f 68/55/52 70/56/53 22/18/17
f 71/57/54 73/58/55 74/59/56
f 6/60/57 76/61/58 75/62/59
f 78/63/60 18/14/13 77/64/61
f 80/65/62 82/66/63 79/67/64
f 84/68/65 86/69/66 83/70/67
f 24/19/18 4/3/3 25/71/68
f 34/26/25 24/19/18 29/72/69
f 34/26/25 2/73/70 1/1/1
f 36/74/71 8/6/6 37/29/28
f 45/35/33 36/74/71 41/75/72
f 44/76/73 5/4/4 45/35/33
f 47/77/35 12/9/9 48/78/74
f 52/79/75 9/80/7 47/37/35
f 57/81/42 10/82/76 9/80/7
f 59/83/44 14/12/11 60/84/77
f 67/85/50 59/86/44 64/87/48
f 67/88/50 8/89/6 13/10/10
f 15/15/14 70/56/53 69/90/78
f 73/58/55 15/91/14 69/92/78
f 76/61/58 16/93/12 15/91/14
f 19/16/15 70/56/53 78/63/60
f 81/94/79 19/16/15 78/63/60
f 86/95/66 20/96/80 19/97/15
f 23/98/20 21/17/16 20/99/80
f 85/100/81 23/98/20 20/99/80
f 29/72/69 23/21/20 30/23/22
f 27/101/23 85/100/81 84/68/65
f 87/102/82 27/24/23 84/103/65
f 89/104/83 27/24/23 88/105/84
f 31/27/26 29/72/69 28/22/21
f 90/106/85 28/22/21 89/104/83
f 91/107/86 31/27/26 90/106/85
f 35/108/27 11/8/8 10/109/76
f 56/110/87 35/28/27 10/111/76
f 41/75/72 35/28/27 42/32/31
f 55/112/41 42/32/31 56/110/87
f 92/113/88 39/33/32 55/112/41
f 93/114/89 40/31/30 39/33/32
f 43/36/34 41/75/72 40/31/30
f 94/115/90 43/36/34 40/31/30
f 17/116/91 43/36/34 95/117/92
f 46/39/37 91/118/86 90/119/85
f 53/41/39 90/119/85 89/120/83
f 52/79/75 46/39/37 53/41/39
f 88/121/84 53/41/39 89/120/83
f 87/122/82 50/42/40 88/121/84
f 97/123/93 50/42/40 96/124/94
f 54/125/43 52/79/75 51/40/38
f 98/126/95 51/40/38 97/123/93
f 92/127/88 54/125/43 98/126/95
f 58/48/46 3/2/2 2/73/70
f 65/128/49 2/73/70 33/129/96
f 64/50/48 58/130/46 65/51/49
f 32/25/24 65/128/49 33/129/96
f 91/107/86 62/131/47 32/25/24
f 49/132/36 63/133/97 62/49/47
f 66/54/51 64/50/48 63/133/97
f 12/9/9 63/133/97 48/78/74
f 11/8/8 66/54/51 12/9/9
f 26/134/19 22/18/17 21/17/16
f 25/71/68 68/135/52 26/20/19
f 74/59/56 69/92/78 68/136/52
f 71/137/54 25/71/68 4/3/3
f 61/47/45 4/3/3 3/2/2
f 61/138/45 72/139/98 71/57/54
f 72/139/98 76/61/58 73/58/55
f 60/84/77 75/62/59 72/139/98
f 7/11/5 75/62/59 14/12/11
f 77/64/61 17/140/91 95/141/92
f 82/66/63 95/141/92 94/142/90
f 81/94/79 77/64/61 82/66/63
f 79/143/64 94/115/90 93/114/89
f 98/126/95 93/144/89 92/127/88
f 97/123/93 79/145/64 98/126/95
f 83/70/67 81/94/79 80/65/62
f 96/146/94 80/65/62 97/147/93
f 87/148/82 83/70/67 96/146/94
f 1/1/1 2/73/70 3/2/2
f 5/4/4 6/149/57 7/5/5
f 9/7/7 10/109/76 11/8/8
f 13/10/10 8/89/6 7/11/5
f 16/13/12 17/140/91 18/14/13
f 19/16/15 20/99/80 21/17/16
f 24/19/18 25/71/68 26/20/19
f 28/22/21 29/72/69 30/23/22
f 32/25/24 33/129/96 34/26/25
f 35/28/27 36/74/71 37/29/28
f 40/31/30 41/75/72 42/32/31
f 16/34/12 44/76/73 45/35/33
f 47/37/35 48/150/74 49/38/36
f 51/40/38 52/79/75 53/41/39
f 55/43/41 56/151/87 57/44/42
f 59/46/44 60/152/77 61/47/45
f 62/49/47 63/133/97 64/50/48
f 38/52/29 37/153/28 67/53/50
f 68/55/52 69/90/78 70/56/53
f 71/57/54 72/139/98 73/58/55
f 6/60/57 44/154/73 76/61/58
f 78/63/60 70/56/53 18/14/13
f 80/65/62 81/94/79 82/66/63
f 84/68/65 85/100/81 86/69/66
f 24/19/18 1/1/1 4/3/3
f 34/26/25 1/1/1 24/19/18
f 34/26/25 33/129/96 2/73/70
f 36/74/71 5/4/4 8/6/6
f 45/35/33 5/4/4 36/74/71
f 44/76/73 6/149/57 5/4/4
f 47/77/35 9/7/7 12/9/9
f 52/79/75 57/81/42 9/80/7
f 57/81/42 56/155/87 10/82/76
f 59/83/44 13/10/10 14/12/11
f 67/85/50 13/156/10 59/86/44
f 67/88/50 37/157/28 8/89/6
f 15/15/14 18/14/13 70/56/53
f 73/58/55 76/61/58 15/91/14
f 76/61/58 44/154/73 16/93/12
f 19/16/15 22/18/17 70/56/53
f 81/94/79 86/69/66 19/16/15
f 86/95/66 85/158/81 20/96/80
f 23/98/20 26/134/19 21/17/16
f 85/100/81 30/159/22 23/98/20
f 29/72/69 24/19/18 23/21/20
f 27/101/23 30/159/22 85/100/81
f 87/102/82 88/105/84 27/24/23
f 89/104/83 28/22/21 27/24/23
f 31/27/26 34/26/25 29/72/69
f 90/106/85 31/27/26 28/22/21
f 91/107/86 32/25/24 31/27/26
f 35/108/27 38/52/29 11/8/8
f 56/110/87 42/32/31 35/28/27
f 41/75/72 36/74/71 35/28/27
f 55/112/41 39/33/32 42/32/31
f 92/113/88 93/114/89 39/33/32
f 93/114/89 94/115/90 40/31/30
f 43/36/34 45/35/33 41/75/72
f 94/115/90 95/117/92 43/36/34
f 17/116/91 16/34/12 43/36/34
f 46/39/37 49/38/36 91/118/86
f 53/41/39 46/39/37 90/119/85
f 52/79/75 47/37/35 46/39/37
f 88/121/84 50/42/40 53/41/39
f 87/122/82 96/124/94 50/42/40
f 97/123/93 51/40/38 50/42/40
f 54/125/43 57/81/42 52/79/75
f 98/126/95 54/125/43 51/40/38
f 92/127/88 55/160/41 54/125/43
f 58/48/46 61/47/45 3/2/2
f 65/128/49 58/48/46 2/73/70
f 64/50/48 59/161/44 58/130/46
f 32/25/24 62/131/47 65/128/49
f 91/107/86 49/162/36 62/131/47
f 49/132/36 48/78/74 63/133/97
f 66/54/51 67/53/50 64/50/48
f 12/9/9 66/54/51 63/133/97
f 11/8/8 38/52/29 66/54/51
f 26/134/19 68/55/52 22/18/17
f 25/71/68 74/163/56 68/135/52
f 74/59/56 73/58/55 69/92/78
f 71/137/54 74/163/56 25/71/68
f 61/47/45 71/137/54 4/3/3
f 61/138/45 60/84/77 72/139/98
f 72/139/98 75/62/59 76/61/58
f 60/84/77 14/12/11 75/62/59
f 7/11/5 6/60/57 75/62/59
f 77/64/61 18/14/13 17/140/91
f 82/66/63 77/64/61 95/141/92
f 81/94/79 78/63/60 77/64/61
f 79/143/64 82/164/63 94/115/90
f 98/126/95 79/145/64 93/144/89
f 97/123/93 80/165/62 79/145/64
f 83/70/67 86/69/66 81/94/79
f 96/146/94 83/70/67 80/65/62
f 87/148/82 84/68/65 83/70/67
