# Blender 3.5.1
# www.blender.org
mtllib Coin.mtl
o GoldCoin
v 0.000042 0.001806 0.000018
v 0.297548 0.001802 0.410147
v 0.481804 0.001802 0.156945
v 0.482035 0.001802 -0.156197
v 0.298159 0.001806 -0.409667
v 0.000421 0.001804 -0.506646
v -0.297466 0.001804 -0.410102
v -0.481722 0.001804 -0.156901
v -0.481950 0.001806 0.156234
v -0.298075 0.001806 0.409703
v -0.000324 0.001802 0.506694
v 0.297548 0.207269 0.410147
v 0.481804 0.207269 0.156944
v 0.482035 0.207269 -0.156197
v 0.298159 0.207269 -0.409667
v 0.000421 0.207269 -0.506646
v -0.297466 0.207269 -0.410103
v -0.481722 0.207269 -0.156901
v -0.481950 0.207269 0.156234
v -0.298075 0.207269 0.409703
v -0.000324 0.207269 0.506694
v 0.000042 0.207269 0.000018
vn -0.0000 -1.0000 -0.0000
vn 0.5872 -0.0000 0.8095
vn 0.9508 -0.0000 0.3097
vn 0.9513 -0.0000 -0.3083
vn 0.5884 -0.0000 -0.8086
vn 0.0007 -0.0000 -1.0000
vn -0.5872 -0.0000 -0.8095
vn -0.9508 -0.0000 -0.3097
vn -0.9513 -0.0000 0.3083
vn -0.5884 -0.0000 0.8086
vn -0.0007 -0.0000 1.0000
vn -0.0000 1.0000 -0.0000
vt 0.514590 0.565657
vt 0.939207 0.565657
vt 0.004863 0.005316
vt 0.996644 0.005316
vt 0.858112 0.828084
vt 0.107836 0.005316
vt 0.645804 0.990273
vt 0.205501 0.005316
vt 0.383377 0.990273
vt 0.300117 0.005316
vt 0.171068 0.828084
vt 0.397781 0.005316
vt 0.089974 0.565657
vt 0.500754 0.005316
vt 0.171068 0.303229
vt 0.603727 0.005316
vt 0.383377 0.141040
vt 0.701391 0.005316
vt 0.645804 0.141040
vt 0.796007 0.005316
vt 0.858112 0.303229
vt 0.893672 0.005316
vt 0.004863 0.129968
vt 0.996644 0.129968
vt 0.939207 0.565657
vt 0.107836 0.129968
vt 0.858112 0.828084
vt 0.205501 0.129968
vt 0.645804 0.990273
vt 0.300117 0.129968
vt 0.383377 0.990273
vt 0.397781 0.129968
vt 0.171068 0.828084
vt 0.500754 0.129968
vt 0.089974 0.565657
vt 0.603727 0.129968
vt 0.171068 0.303229
vt 0.701391 0.129968
vt 0.383377 0.141040
vt 0.796007 0.129968
vt 0.645804 0.141040
vt 0.893672 0.129968
vt 0.858112 0.303229
vt 0.514590 0.565657
s 1
usemtl txt1174
f 1/1/1 3/5/1 2/2/1
f 1/1/1 4/7/1 3/5/1
f 1/1/1 5/9/1 4/7/1
f 1/1/1 6/11/1 5/9/1
f 1/1/1 7/13/1 6/11/1
f 1/1/1 8/15/1 7/13/1
f 1/1/1 9/17/1 8/15/1
f 1/1/1 10/19/1 9/17/1
f 1/1/1 11/21/1 10/19/1
f 1/1/1 2/2/1 11/21/1
f 2/3/2 13/26/3 12/23/2
f 2/3/2 3/6/3 13/26/3
f 3/6/3 14/28/4 13/26/3
f 3/6/3 4/8/4 14/28/4
f 4/8/4 15/30/5 14/28/4
f 4/8/4 5/10/5 15/30/5
f 5/10/5 16/32/6 15/30/5
f 5/10/5 6/12/6 16/32/6
f 6/12/6 17/34/7 16/32/6
f 6/12/6 7/14/7 17/34/7
f 7/14/7 18/36/8 17/34/7
f 7/14/7 8/16/8 18/36/8
f 8/16/8 19/38/9 18/36/8
f 8/16/8 9/18/9 19/38/9
f 9/18/9 20/40/10 19/38/9
f 9/18/9 10/20/10 20/40/10
f 10/20/10 21/42/11 20/40/10
f 10/20/10 11/22/11 21/42/11
f 11/22/11 12/24/2 21/42/11
f 11/22/11 2/4/2 12/24/2
f 22/44/12 12/25/12 13/27/12
f 22/44/12 13/27/12 14/29/12
f 22/44/12 14/29/12 15/31/12
f 22/44/12 15/31/12 16/33/12
f 22/44/12 16/33/12 17/35/12
f 22/44/12 17/35/12 18/37/12
f 22/44/12 18/37/12 19/39/12
f 22/44/12 19/39/12 20/41/12
f 22/44/12 20/41/12 21/43/12
f 22/44/12 21/43/12 12/25/12
