# Blender 3.3.5
# www.blender.org
mtllib slash.mtl
o Mesh
v 0.000000 -1.250000 3.000000
v 0.000000 1.000000 3.000000
v -0.585271 -1.250000 2.942356
v -0.585271 1.000000 2.942356
v -1.148050 -1.250000 2.771639
v -1.148050 1.000000 2.771639
v -1.666711 -1.250000 2.494409
v -1.666711 1.000000 2.494409
v -2.121320 -1.250000 2.121320
v -2.121320 1.000000 2.121320
v -2.494409 -1.250000 1.666711
v -2.494409 1.000000 1.666711
v -2.771638 -1.250000 1.148051
v -2.771638 1.000000 1.148051
v -2.942356 -1.250000 0.585271
v -2.942356 1.000000 0.585271
v -3.000000 -1.250000 0.000000
v -3.000000 1.000000 0.000000
v -2.942356 -1.250000 -0.585271
v -2.942356 1.000000 -0.585271
v -2.771639 -1.250000 -1.148050
v -2.771639 1.000000 -1.148050
v -2.494409 -1.250000 -1.666711
v -2.494409 1.000000 -1.666711
v -2.121320 -1.250000 -2.121320
v -2.121320 1.000000 -2.121320
v -1.666711 -1.250000 -2.494409
v -1.666711 1.000000 -2.494409
v -1.148051 -1.250000 -2.771638
v -1.148051 1.000000 -2.771638
v -0.585271 -1.250000 -2.942356
v -0.585271 1.000000 -2.942356
v -0.000000 -1.250000 -3.000000
v -0.000000 1.000000 -3.000000
v 0.585271 -1.250000 -2.942356
v 0.585271 1.000000 -2.942356
v 1.148050 -1.250000 -2.771639
v 1.148050 1.000000 -2.771639
v 1.666711 -1.250000 -2.494409
v 1.666711 1.000000 -2.494409
v 2.121320 -1.250000 -2.121320
v 2.121320 1.000000 -2.121320
v 2.494409 -1.250000 -1.666711
v 2.494409 1.000000 -1.666711
v 2.771638 -1.250000 -1.148051
v 2.771638 1.000000 -1.148051
v 2.942356 -1.250000 -0.585271
v 2.942356 1.000000 -0.585271
v 3.000000 -1.250000 -0.000000
v 3.000000 1.000000 -0.000000
v 2.942356 -1.250000 0.585271
v 2.942356 1.000000 0.585271
v 2.771639 -1.250000 1.148050
v 2.771639 1.000000 1.148050
v 2.494409 -1.250000 1.666711
v 2.494409 1.000000 1.666711
v 2.121320 -1.250000 2.121320
v 2.121320 1.000000 2.121320
v 1.666711 -1.250000 2.494409
v 1.666711 1.000000 2.494409
v 1.148051 -1.250000 2.771638
v 1.148051 1.000000 2.771638
v 0.585271 -1.250000 2.942356
v 0.585271 1.000000 2.942356
v 0.000001 0.000000 9.000000
v -1.755812 0.000000 8.827066
v -3.444150 0.000000 8.314915
v -5.000132 0.000000 7.483227
v -6.363960 0.000000 6.363961
v -7.483226 0.000000 5.000133
v -8.314915 0.000000 3.444152
v -8.827066 0.000000 1.755814
v -9.000000 0.000000 0.000001
v -8.827066 0.000000 -1.755812
v -8.314915 0.000000 -3.444150
v -7.483227 0.000000 -5.000132
v -6.363961 0.000000 -6.363960
v -5.000133 0.000000 -7.483226
v -3.444152 0.000000 -8.314915
v -1.755814 0.000000 -8.827066
v -0.000001 0.000000 -9.000000
v 1.755812 0.000000 -8.827066
v 3.444150 0.000000 -8.314915
v 5.000132 0.000000 -7.483227
v 6.363960 0.000000 -6.363961
v 7.483226 0.000000 -5.000133
v 8.314915 0.000000 -3.444152
v 8.827066 0.000000 -1.755814
v 9.000000 0.000000 -0.000001
v 8.827066 0.000000 1.755812
v 8.314915 0.000000 3.444150
v 7.483227 0.000000 5.000132
v 6.363961 0.000000 6.363960
v 5.000133 0.000000 7.483226
v 3.444152 0.000000 8.314915
v 1.755814 0.000000 8.827066
vn -0.0000 0.9962 0.0876
vn -0.0321 0.9864 0.1612
vn -0.0000 0.9864 0.1644
vn -0.0335 0.9962 0.0809
vn -0.0629 0.9864 0.1519
vn -0.0487 0.9962 0.0728
vn -0.0913 0.9864 0.1367
vn -0.1162 0.9864 0.1162
vn -0.0619 0.9962 0.0619
vn -0.1367 0.9864 0.0913
vn -0.0728 0.9962 0.0487
vn -0.1519 0.9864 0.0629
vn -0.0809 0.9962 0.0335
vn -0.1612 0.9864 0.0321
vn -0.0876 0.9962 -0.0000
vn -0.1644 0.9864 -0.0000
vn -0.1612 0.9864 -0.0321
vn -0.0809 0.9962 -0.0335
vn -0.1519 0.9864 -0.0629
vn -0.0728 0.9962 -0.0487
vn -0.1367 0.9864 -0.0913
vn -0.1162 0.9864 -0.1162
vn -0.0619 0.9962 -0.0619
vn -0.0913 0.9864 -0.1367
vn -0.0487 0.9962 -0.0728
vn -0.0629 0.9864 -0.1519
vn -0.0335 0.9962 -0.0809
vn -0.0321 0.9864 -0.1612
vn -0.0000 0.9962 -0.0876
vn -0.0000 0.9864 -0.1644
vn 0.0321 0.9864 -0.1612
vn 0.0335 0.9962 -0.0809
vn 0.0629 0.9864 -0.1519
vn 0.0487 0.9962 -0.0728
vn 0.0913 0.9864 -0.1367
vn 0.1162 0.9864 -0.1162
vn 0.0619 0.9962 -0.0619
vn 0.1367 0.9864 -0.0913
vn 0.0728 0.9962 -0.0487
vn 0.1519 0.9864 -0.0629
vn 0.0859 0.9962 -0.0171
vn 0.1612 0.9864 -0.0321
vn 0.1644 0.9864 -0.0000
vn 0.0876 0.9962 -0.0000
vn 0.1612 0.9864 0.0321
vn 0.0809 0.9962 0.0335
vn 0.1519 0.9864 0.0629
vn 0.0728 0.9962 0.0487
vn 0.1367 0.9864 0.0913
vn 0.1162 0.9864 0.1162
vn 0.0619 0.9962 0.0619
vn 0.0913 0.9864 0.1367
vn 0.0487 0.9962 0.0728
vn 0.0629 0.9864 0.1519
vn 0.0171 0.9962 0.0859
vn 0.0321 0.9864 0.1612
vn -0.0212 -0.9941 -0.1068
vn 0.1068 -0.9941 -0.0212
vn 0.0212 -0.9941 0.1068
vn 0.0398 -0.9790 0.2000
vn -0.0000 -0.9941 0.1088
vn 0.0780 -0.9790 0.1884
vn 0.0417 -0.9941 0.1006
vn 0.0605 -0.9941 0.0905
vn 0.1442 -0.9790 0.1442
vn 0.0770 -0.9941 0.0770
vn 0.1696 -0.9790 0.1133
vn 0.0905 -0.9941 0.0605
vn 0.1884 -0.9790 0.0780
vn 0.1006 -0.9941 0.0417
vn 0.2000 -0.9790 0.0398
vn 0.1068 -0.9941 0.0212
vn 0.1088 -0.9941 -0.0000
vn 0.2000 -0.9790 -0.0398
vn 0.1884 -0.9790 -0.0780
vn 0.1006 -0.9941 -0.0417
vn 0.0905 -0.9941 -0.0605
vn 0.1442 -0.9790 -0.1442
vn 0.0770 -0.9941 -0.0770
vn 0.1133 -0.9790 -0.1696
vn 0.0605 -0.9941 -0.0905
vn 0.0780 -0.9790 -0.1884
vn 0.0417 -0.9941 -0.1006
vn 0.0398 -0.9790 -0.2000
vn 0.0212 -0.9941 -0.1068
vn -0.0000 -0.9941 -0.1088
vn -0.0398 -0.9790 -0.2000
vn -0.0417 -0.9941 -0.1006
vn -0.0605 -0.9941 -0.0905
vn -0.0780 -0.9790 -0.1884
vn -0.1442 -0.9790 -0.1442
vn -0.0770 -0.9941 -0.0770
vn -0.1696 -0.9790 -0.1133
vn -0.0905 -0.9941 -0.0605
vn -0.1884 -0.9790 -0.0780
vn -0.1006 -0.9941 -0.0417
vn -0.2000 -0.9790 -0.0398
vn -0.1068 -0.9941 -0.0212
vn -0.1088 -0.9941 -0.0000
vn -0.2000 -0.9790 0.0398
vn -0.1068 -0.9941 0.0212
vn -0.1006 -0.9941 0.0417
vn -0.0905 -0.9941 0.0605
vn -0.1884 -0.9790 0.0780
vn -0.1442 -0.9790 0.1442
vn -0.0770 -0.9941 0.0770
vn -0.1133 -0.9790 0.1696
vn -0.0605 -0.9941 0.0905
vn -0.0780 -0.9790 0.1884
vn -0.0417 -0.9941 0.1006
vn -0.0398 -0.9790 0.2000
vn -0.0212 -0.9941 0.1068
vn -0.0171 0.9962 0.0859
vn -0.0859 0.9962 0.0171
vn -0.0859 0.9962 -0.0171
vn -0.0171 0.9962 -0.0859
vn 0.0171 0.9962 -0.0859
vn 0.0809 0.9962 -0.0335
vn 0.0859 0.9962 0.0171
vn 0.0335 0.9962 0.0809
vn -0.0000 -0.9790 0.2040
vn 0.1133 -0.9790 0.1696
vn 0.2040 -0.9790 -0.0000
vn 0.1696 -0.9790 -0.1133
vn -0.0000 -0.9790 -0.2040
vn -0.1133 -0.9790 -0.1696
vn -0.2040 -0.9790 -0.0000
vn -0.1696 -0.9790 0.1133
vt 0.500000 0.658333
vt 0.500000 0.658333
vt 0.530889 0.655291
vt 0.530889 0.655291
vt 0.560592 0.646281
vt 0.560592 0.646281
vt 0.587965 0.631649
vt 0.587965 0.631649
vt 0.611959 0.611959
vt 0.611959 0.611959
vt 0.631649 0.587965
vt 0.631649 0.587965
vt 0.646281 0.560591
vt 0.646281 0.560591
vt 0.655291 0.530889
vt 0.655291 0.530889
vt 0.658333 0.500000
vt 0.658333 0.500000
vt 0.655291 0.469111
vt 0.655291 0.469111
vt 0.646281 0.439408
vt 0.646281 0.439408
vt 0.631649 0.412035
vt 0.631649 0.412035
vt 0.611959 0.388041
vt 0.611959 0.388041
vt 0.587965 0.368351
vt 0.587965 0.368351
vt 0.560592 0.353719
vt 0.560592 0.353719
vt 0.530889 0.344709
vt 0.530889 0.344709
vt 0.500000 0.341667
vt 0.500000 0.341667
vt 0.469111 0.344709
vt 0.469111 0.344709
vt 0.439408 0.353719
vt 0.439408 0.353719
vt 0.412035 0.368351
vt 0.412035 0.368351
vt 0.388041 0.388041
vt 0.388041 0.388041
vt 0.368351 0.412035
vt 0.368351 0.412035
vt 0.353719 0.439408
vt 0.353719 0.439408
vt 0.344709 0.469111
vt 0.344709 0.469111
vt 0.341667 0.500000
vt 0.341667 0.500000
vt 0.344709 0.530889
vt 0.344709 0.530889
vt 0.353719 0.560591
vt 0.353719 0.560591
vt 0.368351 0.587965
vt 0.368351 0.587965
vt 0.388041 0.611959
vt 0.388041 0.611959
vt 0.412035 0.631649
vt 0.412035 0.631649
vt 0.439408 0.646281
vt 0.439408 0.646281
vt 0.469111 0.655291
vt 0.469111 0.655291
vt 0.500000 0.975000
vt 0.592668 0.965873
vt 0.681775 0.938843
vt 0.763896 0.894948
vt 0.835876 0.835876
vt 0.894948 0.763896
vt 0.938843 0.681774
vt 0.965873 0.592668
vt 0.975000 0.500000
vt 0.965873 0.407332
vt 0.938843 0.318225
vt 0.894948 0.236104
vt 0.835876 0.164124
vt 0.763896 0.105052
vt 0.681775 0.061157
vt 0.592668 0.034127
vt 0.500000 0.025000
vt 0.407332 0.034127
vt 0.318225 0.061157
vt 0.236104 0.105052
vt 0.164124 0.164124
vt 0.105052 0.236104
vt 0.061157 0.318225
vt 0.034127 0.407332
vt 0.025000 0.500000
vt 0.034127 0.592668
vt 0.061157 0.681774
vt 0.105052 0.763896
vt 0.164124 0.835876
vt 0.236104 0.894948
vt 0.318225 0.938843
vt 0.407332 0.965873
s 1
usemtl Material
f 2/2/1 66/66/2 65/65/3
f 66/66/2 6/6/4 67/67/5
f 67/67/5 8/8/6 68/68/7
f 8/8/6 69/69/8 68/68/7
f 10/10/9 70/70/10 69/69/8
f 12/12/11 71/71/12 70/70/10
f 14/14/13 72/72/14 71/71/12
f 72/72/14 18/18/15 73/73/16
f 18/18/15 74/74/17 73/73/16
f 74/74/17 22/22/18 75/75/19
f 75/75/19 24/24/20 76/76/21
f 24/24/20 77/77/22 76/76/21
f 26/26/23 78/78/24 77/77/22
f 28/28/25 79/79/26 78/78/24
f 30/30/27 80/80/28 79/79/26
f 80/80/28 34/34/29 81/81/30
f 34/34/29 82/82/31 81/81/30
f 82/82/31 38/38/32 83/83/33
f 83/83/33 40/40/34 84/84/35
f 40/40/34 85/85/36 84/84/35
f 42/42/37 86/86/38 85/85/36
f 44/44/39 87/87/40 86/86/38
f 87/87/40 48/48/41 88/88/42
f 48/48/41 89/89/43 88/88/42
f 50/50/44 90/90/45 89/89/43
f 90/90/45 54/54/46 91/91/47
f 91/91/47 56/56/48 92/92/49
f 56/56/48 93/93/50 92/92/49
f 58/58/51 94/94/52 93/93/50
f 60/60/53 95/95/54 94/94/52
f 38/38/32 22/22/18 6/6/4
f 95/95/54 64/64/55 96/96/56
f 96/96/56 2/2/1 65/65/3
f 31/31/57 47/47/58 63/63/59
f 96/96/60 1/1/61 63/63/59
f 95/95/62 63/63/59 61/61/63
f 59/59/64 95/95/62 61/61/63
f 93/93/65 59/59/64 57/57/66
f 92/92/67 57/57/66 55/55/68
f 91/91/69 55/55/68 53/53/70
f 90/90/71 53/53/70 51/51/72
f 49/49/73 90/90/71 51/51/72
f 88/88/74 49/49/73 47/47/58
f 87/87/75 47/47/58 45/45/76
f 43/43/77 87/87/75 45/45/76
f 85/85/78 43/43/77 41/41/79
f 84/84/80 41/41/79 39/39/81
f 83/83/82 39/39/81 37/37/83
f 82/82/84 37/37/83 35/35/85
f 33/33/86 82/82/84 35/35/85
f 80/80/87 33/33/86 31/31/57
f 29/29/88 80/80/87 31/31/57
f 27/27/89 79/79/90 29/29/88
f 77/77/91 27/27/89 25/25/92
f 76/76/93 25/25/92 23/23/94
f 75/75/95 23/23/94 21/21/96
f 74/74/97 21/21/96 19/19/98
f 17/17/99 74/74/97 19/19/98
f 72/72/100 17/17/99 15/15/101
f 13/13/102 72/72/100 15/15/101
f 11/11/103 71/71/104 13/13/102
f 69/69/105 11/11/103 9/9/106
f 68/68/107 9/9/106 7/7/108
f 67/67/109 7/7/108 5/5/110
f 66/66/111 5/5/110 3/3/112
f 1/1/61 66/66/111 3/3/112
f 2/2/1 4/4/113 66/66/2
f 66/66/2 4/4/113 6/6/4
f 67/67/5 6/6/4 8/8/6
f 8/8/6 10/10/9 69/69/8
f 10/10/9 12/12/11 70/70/10
f 12/12/11 14/14/13 71/71/12
f 14/14/13 16/16/114 72/72/14
f 72/72/14 16/16/114 18/18/15
f 18/18/15 20/20/115 74/74/17
f 74/74/17 20/20/115 22/22/18
f 75/75/19 22/22/18 24/24/20
f 24/24/20 26/26/23 77/77/22
f 26/26/23 28/28/25 78/78/24
f 28/28/25 30/30/27 79/79/26
f 30/30/27 32/32/116 80/80/28
f 80/80/28 32/32/116 34/34/29
f 34/34/29 36/36/117 82/82/31
f 82/82/31 36/36/117 38/38/32
f 83/83/33 38/38/32 40/40/34
f 40/40/34 42/42/37 85/85/36
f 42/42/37 44/44/39 86/86/38
f 44/44/39 46/46/118 87/87/40
f 87/87/40 46/46/118 48/48/41
f 48/48/41 50/50/44 89/89/43
f 50/50/44 52/52/119 90/90/45
f 90/90/45 52/52/119 54/54/46
f 91/91/47 54/54/46 56/56/48
f 56/56/48 58/58/51 93/93/50
f 58/58/51 60/60/53 94/94/52
f 60/60/53 62/62/120 95/95/54
f 6/6/4 4/4/113 2/2/1
f 2/2/1 64/64/55 62/62/120
f 62/62/120 60/60/53 58/58/51
f 58/58/51 56/56/48 54/54/46
f 54/54/46 52/52/119 50/50/44
f 50/50/44 48/48/41 46/46/118
f 46/46/118 44/44/39 42/42/37
f 42/42/37 40/40/34 38/38/32
f 38/38/32 36/36/117 34/34/29
f 34/34/29 32/32/116 30/30/27
f 30/30/27 28/28/25 26/26/23
f 26/26/23 24/24/20 22/22/18
f 22/22/18 20/20/115 18/18/15
f 18/18/15 16/16/114 14/14/13
f 14/14/13 12/12/11 10/10/9
f 10/10/9 8/8/6 6/6/4
f 6/6/4 2/2/1 62/62/120
f 62/62/120 58/58/51 54/54/46
f 54/54/46 50/50/44 46/46/118
f 46/46/118 42/42/37 38/38/32
f 38/38/32 34/34/29 30/30/27
f 30/30/27 26/26/23 22/22/18
f 22/22/18 18/18/15 14/14/13
f 14/14/13 10/10/9 6/6/4
f 6/6/4 62/62/120 54/54/46
f 54/54/46 46/46/118 38/38/32
f 38/38/32 30/30/27 22/22/18
f 22/22/18 14/14/13 6/6/4
f 6/6/4 54/54/46 38/38/32
f 95/95/54 62/62/120 64/64/55
f 96/96/56 64/64/55 2/2/1
f 63/63/59 1/1/61 3/3/112
f 3/3/112 5/5/110 7/7/108
f 7/7/108 9/9/106 11/11/103
f 11/11/103 13/13/102 15/15/101
f 15/15/101 17/17/99 19/19/98
f 19/19/98 21/21/96 23/23/94
f 23/23/94 25/25/92 27/27/89
f 27/27/89 29/29/88 31/31/57
f 31/31/57 33/33/86 35/35/85
f 35/35/85 37/37/83 39/39/81
f 39/39/81 41/41/79 43/43/77
f 43/43/77 45/45/76 47/47/58
f 47/47/58 49/49/73 51/51/72
f 51/51/72 53/53/70 55/55/68
f 55/55/68 57/57/66 59/59/64
f 59/59/64 61/61/63 63/63/59
f 63/63/59 3/3/112 7/7/108
f 7/7/108 11/11/103 15/15/101
f 15/15/101 19/19/98 23/23/94
f 23/23/94 27/27/89 31/31/57
f 31/31/57 35/35/85 39/39/81
f 39/39/81 43/43/77 47/47/58
f 47/47/58 51/51/72 55/55/68
f 55/55/68 59/59/64 63/63/59
f 63/63/59 7/7/108 15/15/101
f 15/15/101 23/23/94 31/31/57
f 31/31/57 39/39/81 47/47/58
f 47/47/58 55/55/68 63/63/59
f 63/63/59 15/15/101 31/31/57
f 96/96/60 65/65/121 1/1/61
f 95/95/62 96/96/60 63/63/59
f 59/59/64 94/94/122 95/95/62
f 93/93/65 94/94/122 59/59/64
f 92/92/67 93/93/65 57/57/66
f 91/91/69 92/92/67 55/55/68
f 90/90/71 91/91/69 53/53/70
f 49/49/73 89/89/123 90/90/71
f 88/88/74 89/89/123 49/49/73
f 87/87/75 88/88/74 47/47/58
f 43/43/77 86/86/124 87/87/75
f 85/85/78 86/86/124 43/43/77
f 84/84/80 85/85/78 41/41/79
f 83/83/82 84/84/80 39/39/81
f 82/82/84 83/83/82 37/37/83
f 33/33/86 81/81/125 82/82/84
f 80/80/87 81/81/125 33/33/86
f 29/29/88 79/79/90 80/80/87
f 27/27/89 78/78/126 79/79/90
f 77/77/91 78/78/126 27/27/89
f 76/76/93 77/77/91 25/25/92
f 75/75/95 76/76/93 23/23/94
f 74/74/97 75/75/95 21/21/96
f 17/17/99 73/73/127 74/74/97
f 72/72/100 73/73/127 17/17/99
f 13/13/102 71/71/104 72/72/100
f 11/11/103 70/70/128 71/71/104
f 69/69/105 70/70/128 11/11/103
f 68/68/107 69/69/105 9/9/106
f 67/67/109 68/68/107 7/7/108
f 66/66/111 67/67/109 5/5/110
f 1/1/61 65/65/121 66/66/111
