# 3ds Max Wavefront OBJ Exporter v0.97b - (c)2007 guruware
# 作成したファイル : 29.03.2021 15:56:49

mtllib 新しいフォルダー\新しいフォルダー\Checker_Tile.mtl

#
# object Plane001
#

v  -5.0000 0.0000 -0.0000
v  -5.0000 0.0000 10.0000
v  5.0000 0.0000 -0.0000
v  5.0000 0.0000 10.0000
# 4 vertices

vn 0.0000 1.0000 -0.0000
# 1 vertex normals

vt 0.0000 1.0000 0.0000
vt 0.0000 0.0000 0.0000
vt 1.0000 1.0000 0.0000
vt 1.0000 0.0000 0.0000
# 4 texture coords

g Plane001
usemtl wire_255255255
s 1
f 1/1/1 2/2/1 3/3/1 
f 4/4/1 3/3/1 2/2/1 
# 2 faces

#
# object Plane002
#

v  5.0000 0.0000 -10.0000
v  5.0000 0.0000 -0.0000
v  15.0000 0.0000 -10.0000
v  15.0000 0.0000 -0.0000
# 4 vertices

vn 0.0000 1.0000 -0.0000
# 1 vertex normals

vt 0.0000 1.0000 0.0000
vt 0.0000 0.0000 0.0000
vt 1.0000 1.0000 0.0000
vt 1.0000 0.0000 0.0000
# 4 texture coords

g Plane002
usemtl wire_255255255
s 1
f 5/5/2 6/6/2 7/7/2 
f 8/8/2 7/7/2 6/6/2 
# 2 faces

#
# object Plane003
#

v  25.0000 0.0000 -10.0000
v  25.0000 0.0000 -0.0000
v  35.0000 0.0000 -10.0000
v  35.0000 0.0000 -0.0000
# 4 vertices

vn 0.0000 1.0000 -0.0000
# 1 vertex normals

vt 0.0000 1.0000 0.0000
vt 0.0000 0.0000 0.0000
vt 1.0000 1.0000 0.0000
vt 1.0000 0.0000 0.0000
# 4 texture coords

g Plane003
usemtl wire_255255255
s 1
f 9/9/3 10/10/3 11/11/3 
f 12/12/3 11/11/3 10/10/3 
# 2 faces

#
# object Plane004
#

v  15.0000 0.0000 -0.0000
v  15.0000 0.0000 10.0000
v  25.0000 0.0000 -0.0000
v  25.0000 0.0000 10.0000
# 4 vertices

vn 0.0000 1.0000 -0.0000
# 1 vertex normals

vt 0.0000 1.0000 0.0000
vt 0.0000 0.0000 0.0000
vt 1.0000 1.0000 0.0000
vt 1.0000 0.0000 0.0000
# 4 texture coords

g Plane004
usemtl wire_255255255
s 1
f 13/13/4 14/14/4 15/15/4 
f 16/16/4 15/15/4 14/14/4 
# 2 faces

#
# object Plane005
#

v  -15.0000 0.0000 -10.0000
v  -15.0000 0.0000 -0.0000
v  -5.0000 0.0000 -10.0000
v  -5.0000 0.0000 -0.0000
# 4 vertices

vn 0.0000 1.0000 -0.0000
# 1 vertex normals

vt 0.0000 1.0000 0.0000
vt 0.0000 0.0000 0.0000
vt 1.0000 1.0000 0.0000
vt 1.0000 0.0000 0.0000
# 4 texture coords

g Plane005
usemtl wire_255255255
s 1
f 17/17/5 18/18/5 19/19/5 
f 20/20/5 19/19/5 18/18/5 
# 2 faces

#
# object Plane006
#

v  -35.0000 0.0000 -10.0000
v  -35.0000 0.0000 -0.0000
v  -25.0000 0.0000 -10.0000
v  -25.0000 0.0000 -0.0000
# 4 vertices

vn 0.0000 1.0000 -0.0000
# 1 vertex normals

vt 0.0000 1.0000 0.0000
vt 0.0000 0.0000 0.0000
vt 1.0000 1.0000 0.0000
vt 1.0000 0.0000 0.0000
# 4 texture coords

g Plane006
usemtl wire_255255255
s 1
f 21/21/6 22/22/6 23/23/6 
f 24/24/6 23/23/6 22/22/6 
# 2 faces

#
# object Plane007
#

v  -25.0000 0.0000 -0.0000
v  -25.0000 0.0000 10.0000
v  -15.0000 0.0000 -0.0000
v  -15.0000 0.0000 10.0000
# 4 vertices

vn 0.0000 1.0000 -0.0000
# 1 vertex normals

vt 0.0000 1.0000 0.0000
vt 0.0000 0.0000 0.0000
vt 1.0000 1.0000 0.0000
vt 1.0000 0.0000 0.0000
# 4 texture coords

g Plane007
usemtl wire_255255255
s 1
f 25/25/7 26/26/7 27/27/7 
f 28/28/7 27/27/7 26/26/7 
# 2 faces

#
# object Plane008
#

v  35.0000 0.0000 -0.0000
v  35.0000 0.0000 10.0000
v  45.0000 0.0000 -0.0000
v  45.0000 0.0000 10.0000
# 4 vertices

vn 0.0000 1.0000 -0.0000
# 1 vertex normals

vt 0.0000 1.0000 0.0000
vt 0.0000 0.0000 0.0000
vt 1.0000 1.0000 0.0000
vt 1.0000 0.0000 0.0000
# 4 texture coords

g Plane008
usemtl wire_255255255
s 1
f 29/29/8 30/30/8 31/31/8 
f 32/32/8 31/31/8 30/30/8 
# 2 faces

#
# object Plane009
#

v  -45.0000 0.0000 -0.0000
v  -45.0000 0.0000 10.0000
v  -35.0000 0.0000 -0.0000
v  -35.0000 0.0000 10.0000
# 4 vertices

vn 0.0000 1.0000 -0.0000
# 1 vertex normals

vt 0.0000 1.0000 0.0000
vt 0.0000 0.0000 0.0000
vt 1.0000 1.0000 0.0000
vt 1.0000 0.0000 0.0000
# 4 texture coords

g Plane009
usemtl wire_255255255
s 1
f 33/33/9 34/34/9 35/35/9 
f 36/36/9 35/35/9 34/34/9 
# 2 faces

#
# object Plane010
#

v  -5.0000 0.0000 -10.0000
v  -5.0000 0.0000 -0.0000
v  5.0000 0.0000 -10.0000
v  5.0000 0.0000 -0.0000
# 4 vertices

vn 0.0000 1.0000 -0.0000
# 1 vertex normals

vt 0.0000 1.0000 0.0000
vt 0.0000 0.0000 0.0000
vt 1.0000 1.0000 0.0000
vt 1.0000 0.0000 0.0000
# 4 texture coords

g Plane010
usemtl wire_000000000
s 1
f 37/37/10 38/38/10 39/39/10 
f 40/40/10 39/39/10 38/38/10 
# 2 faces

#
# object Plane011
#

v  -25.0000 0.0000 -10.0000
v  -25.0000 0.0000 -0.0000
v  -15.0000 0.0000 -10.0000
v  -15.0000 0.0000 -0.0000
# 4 vertices

vn 0.0000 1.0000 -0.0000
# 1 vertex normals

vt 0.0000 1.0000 0.0000
vt 0.0000 0.0000 0.0000
vt 1.0000 1.0000 0.0000
vt 1.0000 0.0000 0.0000
# 4 texture coords

g Plane011
usemtl wire_000000000
s 1
f 41/41/11 42/42/11 43/43/11 
f 44/44/11 43/43/11 42/42/11 
# 2 faces

#
# object Plane012
#

v  -45.0000 0.0000 -10.0000
v  -45.0000 0.0000 -0.0000
v  -35.0000 0.0000 -10.0000
v  -35.0000 0.0000 -0.0000
# 4 vertices

vn 0.0000 1.0000 -0.0000
# 1 vertex normals

vt 0.0000 1.0000 0.0000
vt 0.0000 0.0000 0.0000
vt 1.0000 1.0000 0.0000
vt 1.0000 0.0000 0.0000
# 4 texture coords

g Plane012
usemtl wire_000000000
s 1
f 45/45/12 46/46/12 47/47/12 
f 48/48/12 47/47/12 46/46/12 
# 2 faces

#
# object Plane013
#

v  15.0000 0.0000 -10.0000
v  15.0000 0.0000 -0.0000
v  25.0000 0.0000 -10.0000
v  25.0000 0.0000 -0.0000
# 4 vertices

vn 0.0000 1.0000 -0.0000
# 1 vertex normals

vt 0.0000 1.0000 0.0000
vt 0.0000 0.0000 0.0000
vt 1.0000 1.0000 0.0000
vt 1.0000 0.0000 0.0000
# 4 texture coords

g Plane013
usemtl wire_000000000
s 1
f 49/49/13 50/50/13 51/51/13 
f 52/52/13 51/51/13 50/50/13 
# 2 faces

#
# object Plane014
#

v  35.0000 0.0000 -10.0000
v  35.0000 0.0000 -0.0000
v  45.0000 0.0000 -10.0000
v  45.0000 0.0000 -0.0000
# 4 vertices

vn 0.0000 1.0000 -0.0000
# 1 vertex normals

vt 0.0000 1.0000 0.0000
vt 0.0000 0.0000 0.0000
vt 1.0000 1.0000 0.0000
vt 1.0000 0.0000 0.0000
# 4 texture coords

g Plane014
usemtl wire_000000000
s 1
f 53/53/14 54/54/14 55/55/14 
f 56/56/14 55/55/14 54/54/14 
# 2 faces

#
# object Plane015
#

v  25.0000 0.0000 -0.0000
v  25.0000 0.0000 10.0000
v  35.0000 0.0000 -0.0000
v  35.0000 0.0000 10.0000
# 4 vertices

vn 0.0000 1.0000 -0.0000
# 1 vertex normals

vt 0.0000 1.0000 0.0000
vt 0.0000 0.0000 0.0000
vt 1.0000 1.0000 0.0000
vt 1.0000 0.0000 0.0000
# 4 texture coords

g Plane015
usemtl wire_000000000
s 1
f 57/57/15 58/58/15 59/59/15 
f 60/60/15 59/59/15 58/58/15 
# 2 faces

#
# object Plane016
#

v  5.0000 0.0000 -0.0000
v  5.0000 0.0000 10.0000
v  15.0000 0.0000 -0.0000
v  15.0000 0.0000 10.0000
# 4 vertices

vn 0.0000 1.0000 -0.0000
# 1 vertex normals

vt 0.0000 1.0000 0.0000
vt 0.0000 0.0000 0.0000
vt 1.0000 1.0000 0.0000
vt 1.0000 0.0000 0.0000
# 4 texture coords

g Plane016
usemtl wire_000000000
s 1
f 61/61/16 62/62/16 63/63/16 
f 64/64/16 63/63/16 62/62/16 
# 2 faces

#
# object Plane017
#

v  -15.0000 0.0000 -0.0000
v  -15.0000 0.0000 10.0000
v  -5.0000 0.0000 -0.0000
v  -5.0000 0.0000 10.0000
# 4 vertices

vn 0.0000 1.0000 -0.0000
# 1 vertex normals

vt 0.0000 1.0000 0.0000
vt 0.0000 0.0000 0.0000
vt 1.0000 1.0000 0.0000
vt 1.0000 0.0000 0.0000
# 4 texture coords

g Plane017
usemtl wire_000000000
s 1
f 65/65/17 66/66/17 67/67/17 
f 68/68/17 67/67/17 66/66/17 
# 2 faces

#
# object Plane018
#

v  -35.0000 0.0000 -0.0000
v  -35.0000 0.0000 10.0000
v  -25.0000 0.0000 -0.0000
v  -25.0000 0.0000 10.0000
# 4 vertices

vn 0.0000 1.0000 -0.0000
# 1 vertex normals

vt 0.0000 1.0000 0.0000
vt 0.0000 0.0000 0.0000
vt 1.0000 1.0000 0.0000
vt 1.0000 0.0000 0.0000
# 4 texture coords

g Plane018
usemtl wire_000000000
s 1
f 69/69/18 70/70/18 71/71/18 
f 72/72/18 71/71/18 70/70/18 
# 2 faces

