# 3ds Max Wavefront OBJ Exporter v0.97b - (c)2007 guruware
# 作成したファイル : 18.03.2021 11:42:02

mtllib cource05grass_lake.mtl

#
# object 真_草原_穴
#

v  0.0000 -20.0000 200.0000
v  400.0000 0.0000 200.0000
v  0.0000 0.0000 200.0000
v  400.0000 -20.0000 200.0000
v  400.0000 0.0000 -200.0000
v  400.0000 -20.0000 -200.0000
v  0.0000 0.0000 -200.0000
v  0.0000 -20.0000 -200.0000
v  205.1930 -20.0000 172.9440
v  185.3000 -20.0000 169.0940
v  205.1930 0.0000 172.9440
v  185.3000 0.0000 169.0940
v  138.7050 -20.0000 39.0730
v  137.7650 0.0000 67.1220
v  137.7650 -20.0000 67.1220
v  139.2080 -20.0000 88.6570
v  139.2080 0.0000 88.6570
v  144.6660 -20.0000 117.1910
v  144.6660 0.0000 117.1910
v  154.4430 -20.0000 140.6710
v  168.1640 0.0000 158.1971
v  168.1640 -20.0000 158.1971
v  230.0670 0.0000 173.2530
v  230.0670 -20.0000 173.2530
v  260.9700 0.0000 168.9130
v  260.9700 -20.0000 168.9130
v  298.1050 -20.0000 160.5040
v  298.1050 0.0000 160.5040
v  326.5470 -20.0000 153.1660
v  326.5470 0.0000 153.1660
v  347.3320 -20.0000 130.6890
v  347.3320 0.0000 130.6890
v  361.7880 -20.0000 101.1670
v  361.7880 0.0000 101.1670
v  368.4370 -20.0000 60.5190
v  368.4370 0.0000 60.5190
v  369.8450 -20.0000 12.0520
v  369.8450 0.0000 12.0520
v  372.4690 -20.0000 -17.4690
v  371.8870 0.0000 -52.5650
v  371.8870 -20.0000 -52.5650
v  367.5650 0.0000 -84.4640
v  367.5650 -20.0000 -84.4640
v  362.1070 -20.0000 -112.9980
v  362.1070 0.0000 -112.9980
v  352.3300 -20.0000 -136.4780
v  352.3300 0.0000 -136.4780
v  338.6100 -20.0000 -154.0040
v  338.6100 0.0000 -154.0040
v  321.4740 -20.0000 -164.9010
v  321.4740 0.0000 -164.9010
v  301.5800 -20.0000 -168.7510
v  301.5800 0.0000 -168.7510
v  279.6940 -20.0000 -165.4060
v  256.6560 0.0000 -154.9950
v  256.6560 -20.0000 -154.9950
v  233.3510 -20.0000 -137.9160
v  233.3510 0.0000 -137.9160
v  210.6750 -20.0000 -114.8280
v  210.6750 0.0000 -114.8280
v  189.5000 -20.0000 -86.6170
v  189.5000 0.0000 -86.6170
v  170.6400 -20.0000 -54.3660
v  170.6400 0.0000 -54.3660
v  154.8180 -20.0000 -19.3170
v  145.4200 0.0000 9.7040
v  145.4200 -20.0000 9.7040
v  138.7050 0.0000 39.0730
v  279.6940 0.0000 -165.4060
v  154.8180 0.0000 -19.3170
v  154.4430 0.0000 140.6710
v  372.4690 0.0000 -17.4690
# 72 vertices

vn 0.0000 0.0000 1.0000
vn 1.0000 0.0000 -0.0000
vn 0.0000 0.0000 -1.0000
vn -1.0000 0.0000 -0.0000
vn 0.0000 -1.0000 -0.0000
vn 0.0000 1.0000 -0.0000
vn 0.9917 0.0000 0.1288
vn 0.9999 0.0000 -0.0167
vn 0.9918 0.0000 -0.1276
vn 0.9577 0.0000 -0.2877
vn 0.8631 0.0000 -0.5050
vn 0.6717 0.0000 -0.7408
vn 0.3698 0.0000 -0.9291
vn 0.1016 0.0000 -0.9948
vn -0.0635 0.0000 -0.9980
vn -0.1801 0.0000 -0.9836
vn -0.2354 0.0000 -0.9719
vn -0.5128 0.0000 -0.8585
vn -0.8249 0.0000 -0.5653
vn -0.9527 0.0000 -0.3039
vn -0.9954 0.0000 -0.0954
vn -0.9983 0.0000 -0.0588
vn -0.9994 0.0000 -0.0360
vn -0.9971 0.0000 0.0756
vn -0.9869 0.0000 0.1611
vn -0.9577 0.0000 0.2877
vn -0.8631 0.0000 0.5050
vn -0.6717 0.0000 0.7408
vn -0.3698 0.0000 0.9291
vn -0.0197 0.0000 0.9998
vn 0.2841 0.0000 0.9588
vn 0.5042 0.0000 0.8636
vn 0.6544 0.0000 0.7561
vn 0.7583 0.0000 0.6519
vn 0.8329 0.0000 0.5535
vn 0.8886 0.0000 0.4588
vn 0.9328 0.0000 0.3603
vn 0.9640 0.0000 0.2657
# 38 vertex normals

vt 0.0000 0.0000 0.0000
vt 1.0000 1.0000 0.0000
vt 0.0000 1.0000 0.0000
vt 0.4870 0.0676 0.0000
vt 1.0000 0.0000 0.0000
vt 0.5367 0.0773 0.0000
vt 0.5130 0.0676 0.0000
vt 0.4633 0.0773 0.0000
vt 0.2813 0.2775 1.0000
vt 0.3125 0.6775 1.0000
vt 0.3125 0.2775 1.0000
vt 0.3438 0.2775 1.0000
vt 0.3438 0.6775 1.0000
vt 0.3750 0.2775 1.0000
vt 0.3750 0.6775 1.0000
vt 0.4063 0.2775 1.0000
vt 0.4375 0.6775 1.0000
vt 0.4375 0.2775 1.0000
vt 0.4688 0.2775 1.0000
vt 0.4688 0.6775 1.0000
vt 0.5000 0.2775 1.0000
vt 0.5313 0.6775 1.0000
vt 0.5313 0.2775 1.0000
vt 0.5625 0.6775 1.0000
vt 0.5625 0.2775 1.0000
vt 0.5938 0.2775 1.0000
vt 0.5938 0.6775 1.0000
vt 0.6250 0.2775 1.0000
vt 0.6250 0.6775 1.0000
vt 0.6563 0.2775 1.0000
vt 0.6563 0.6775 1.0000
vt 0.6875 0.2775 1.0000
vt 0.6875 0.6775 1.0000
vt 0.7188 0.2775 1.0000
vt 0.7188 0.6775 1.0000
vt 0.7500 0.2775 1.0000
vt 0.7500 0.6775 1.0000
vt 0.7813 0.2775 1.0000
vt 0.8125 0.6775 1.0000
vt 0.8125 0.2775 1.0000
vt 0.8438 0.6775 1.0000
vt 0.8437 0.2775 1.0000
vt 0.8437 0.6775 1.0000
vt 0.8750 0.2775 1.0000
vt 0.8438 0.2775 1.0000
vt 0.8750 0.6775 1.0000
vt 0.9062 0.2775 1.0000
vt 0.9062 0.6775 1.0000
vt 0.9375 0.2775 1.0000
vt 0.9375 0.6775 1.0000
vt 0.9688 0.2775 1.0000
vt 0.9687 0.6775 1.0000
vt 1.0000 0.2775 1.0000
vt 1.0000 0.6775 1.0000
vt 1.0313 0.2775 1.0000
vt 0.0313 0.2775 1.0000
vt 0.0625 0.6775 1.0000
vt 0.0625 0.2775 1.0000
vt 0.0938 0.2775 1.0000
vt 0.0937 0.6775 1.0000
vt 0.1250 0.2775 1.0000
vt 0.1250 0.6775 1.0000
vt 0.1563 0.2775 1.0000
vt 0.1563 0.6775 1.0000
vt 0.1875 0.2775 1.0000
vt 0.1875 0.6775 1.0000
vt 0.2188 0.2775 1.0000
vt 0.2500 0.6775 1.0000
vt 0.2500 0.2775 1.0000
vt 0.2813 0.6775 1.0000
vt 0.1192 0.8412 0.0000
vt 0.1535 0.8850 0.0000
vt 0.1963 0.9123 0.0000
vt 0.0947 0.7825 0.0000
vt 0.2461 0.9219 0.0000
vt 0.3008 0.9135 0.0000
vt 0.3584 0.8875 0.0000
vt 0.4166 0.8448 0.0000
vt 0.4733 0.7871 0.0000
vt 0.5263 0.7165 0.0000
vt 0.5734 0.6359 0.0000
vt 0.6130 0.5483 0.0000
vt 0.6364 0.4757 0.0000
vt 0.6532 0.4023 0.0000
vt 0.6556 0.3322 0.0000
vt 0.6520 0.2784 0.0000
vt 0.6383 0.2070 0.0000
vt 0.6139 0.1483 0.0000
vt 0.5796 0.1045 0.0000
vt 0.0811 0.7112 0.0000
vt 0.0703 0.6314 0.0000
vt 0.0688 0.5437 0.0000
vt 0.0754 0.4699 0.0000
vt 0.0789 0.3487 0.0000
vt 0.0955 0.2471 0.0000
vt 0.1317 0.1733 0.0000
vt 0.1836 0.1171 0.0000
vt 0.2547 0.0987 0.0000
vt 0.3476 0.0777 0.0000
vt 0.4248 0.0669 0.0000
vt 0.8808 0.8412 0.0000
vt 0.8465 0.8850 0.0000
vt 0.8037 0.9123 0.0000
vt 0.9053 0.7825 0.0000
vt 0.7539 0.9219 0.0000
vt 0.6992 0.9135 0.0000
vt 0.6416 0.8875 0.0000
vt 0.5834 0.8448 0.0000
vt 0.5267 0.7871 0.0000
vt 0.4737 0.7165 0.0000
vt 0.4266 0.6359 0.0000
vt 0.3870 0.5483 0.0000
vt 0.3636 0.4757 0.0000
vt 0.3468 0.4023 0.0000
vt 0.3444 0.3322 0.0000
vt 0.3480 0.2784 0.0000
vt 0.3617 0.2070 0.0000
vt 0.3861 0.1483 0.0000
vt 0.4204 0.1045 0.0000
vt 0.9189 0.7112 0.0000
vt 0.9297 0.6314 0.0000
vt 0.9312 0.5437 0.0000
vt 0.9246 0.4699 0.0000
vt 0.9211 0.3487 0.0000
vt 0.9045 0.2471 0.0000
vt 0.8683 0.1733 0.0000
vt 0.8164 0.1171 0.0000
vt 0.7453 0.0987 0.0000
vt 0.6524 0.0777 0.0000
vt 0.5752 0.0669 0.0000
vt 0.4063 0.6775 1.0000
vt 0.5000 0.6775 1.0000
vt 0.7813 0.6775 1.0000
vt 0.9063 0.6775 1.0000
vt 0.9688 0.6775 1.0000
vt 1.0313 0.6775 1.0000
vt 0.0313 0.6775 1.0000
vt 0.2188 0.6775 1.0000
# 138 texture coords

g 真_草原_穴
usemtl Material__6
s 8
f 1/1/1 2/2/1 3/3/1 
s 16
f 4/1/2 5/2/2 2/3/2 
s 32
f 6/1/3 7/2/3 5/3/3 
s 64
f 8/1/4 3/2/4 7/3/4 
s 2
f 9/4/5 1/5/5 10/6/5 
s 4
f 3/1/6 11/7/6 12/8/6 
s 1
f 13/9/7 14/10/8 15/11/8 
f 14/10/8 16/12/9 15/11/8 
f 17/13/9 18/14/10 16/12/9 
f 19/15/10 20/16/11 18/14/10 
f 20/16/11 21/17/12 22/18/12 
f 21/17/12 10/19/13 22/18/12 
f 12/20/13 9/21/14 10/19/13 
f 9/21/14 23/22/15 24/23/15 
f 24/23/15 25/24/16 26/25/16 
f 25/24/16 27/26/17 26/25/16 
f 28/27/17 29/28/18 27/26/17 
f 30/29/18 31/30/19 29/28/18 
f 32/31/19 33/32/20 31/30/19 
f 34/33/20 35/34/21 33/32/20 
f 36/35/21 37/36/22 35/34/21 
f 38/37/22 39/38/23 37/36/22 
f 39/38/23 40/39/24 41/40/24 
f 41/40/24 42/41/25 43/42/25 
f 42/43/25 44/44/26 43/45/25 
f 45/46/26 46/47/27 44/44/26 
f 47/48/27 48/49/28 46/47/27 
f 49/50/28 50/51/29 48/49/28 
f 51/52/29 52/53/30 50/51/29 
f 53/54/30 54/55/31 52/53/30 
f 54/56/31 55/57/32 56/58/32 
f 55/57/32 57/59/33 56/58/32 
f 58/60/33 59/61/34 57/59/33 
f 60/62/34 61/63/35 59/61/34 
f 62/64/35 63/65/36 61/63/35 
f 64/66/36 65/67/37 63/65/36 
f 65/67/37 66/68/38 67/69/38 
f 67/69/38 68/70/7 13/9/7 
s 8
f 2/2/1 1/1/1 4/5/1 
s 16
f 5/2/2 4/1/2 6/5/2 
s 32
f 7/2/3 6/1/3 8/5/3 
s 64
f 3/2/4 8/1/4 1/5/4 
s 2
f 6/3/5 46/71/5 48/72/5 
f 50/73/5 6/3/5 48/72/5 
f 6/3/5 44/74/5 46/71/5 
f 52/75/5 6/3/5 50/73/5 
f 52/75/5 8/2/5 6/3/5 
f 54/76/5 8/2/5 52/75/5 
f 56/77/5 8/2/5 54/76/5 
f 57/78/5 8/2/5 56/77/5 
f 59/79/5 8/2/5 57/78/5 
f 61/80/5 8/2/5 59/79/5 
f 61/80/5 1/5/5 8/2/5 
f 63/81/5 1/5/5 61/80/5 
f 65/82/5 1/5/5 63/81/5 
f 67/83/5 1/5/5 65/82/5 
f 13/84/5 1/5/5 67/83/5 
f 15/85/5 1/5/5 13/84/5 
f 16/86/5 1/5/5 15/85/5 
f 18/87/5 1/5/5 16/86/5 
f 20/88/5 1/5/5 18/87/5 
f 22/89/5 1/5/5 20/88/5 
f 10/6/5 1/5/5 22/89/5 
f 6/3/5 43/90/5 44/74/5 
f 6/3/5 41/91/5 43/90/5 
f 4/1/5 41/91/5 6/3/5 
f 4/1/5 39/92/5 41/91/5 
f 4/1/5 37/93/5 39/92/5 
f 4/1/5 35/94/5 37/93/5 
f 4/1/5 33/95/5 35/94/5 
f 4/1/5 31/96/5 33/95/5 
f 4/1/5 29/97/5 31/96/5 
f 4/1/5 27/98/5 29/97/5 
f 4/1/5 26/99/5 27/98/5 
f 4/1/5 24/100/5 26/99/5 
f 1/5/5 24/100/5 4/1/5 
f 1/5/5 9/4/5 24/100/5 
s 4
f 47/101/6 5/2/6 49/102/6 
f 5/2/6 51/103/6 49/102/6 
f 45/104/6 5/2/6 47/101/6 
f 5/2/6 53/105/6 51/103/6 
f 7/3/6 53/105/6 5/2/6 
f 7/3/6 69/106/6 53/105/6 
f 7/3/6 55/107/6 69/106/6 
f 7/3/6 58/108/6 55/107/6 
f 7/3/6 60/109/6 58/108/6 
f 7/3/6 62/110/6 60/109/6 
f 3/1/6 62/110/6 7/3/6 
f 3/1/6 64/111/6 62/110/6 
f 3/1/6 70/112/6 64/111/6 
f 3/1/6 66/113/6 70/112/6 
f 3/1/6 68/114/6 66/113/6 
f 3/1/6 14/115/6 68/114/6 
f 3/1/6 17/116/6 14/115/6 
f 3/1/6 19/117/6 17/116/6 
f 3/1/6 71/118/6 19/117/6 
f 3/1/6 21/119/6 71/118/6 
f 3/1/6 12/8/6 21/119/6 
f 42/120/6 5/2/6 45/104/6 
f 40/121/6 5/2/6 42/120/6 
f 40/121/6 2/5/6 5/2/6 
f 72/122/6 2/5/6 40/121/6 
f 38/123/6 2/5/6 72/122/6 
f 36/124/6 2/5/6 38/123/6 
f 34/125/6 2/5/6 36/124/6 
f 32/126/6 2/5/6 34/125/6 
f 30/127/6 2/5/6 32/126/6 
f 28/128/6 2/5/6 30/127/6 
f 25/129/6 2/5/6 28/128/6 
f 23/130/6 2/5/6 25/129/6 
f 23/130/6 3/1/6 2/5/6 
f 11/7/6 3/1/6 23/130/6 
s 1
f 14/10/8 13/9/7 68/70/7 
f 16/12/9 14/10/8 17/13/9 
f 18/14/10 17/13/9 19/15/10 
f 20/16/11 19/15/10 71/131/11 
f 21/17/12 20/16/11 71/131/11 
f 10/19/13 21/17/12 12/20/13 
f 9/21/14 12/20/13 11/132/14 
f 23/22/15 9/21/14 11/132/14 
f 25/24/16 24/23/15 23/22/15 
f 27/26/17 25/24/16 28/27/17 
f 29/28/18 28/27/17 30/29/18 
f 31/30/19 30/29/18 32/31/19 
f 33/32/20 32/31/19 34/33/20 
f 35/34/21 34/33/20 36/35/21 
f 37/36/22 36/35/21 38/37/22 
f 39/38/23 38/37/22 72/133/23 
f 40/39/24 39/38/23 72/133/23 
f 42/41/25 41/40/24 40/39/24 
f 44/44/26 42/43/25 45/46/26 
f 46/47/27 45/46/26 47/134/27 
f 48/49/28 47/48/27 49/50/28 
f 50/51/29 49/50/28 51/135/29 
f 52/53/30 51/52/29 53/54/30 
f 54/55/31 53/54/30 69/136/31 
f 55/57/32 54/56/31 69/137/31 
f 57/59/33 55/57/32 58/60/33 
f 59/61/34 58/60/33 60/62/34 
f 61/63/35 60/62/34 62/64/35 
f 63/65/36 62/64/35 64/66/36 
f 65/67/37 64/66/36 70/138/37 
f 66/68/38 65/67/37 70/138/37 
f 68/70/7 67/69/38 66/68/38 
# 144 faces

