# 3ds Max Wavefront OBJ Exporter v0.97b - (c)2007 guruware
# 作成したファイル : 18.03.2021 12:20:18

mtllib cource05grass.mtl

#
# object 真_草原001
#

v  -400.0000 -20.0000 200.0000
v  -400.0000 -20.0000 -200.0000
v  0.0000 -20.0000 -200.0000
v  0.0000 -20.0000 200.0000
v  -400.0000 0.0000 200.0000
v  0.0000 0.0000 200.0000
v  0.0000 0.0000 -200.0000
v  -400.0000 0.0000 -200.0000
# 8 vertices

vn 0.0000 -1.0000 -0.0000
vn 0.0000 1.0000 -0.0000
vn 0.0000 0.0000 1.0000
vn 1.0000 0.0000 -0.0000
vn 0.0000 0.0000 -1.0000
vn -1.0000 0.0000 -0.0000
# 6 vertex normals

vt 1.0000 0.0000 0.0000
vt 1.0000 1.0000 0.0000
vt 0.0000 1.0000 0.0000
vt 0.0000 0.0000 0.0000
# 4 texture coords

g 真_草原001
usemtl Material__6
s 2
f 1/1/1 2/2/1 3/3/1 
f 3/3/1 4/4/1 1/1/1 
s 4
f 5/4/2 6/1/2 7/2/2 
f 7/2/2 8/3/2 5/4/2 
s 8
f 1/4/3 4/1/3 6/2/3 
f 6/2/3 5/3/3 1/4/3 
s 16
f 4/4/4 3/1/4 7/2/4 
f 7/2/4 6/3/4 4/4/4 
s 32
f 3/4/5 2/1/5 8/2/5 
f 8/2/5 7/3/5 3/4/5 
s 64
f 2/4/6 1/1/6 5/2/6 
f 5/2/6 8/3/6 2/4/6 
# 12 faces

#
# object 草原当たり判定無し
#

v  -1600.0000 0.0000 -1000.0000
v  -400.0000 0.0000 -200.0000
v  400.0000 0.0000 -200.0000
v  1200.0000 0.0000 -1000.0000
v  400.0000 0.0000 200.0000
v  1200.0000 0.0000 1000.0000
v  -400.0000 0.0000 200.0000
v  -1600.0000 0.0000 1000.0000
# 8 vertices

vn 0.0000 1.0000 -0.0000
# 1 vertex normals

vt -5.0000 3.0000 0.0000
vt -2.0000 1.0000 0.0000
vt 0.0000 1.0000 0.0000
vt 2.0000 3.0000 0.0000
vt 0.0000 -0.0000 0.0000
vt 2.0000 -2.0000 0.0000
vt -2.0000 -0.0000 0.0000
vt -5.0000 -2.0000 0.0000
# 8 texture coords

g 草原当たり判定無し
usemtl Material__6
s 1
f 9/5/7 10/6/7 11/7/7 
f 11/7/7 12/8/7 9/5/7 
f 11/7/7 13/9/7 14/10/7 
f 14/10/7 12/8/7 11/7/7 
f 13/9/7 15/11/7 16/12/7 
f 16/12/7 14/10/7 13/9/7 
f 10/6/7 9/5/7 16/12/7 
f 16/12/7 15/11/7 10/6/7 
# 8 faces

