# Blender v2.80 (sub 75) OBJ File: ''
# www.blender.org
mtllib missile.mtl
o SketchUp.549_ID1723
v -0.100768 0.066885 1.625470
v -0.001524 0.004873 2.121685
v -0.113173 0.004873 1.625470
v -0.100768 -0.057157 1.625470
v -0.100770 0.066885 -2.344244
v -0.051147 0.116516 1.625470
v -0.051147 -0.106790 1.625470
v -0.113175 0.004873 -2.344244
v -0.051148 0.116516 -2.344244
v 0.023285 0.128915 1.625470
v 0.023285 -0.106790 1.625470
v -0.100770 -0.057157 -2.344244
v -0.001527 0.004873 -2.344244
v 0.023283 0.128915 -2.344244
v 0.072907 0.091700 1.625470
v 0.072907 -0.081974 1.625470
v -0.051148 -0.106790 -2.344244
v 0.072906 0.091700 -2.344244
v 0.110125 0.042088 1.625470
v 0.110125 -0.032342 1.625470
v 0.023283 -0.106790 -2.344244
v 0.110121 0.042088 -2.344244
v 0.072906 -0.081974 -2.344244
v 0.110121 -0.032342 -2.344244
v -0.113173 0.004873 1.625470
v -0.001524 0.004873 2.121685
v -0.100768 0.066885 1.625470
v -0.100768 -0.057157 1.625470
v -0.100770 0.066885 -2.344244
v -0.051147 0.116516 1.625470
v -0.051147 -0.106790 1.625470
v -0.113175 0.004873 -2.344244
v -0.051148 0.116516 -2.344244
v 0.023285 0.128915 1.625470
v 0.023285 -0.106790 1.625470
v -0.100770 -0.057157 -2.344244
v -0.001527 0.004873 -2.344244
v 0.023283 0.128915 -2.344244
v 0.072907 0.091700 1.625470
v 0.072907 -0.081974 1.625470
v -0.051148 -0.106790 -2.344244
v 0.072906 0.091700 -2.344244
v 0.110125 0.042088 1.625470
v 0.110125 -0.032342 1.625470
v 0.023283 -0.106790 -2.344244
v 0.110121 0.042088 -2.344244
v 0.072906 -0.081974 -2.344244
v 0.110121 -0.032342 -2.344244
vn 0.8754 -0.4699 -0.1129
vn 0.0001 0.0040 -1.0000
vn 0.9940 -0.0000 -0.1089
vn 0.8755 0.4699 -0.1130
vn 0.6720 -0.3596 0.6473
vn 0.4534 -0.8835 -0.1175
vn 0.3807 0.9173 -0.1170
vn 0.7464 -0.0000 0.6655
vn 0.3499 -0.6799 0.6444
vn -0.2341 -0.9647 -0.1207
vn -0.2282 0.9672 -0.1112
vn 0.6720 0.3596 0.6473
vn 0.0000 0.0000 1.0000
vn -0.1843 -0.7558 0.6284
vn -0.7021 -0.7033 -0.1116
vn -0.6370 0.7628 -0.1112
vn 0.2971 0.7173 0.6303
vn -0.5206 -0.5207 0.6766
vn -0.9425 -0.3142 -0.1136
vn -0.9426 0.3141 -0.1136
vn -0.1729 0.7321 0.6589
vn -0.7271 -0.2424 0.6424
vn -0.4821 0.5775 0.6589
vn -0.7271 0.2423 0.6424
vn -0.9940 0.0000 0.1089
vn -0.0001 -0.0040 1.0000
vn -0.8754 0.4699 0.1129
vn -0.8755 -0.4699 0.1130
vn -0.6720 0.3596 -0.6473
vn -0.4534 0.8835 0.1175
vn -0.3807 -0.9173 0.1170
vn -0.7464 0.0000 -0.6655
vn -0.3499 0.6799 -0.6444
vn 0.2341 0.9647 0.1207
vn 0.2282 -0.9672 0.1112
vn -0.6720 -0.3596 -0.6473
vn 0.0000 0.0000 -1.0000
vn 0.1843 0.7558 -0.6284
vn 0.7021 0.7033 0.1116
vn 0.6370 -0.7628 0.1112
vn -0.2971 -0.7173 -0.6303
vn 0.5206 0.5207 -0.6766
vn 0.9425 0.3142 0.1136
vn 0.9426 -0.3141 0.1136
vn 0.1729 -0.7321 -0.6589
vn 0.7271 0.2424 -0.6424
vn 0.4821 -0.5775 -0.6589
vn 0.7271 -0.2423 -0.6424
usemtl CON_ROD1
s 1
f 1//1 2//2 3//3
f 3//3 2//2 4//4
f 5//5 1//1 3//3
f 6//6 2//2 1//1
f 4//4 2//2 7//7
f 8//8 3//3 4//4
f 9//9 1//1 5//5
f 5//5 3//3 8//8
f 9//9 6//6 1//1
f 10//10 2//2 6//6
f 11//11 7//7 2//2
f 12//12 4//4 7//7
f 8//8 4//4 12//12
f 9//9 5//5 13//13
f 5//5 8//8 13//13
f 14//14 6//6 9//9
f 10//10 6//6 14//14
f 15//15 2//2 10//10
f 16//16 11//11 2//2
f 11//11 17//17 7//7
f 12//12 7//7 17//17
f 8//8 12//12 13//13
f 14//14 9//9 13//13
f 18//18 10//10 14//14
f 15//15 10//10 18//18
f 19//19 2//2 15//15
f 16//16 2//2 20//20
f 16//16 21//21 11//11
f 11//11 21//21 17//17
f 13//13 12//12 17//17
f 14//14 13//13 18//18
f 22//22 15//15 18//18
f 22//22 19//19 15//15
f 20//20 2//2 19//19
f 23//23 16//16 20//20
f 16//16 23//23 21//21
f 13//13 17//17 21//21
f 18//18 13//13 22//22
f 24//24 19//19 22//22
f 24//24 20//20 19//19
f 23//23 20//20 24//24
f 13//13 21//21 23//23
f 22//22 13//13 24//24
f 13//13 23//23 24//24
usemtl __LightGray_
f 25//25 26//26 27//27
f 28//28 26//26 25//25
f 25//25 27//27 29//29
f 27//27 26//26 30//30
f 31//31 26//26 28//28
f 28//28 25//25 32//32
f 29//29 27//27 33//33
f 32//32 25//25 29//29
f 27//27 30//30 33//33
f 30//30 26//26 34//34
f 26//26 31//31 35//35
f 31//31 28//28 36//36
f 36//36 28//28 32//32
f 37//37 29//29 33//33
f 37//37 32//32 29//29
f 33//33 30//30 38//38
f 38//38 30//30 34//34
f 34//34 26//26 39//39
f 26//26 35//35 40//40
f 31//31 41//41 35//35
f 41//41 31//31 36//36
f 37//37 36//36 32//32
f 37//37 33//33 38//38
f 38//38 34//34 42//42
f 42//42 34//34 39//39
f 39//39 26//26 43//43
f 44//44 26//26 40//40
f 35//35 45//45 40//40
f 41//41 45//45 35//35
f 41//41 36//36 37//37
f 42//42 37//37 38//38
f 42//42 39//39 46//46
f 39//39 43//43 46//46
f 43//43 26//26 44//44
f 44//44 40//40 47//47
f 45//45 47//47 40//40
f 45//45 41//41 37//37
f 46//46 37//37 42//42
f 46//46 43//43 48//48
f 43//43 44//44 48//48
f 48//48 44//44 47//47
f 47//47 45//45 37//37
f 48//48 37//37 46//46
f 48//48 47//47 37//37
o SketchUp.550_ID1729
v -0.063554 0.091700 -1.798411
v -0.423309 0.439050 -2.195383
v -0.237229 0.265375 -2.096140
v -0.063554 0.091700 -2.294623
v -0.435714 0.426650 -2.195383
v -0.423309 0.439050 -2.294623
v -0.075960 0.066885 -1.798411
v -0.435714 0.426650 -2.294623
v -0.075960 0.066885 -2.294623
v -0.262040 0.252976 -2.096140
v -0.237229 0.265375 -2.096140
v -0.423309 0.439050 -2.195383
v -0.063554 0.091700 -1.798411
v -0.063554 0.091700 -2.294623
v -0.435714 0.426650 -2.195383
v -0.423309 0.439050 -2.294623
v -0.075960 0.066885 -1.798411
v -0.435714 0.426650 -2.294623
v -0.075960 0.066885 -2.294623
v -0.262040 0.252976 -2.096140
vn -0.5639 -0.2565 -0.7850
vn 0.0763 -0.9371 -0.3405
vn -0.6871 -0.7265 -0.0113
vn -0.7916 -0.1316 0.5967
vn 0.9382 -0.0599 -0.3409
vn 0.0111 -0.8146 0.5799
vn -0.0096 0.6896 -0.7241
vn 0.8165 -0.0001 0.5773
vn -0.1325 0.8163 0.5623
vn 0.7071 0.7071 0.0000
vn 0.6871 0.7265 0.0113
vn -0.0763 0.9371 0.3405
vn 0.5639 0.2565 0.7850
vn 0.7916 0.1316 -0.5967
vn -0.9382 0.0599 0.3409
vn -0.0111 0.8146 -0.5799
vn 0.0096 -0.6896 0.7241
vn -0.8165 0.0001 -0.5773
vn 0.1325 -0.8163 -0.5623
vn -0.7071 -0.7071 -0.0000
usemtl CON_ROD1
s 1
f 49//49 50//50 51//51
f 49//49 51//51 52//52
f 50//50 49//49 53//53
f 51//51 50//50 54//54
f 52//52 51//51 54//54
f 52//52 55//55 49//49
f 50//50 53//53 56//56
f 53//53 49//49 55//55
f 50//50 56//56 54//54
f 54//54 57//57 52//52
f 57//57 55//55 52//52
f 58//58 56//56 53//53
f 55//55 58//58 53//53
f 54//54 56//56 57//57
f 57//57 58//58 55//55
f 56//56 58//58 57//57
usemtl __DarkGray_
f 59//59 60//60 61//61
f 62//62 59//59 61//61
f 63//63 61//61 60//60
f 64//64 60//60 59//59
f 64//64 59//59 62//62
f 61//61 65//65 62//62
f 66//66 63//63 60//60
f 65//65 61//61 63//63
f 64//64 66//66 60//60
f 62//62 67//67 64//64
f 62//62 65//65 67//67
f 63//63 66//66 68//68
f 63//63 68//68 65//65
f 67//67 66//66 64//64
f 65//65 68//68 67//67
f 67//67 68//68 66//66
o SketchUp.551_ID1735
v 0.432661 0.426650 -2.195383
v 0.258986 0.252976 -2.096140
v 0.072906 0.066885 -1.798411
v 0.072906 0.066885 -2.294623
v 0.420256 0.439050 -2.195383
v 0.432661 0.426650 -2.294623
v 0.060502 0.091700 -1.798411
v 0.420256 0.439050 -2.294623
v 0.060502 0.091700 -2.294623
v 0.234175 0.265375 -2.096140
v 0.072906 0.066885 -1.798411
v 0.258986 0.252976 -2.096140
v 0.432661 0.426650 -2.195383
v 0.072906 0.066885 -2.294623
v 0.420256 0.439050 -2.195383
v 0.432661 0.426650 -2.294623
v 0.060502 0.091700 -1.798411
v 0.420256 0.439050 -2.294623
v 0.060502 0.091700 -2.294623
v 0.234175 0.265375 -2.096140
vn -0.9371 -0.0597 -0.3440
vn -0.7071 0.7071 0.0000
vn 0.0084 0.6884 -0.7252
vn 0.1325 0.8163 0.5623
vn -0.0762 -0.9360 -0.3436
vn -0.8165 -0.0001 0.5773
vn 0.5619 -0.2577 -0.7861
vn -0.0111 -0.8146 0.5799
vn 0.7916 -0.1316 0.5967
vn 0.6871 -0.7265 -0.0113
vn -0.0084 -0.6884 0.7252
vn 0.7071 -0.7071 -0.0000
vn 0.9371 0.0597 0.3440
vn -0.1325 -0.8163 -0.5623
vn 0.0762 0.9360 0.3436
vn 0.8165 0.0001 -0.5773
vn -0.5619 0.2577 0.7861
vn 0.0111 0.8146 -0.5799
vn -0.7916 0.1316 -0.5967
vn -0.6871 0.7265 0.0113
usemtl CON_ROD1
s 1
f 69//69 70//70 71//71
f 72//72 71//71 70//70
f 73//73 69//69 71//71
f 74//74 70//70 69//69
f 72//72 70//70 74//74
f 72//72 75//75 71//71
f 69//69 73//73 76//76
f 73//73 71//71 75//75
f 69//69 76//76 74//74
f 74//74 77//77 72//72
f 77//77 75//75 72//72
f 73//73 78//78 76//76
f 73//73 75//75 78//78
f 76//76 77//77 74//74
f 78//78 75//75 77//77
f 76//76 78//78 77//77
usemtl __DarkGray_
f 79//79 80//80 81//81
f 80//80 79//79 82//82
f 79//79 81//81 83//83
f 81//81 80//80 84//84
f 84//84 80//80 82//82
f 79//79 85//85 82//82
f 86//86 83//83 81//81
f 85//85 79//79 83//83
f 84//84 86//86 81//81
f 82//82 87//87 84//84
f 82//82 85//85 87//87
f 86//86 88//88 83//83
f 88//88 85//85 83//83
f 84//84 87//87 86//86
f 87//87 85//85 88//88
f 87//87 88//88 86//86
o SketchUp.552_ID1741
v 0.420256 -0.429322 -2.195383
v 0.234175 -0.243250 -2.096140
v 0.060502 -0.069575 -1.798411
v 0.060502 -0.069575 -2.294623
v 0.432661 -0.404506 -2.195383
v 0.420256 -0.429322 -2.294623
v 0.072906 -0.057157 -1.798411
v 0.432661 -0.404506 -2.294623
v 0.072906 -0.057157 -2.294623
v 0.258986 -0.230832 -2.096140
v 0.060502 -0.069575 -1.798411
v 0.234175 -0.243250 -2.096140
v 0.420256 -0.429322 -2.195383
v 0.060502 -0.069575 -2.294623
v 0.432661 -0.404506 -2.195383
v 0.420256 -0.429322 -2.294623
v 0.072906 -0.057157 -1.798411
v 0.432661 -0.404506 -2.294623
v 0.072906 -0.057157 -2.294623
v 0.258986 -0.230832 -2.096140
vn -0.1982 0.9152 -0.3509
vn 0.7071 0.7071 -0.0000
vn 0.6456 0.1322 -0.7521
vn 0.8165 0.0002 0.5774
vn -0.9402 -0.0846 -0.3299
vn -0.1325 0.8163 0.5623
vn -0.1250 -0.6436 -0.7551
vn -0.7916 -0.1316 0.5967
vn 0.0114 -0.8146 0.5799
vn -0.7030 -0.7111 -0.0128
vn -0.6456 -0.1322 0.7521
vn -0.7071 -0.7071 0.0000
vn 0.1982 -0.9152 0.3509
vn -0.8165 -0.0002 -0.5774
vn 0.9402 0.0846 0.3299
vn 0.1325 -0.8163 -0.5623
vn 0.1250 0.6436 0.7551
vn 0.7916 0.1316 -0.5967
vn -0.0114 0.8146 -0.5799
vn 0.7030 0.7111 0.0128
usemtl CON_ROD1
s 1
f 89//89 90//90 91//91
f 90//90 92//92 91//91
f 91//91 93//93 89//89
f 94//94 90//90 89//89
f 94//94 92//92 90//90
f 92//92 95//95 91//91
f 96//96 89//89 93//93
f 95//95 93//93 91//91
f 94//94 89//89 96//96
f 97//97 92//92 94//94
f 97//97 95//95 92//92
f 96//96 93//93 98//98
f 93//93 95//95 98//98
f 97//97 94//94 96//96
f 98//98 95//95 97//97
f 96//96 98//98 97//97
usemtl __DarkGray_
f 99//99 100//100 101//101
f 99//99 102//102 100//100
f 101//101 103//103 99//99
f 101//101 100//100 104//104
f 100//100 102//102 104//104
f 99//99 105//105 102//102
f 103//103 101//101 106//106
f 99//99 103//103 105//105
f 106//106 101//101 104//104
f 104//104 102//102 107//107
f 102//102 105//105 107//107
f 108//108 103//103 106//106
f 108//108 105//105 103//103
f 106//106 104//104 107//107
f 107//107 105//105 108//108
f 107//107 108//108 106//106
o SketchUp.553_ID1747
v -0.435714 -0.404507 -2.195383
v -0.262040 -0.230832 -2.096140
v -0.075960 -0.057157 -1.798411
v -0.075960 -0.057157 -2.294623
v -0.423309 -0.429322 -2.195383
v -0.435714 -0.404507 -2.294623
v -0.063554 -0.069575 -1.798411
v -0.423309 -0.429322 -2.294623
v -0.063554 -0.069575 -2.294623
v -0.237229 -0.243250 -2.096140
v -0.075960 -0.057157 -1.798411
v -0.262040 -0.230832 -2.096140
v -0.435714 -0.404507 -2.195383
v -0.075960 -0.057157 -2.294623
v -0.423309 -0.429322 -2.195383
v -0.435714 -0.404507 -2.294623
v -0.063554 -0.069575 -1.798411
v -0.423309 -0.429322 -2.294623
v -0.063554 -0.069575 -2.294623
v -0.237229 -0.243250 -2.096140
vn 0.9410 -0.0846 -0.3276
vn 0.7030 -0.7111 -0.0128
vn 0.1232 -0.6459 -0.7534
vn -0.0113 -0.8146 0.5799
vn 0.1984 0.9159 -0.3490
vn 0.7916 -0.1316 0.5967
vn -0.6480 0.1303 -0.7504
vn 0.1325 0.8163 0.5623
vn -0.8165 0.0002 0.5774
vn -0.7071 0.7071 -0.0000
vn -0.1232 0.6459 0.7534
vn -0.7030 0.7111 0.0128
vn -0.9410 0.0846 0.3276
vn 0.0113 0.8146 -0.5799
vn -0.1984 -0.9159 0.3490
vn -0.7916 0.1316 -0.5967
vn 0.6480 -0.1303 0.7504
vn -0.1325 -0.8163 -0.5623
vn 0.8165 -0.0002 -0.5774
vn 0.7071 -0.7071 0.0000
usemtl CON_ROD1
s 1
f 109//109 110//110 111//111
f 111//111 110//110 112//112
f 111//111 113//113 109//109
f 110//110 109//109 114//114
f 112//112 110//110 114//114
f 112//112 115//115 111//111
f 116//116 109//109 113//113
f 111//111 115//115 113//113
f 114//114 109//109 116//116
f 112//112 114//114 117//117
f 117//117 115//115 112//112
f 118//118 116//116 113//113
f 115//115 118//118 113//113
f 117//117 114//114 116//116
f 117//117 118//118 115//115
f 117//117 116//116 118//118
usemtl __DarkGray_
f 119//119 120//120 121//121
f 122//122 120//120 119//119
f 121//121 123//123 119//119
f 124//124 121//121 120//120
f 124//124 120//120 122//122
f 119//119 125//125 122//122
f 123//123 121//121 126//126
f 123//123 125//125 119//119
f 126//126 121//121 124//124
f 127//127 124//124 122//122
f 122//122 125//125 127//127
f 123//123 126//126 128//128
f 123//123 128//128 125//125
f 126//126 124//124 127//127
f 125//125 128//128 127//127
f 128//128 126//126 127//127
o SketchUp.554_ID1753
v -0.063554 0.091700 -0.061661
v -0.237226 0.265375 0.136824
v -0.423309 0.439050 -0.061661
v -0.435711 0.426650 -0.061661
v -0.063554 0.091700 0.335311
v -0.075960 0.066885 -0.061661
v -0.075960 0.066885 0.335311
v -0.423309 0.439050 -0.061661
v -0.237226 0.265375 0.136824
v -0.063554 0.091700 -0.061661
v -0.435711 0.426650 -0.061661
v -0.063554 0.091700 0.335311
v -0.075960 0.066885 -0.061661
v -0.075960 0.066885 0.335311
vn -0.7916 -0.1316 0.5967
vn -0.7000 -0.7141 0.0124
vn 0.1905 -0.9390 0.2863
vn 0.9457 -0.1764 0.2729
vn -0.5657 -0.2513 -0.7854
vn -0.1325 0.8163 0.5623
vn -0.0084 0.6884 -0.7252
vn -0.1905 0.9390 -0.2863
vn 0.7000 0.7141 -0.0124
vn 0.7916 0.1316 -0.5967
vn -0.9457 0.1764 -0.2729
vn 0.5657 0.2513 0.7854
vn 0.1325 -0.8163 -0.5623
vn 0.0084 -0.6884 0.7252
usemtl CON_ROD1
s 1
f 129//129 130//130 131//131
f 131//131 132//132 129//129
f 133//133 130//130 129//129
f 132//132 134//134 129//129
f 131//131 135//135 132//132
f 129//129 135//135 133//133
f 132//132 135//135 134//134
f 134//134 135//135 129//129
f 131//131 133//133 135//135
usemtl __DarkGray_
f 136//136 137//137 138//138
f 138//138 139//139 136//136
f 138//138 137//137 140//140
f 138//138 141//141 139//139
f 139//139 142//142 136//136
f 140//140 142//142 138//138
f 141//141 142//142 139//139
f 138//138 142//142 141//141
f 142//142 140//140 136//136
o SketchUp.555_ID1759
v 0.072906 0.066885 -0.061661
v 0.258987 0.252976 0.136824
v 0.432662 0.426650 -0.061661
v 0.420258 0.439050 -0.061661
v 0.072906 0.066885 0.335311
v 0.060502 0.091700 -0.061661
v 0.060502 0.091700 0.335311
v 0.432662 0.426650 -0.061661
v 0.258987 0.252976 0.136824
v 0.072906 0.066885 -0.061661
v 0.420258 0.439050 -0.061661
v 0.072906 0.066885 0.335311
v 0.060502 0.091700 -0.061661
v 0.060502 0.091700 0.335311
vn 0.1325 0.8163 0.5623
vn -0.7071 0.7071 -0.0000
vn -0.9476 -0.1642 0.2740
vn -0.1843 -0.9428 0.2777
vn 0.0014 0.6939 -0.7200
vn 0.7921 -0.1357 0.5951
vn 0.5644 -0.2597 -0.7836
vn 0.9476 0.1642 -0.2740
vn 0.7071 -0.7071 0.0000
vn -0.1325 -0.8163 -0.5623
vn 0.1843 0.9428 -0.2777
vn -0.0014 -0.6939 0.7200
vn -0.7921 0.1357 -0.5951
vn -0.5644 0.2597 0.7836
usemtl CON_ROD1
s 1
f 143//143 144//144 145//145
f 146//146 143//143 145//145
f 143//143 147//147 144//144
f 146//146 148//148 143//143
f 146//146 145//145 149//149
f 143//143 149//149 147//147
f 146//146 149//149 148//148
f 148//148 149//149 143//143
f 145//145 147//147 149//149
usemtl __DarkGray_
f 150//150 151//151 152//152
f 150//150 152//152 153//153
f 151//151 154//154 152//152
f 152//152 155//155 153//153
f 156//156 150//150 153//153
f 154//154 156//156 152//152
f 155//155 156//156 153//153
f 152//152 156//156 155//155
f 156//156 154//154 150//150
o SketchUp.556_ID1765
v 0.420258 -0.429322 -0.061661
v 0.060502 -0.069575 -0.061661
v 0.234178 -0.243250 0.136824
v 0.432662 -0.404507 -0.061661
v 0.060502 -0.069575 0.335311
v 0.072906 -0.057157 -0.061661
v 0.072906 -0.057157 0.335311
v 0.234178 -0.243250 0.136824
v 0.060502 -0.069575 -0.061661
v 0.420258 -0.429322 -0.061661
v 0.432662 -0.404507 -0.061661
v 0.060502 -0.069575 0.335311
v 0.072906 -0.057157 -0.061661
v 0.072906 -0.057157 0.335311
vn -0.3201 0.9124 0.2550
vn 0.8165 0.0002 0.5774
vn 0.7071 0.7071 0.0000
vn -0.9512 0.0217 0.3078
vn 0.6443 0.1237 -0.7547
vn 0.0074 -0.8158 0.5782
vn -0.1260 -0.6471 -0.7519
vn -0.7071 -0.7071 -0.0000
vn -0.8165 -0.0002 -0.5774
vn 0.3201 -0.9124 -0.2550
vn 0.9512 -0.0217 -0.3078
vn -0.6443 -0.1237 0.7547
vn -0.0074 0.8158 -0.5782
vn 0.1260 0.6471 0.7519
usemtl CON_ROD1
s 1
f 157//157 158//158 159//159
f 158//158 157//157 160//160
f 159//159 158//158 161//161
f 162//162 158//158 160//160
f 163//163 160//160 157//157
f 158//158 163//163 161//161
f 160//160 163//163 162//162
f 162//162 163//163 158//158
f 163//163 157//157 161//161
usemtl __DarkGray_
f 164//164 165//165 166//166
f 167//167 166//166 165//165
f 168//168 165//165 164//164
f 167//167 165//165 169//169
f 166//166 167//167 170//170
f 168//168 170//170 165//165
f 169//169 170//170 167//167
f 165//165 170//170 169//169
f 168//168 166//166 170//170
o SketchUp.557_ID1771
v -0.075960 -0.057157 -0.061661
v -0.262036 -0.230832 0.136824
v -0.435711 -0.404507 -0.061661
v -0.423309 -0.429322 -0.061661
v -0.075960 -0.057157 0.335311
v -0.063554 -0.069575 -0.061661
v -0.063554 -0.069575 0.335311
v -0.435711 -0.404507 -0.061661
v -0.262036 -0.230832 0.136824
v -0.075960 -0.057157 -0.061661
v -0.423309 -0.429322 -0.061661
v -0.075960 -0.057157 0.335311
v -0.063554 -0.069575 -0.061661
v -0.063554 -0.069575 0.335311
vn -0.0113 -0.8146 0.5799
vn 0.6894 -0.7243 0.0125
vn 0.9496 0.0183 0.3129
vn 0.3059 0.9184 0.2510
vn 0.1240 -0.6509 -0.7490
vn -0.8165 0.0002 0.5774
vn -0.6456 0.1322 -0.7521
vn -0.9496 -0.0183 -0.3129
vn -0.6894 0.7243 -0.0125
vn 0.0113 0.8146 -0.5799
vn -0.3059 -0.9184 -0.2510
vn -0.1240 0.6509 0.7490
vn 0.8165 -0.0002 -0.5774
vn 0.6456 -0.1322 0.7521
usemtl CON_ROD1
s 1
f 171//171 172//172 173//173
f 171//171 173//173 174//174
f 175//175 172//172 171//171
f 171//171 174//174 176//176
f 177//177 174//174 173//173
f 171//171 177//177 175//175
f 176//176 174//174 177//177
f 176//176 177//177 171//171
f 175//175 177//177 173//173
usemtl __DarkGray_
f 178//178 179//179 180//180
f 181//181 178//178 180//180
f 180//180 179//179 182//182
f 183//183 181//181 180//180
f 178//178 181//181 184//184
f 182//182 184//184 180//180
f 184//184 181//181 183//183
f 180//180 184//184 183//183
f 178//178 184//184 182//182
