# 3ds Max Wavefront OBJ Exporter v0.97b - (c)2007 guruware
# 作成したファイル : 09.03.2021 07:42:07

mtllib 新しいフォルダー\新しいフォルダー\Block02F.mtl

#
# object Box002f
#

v  -50.0000 45.0000 50.0000
v  50.0000 45.0000 50.0000
v  50.0000 45.0000 -50.0000
v  -50.0000 45.0000 -50.0000
# 4 vertices

vn 0.0000 1.0000 -0.0000
# 1 vertex normals

vt 0.0000 0.0000 0.0000
vt 1.0000 0.0000 0.0000
vt 1.0000 1.0000 0.0000
vt 0.0000 1.0000 0.0000
# 4 texture coords

g Box002f
usemtl wire_255255255
s 4
f 1/1/1 2/2/1 3/3/1 
f 3/3/1 4/4/1 1/1/1 
# 2 faces

