# 3ds Max Wavefront OBJ Exporter v0.97b - (c)2007 guruware
# 作成したファイル : 26.02.2021 10:29:42

mtllib 新しいフォルダー\Curve02_floor.mtl

#
# object fCurveTile80701
#

v  -42.6487 5.0000 -24.6389
v  -50.0000 5.0000 -25.0000
v  -50.0000 5.0000 25.0000
v  -47.5496 5.0000 25.1204
v  -35.3682 5.0000 -23.5589
v  -45.1227 5.0000 25.4804
v  -28.2287 5.0000 -21.7705
v  -42.7429 5.0000 26.0765
v  -21.2988 5.0000 -19.2910
v  -40.4329 5.0000 26.9030
v  -14.6453 5.0000 -16.1441
v  -38.2151 5.0000 27.9520
v  -8.3322 5.0000 -12.3602
v  -36.1107 5.0000 29.2133
v  -2.4205 5.0000 -7.9758
v  -34.1402 5.0000 30.6747
v  3.0330 5.0000 -3.0330
v  -32.3223 5.0000 32.3223
v  7.9758 5.0000 2.4205
v  -30.6747 5.0000 34.1402
v  12.3602 5.0000 8.3322
v  -29.2133 5.0000 36.1107
v  16.1441 5.0000 14.6452
v  -27.9520 5.0000 38.2151
v  19.2910 5.0000 21.2987
v  -26.9030 5.0000 40.4329
v  21.7705 5.0000 28.2286
v  -26.0765 5.0000 42.7429
v  23.5589 5.0000 35.3682
v  -25.4804 5.0000 45.1227
v  -25.1204 5.0000 47.5496
v  24.6389 5.0000 42.6487
v  -25.0000 5.0000 50.0000
v  25.0000 5.0000 50.0000
# 34 vertices

vn 0.0000 1.0000 -0.0000
# 1 vertex normals

vt 0.6601 1.0000 0.2433
vt 0.6609 1.0000 0.1469
vt 0.5536 1.0000 0.0490
vt 0.5534 1.0000 0.0811
vt 0.6578 1.0000 0.3373
vt 0.5526 1.0000 0.1124
vt 0.6540 1.0000 0.4281
vt 0.5513 1.0000 0.1427
vt 0.6486 1.0000 0.5147
vt 0.5495 1.0000 0.1716
vt 0.6419 1.0000 0.5964
vt 0.5473 1.0000 0.1988
vt 0.6337 1.0000 0.6724
vt 0.5446 1.0000 0.2241
vt 0.6243 1.0000 0.7418
vt 0.5414 1.0000 0.2473
vt 0.6137 1.0000 0.8042
vt 0.5379 1.0000 0.2681
vt 0.6020 1.0000 0.8588
vt 0.5340 1.0000 0.2863
vt 0.5893 1.0000 0.9051
vt 0.5298 1.0000 0.3017
vt 0.5757 1.0000 0.9427
vt 0.5252 1.0000 0.3142
vt 0.5614 1.0000 0.9712
vt 0.5205 1.0000 0.3237
vt 0.5466 1.0000 0.9904
vt 0.5155 1.0000 0.3301
vt 0.5313 1.0000 1.0000
vt 0.5104 1.0000 0.3333
vt 0.5052 1.0000 0.3333
vt 0.5156 1.0000 1.0000
vt 0.4999 1.0000 0.3301
vt 0.4998 1.0000 0.9904
# 34 texture coords

g fCurveTile80701
usemtl wire_224086086
s 1
f 1/1/1 2/2/1 3/3/1 
f 1/1/1 3/3/1 4/4/1 
f 5/5/1 1/1/1 4/4/1 
f 5/5/1 4/4/1 6/6/1 
f 7/7/1 5/5/1 6/6/1 
f 7/7/1 6/6/1 8/8/1 
f 9/9/1 7/7/1 8/8/1 
f 9/9/1 8/8/1 10/10/1 
f 11/11/1 9/9/1 10/10/1 
f 11/11/1 10/10/1 12/12/1 
f 13/13/1 11/11/1 12/12/1 
f 13/13/1 12/12/1 14/14/1 
f 15/15/1 13/13/1 14/14/1 
f 15/15/1 14/14/1 16/16/1 
f 17/17/1 15/15/1 16/16/1 
f 17/17/1 16/16/1 18/18/1 
f 19/19/1 17/17/1 18/18/1 
f 19/19/1 18/18/1 20/20/1 
f 21/21/1 19/19/1 20/20/1 
f 21/21/1 20/20/1 22/22/1 
f 23/23/1 21/21/1 22/22/1 
f 23/23/1 22/22/1 24/24/1 
f 25/25/1 23/23/1 24/24/1 
f 25/25/1 24/24/1 26/26/1 
f 27/27/1 25/25/1 26/26/1 
f 27/27/1 26/26/1 28/28/1 
f 29/29/1 27/27/1 28/28/1 
f 29/29/1 28/28/1 30/30/1 
f 29/29/1 30/30/1 31/31/1 
f 32/32/1 29/29/1 31/31/1 
f 32/32/1 31/31/1 33/33/1 
f 32/32/1 33/33/1 34/34/1 
# 32 faces

