# 3ds Max Wavefront OBJ Exporter v0.97b - (c)2007 guruware
# 作成したファイル : 04.03.2021 21:52:01

mtllib 新しいフォルダー\新しいフォルダー\Slope04_floor.mtl

#
# object fStraightSlope00103
#

v  -50.0000 5.0000 -25.0000
v  -50.0000 5.0000 25.0000
v  50.0000 50.0000 25.0000
v  50.0000 50.0000 -25.0000
# 4 vertices

vn -0.4104 0.9119 0.0000
# 1 vertex normals

vt 0.0000 0.0000 0.0000
vt 1.0000 0.0000 0.0000
vt 1.0000 1.0000 0.0000
vt 0.0000 1.0000 0.0000
# 4 texture coords

g fStraightSlope00103
usemtl wire_177088027
s 4
f 1/1/1 2/2/1 3/3/1 
f 3/3/1 4/4/1 1/1/1 
# 2 faces

