# 3ds Max Wavefront OBJ Exporter v0.97b - (c)2007 guruware
# 作成したファイル : 26.02.2021 11:07:16

mtllib 新しいフォルダー\Straight01_wall.mtl

#
# object wStraightTile00401
#

v  -25.0000 0.0000 50.0000
v  -25.0000 0.0000 -50.0000
v  25.0000 0.0000 -50.0000
v  25.0000 0.0000 50.0000
v  25.0000 5.0000 50.0000
v  -25.0000 5.0000 50.0000
v  25.0000 5.0000 -50.0000
v  -25.0000 5.0000 -50.0000
# 8 vertices

vn 0.0000 -1.0000 -0.0000
vn 0.0000 0.0000 1.0000
vn 1.0000 0.0000 -0.0000
vn 0.0000 0.0000 -1.0000
vn -1.0000 0.0000 -0.0000
# 5 vertex normals

vt 1.0000 0.0000 0.0000
vt 1.0000 1.0000 0.0000
vt 0.0000 1.0000 0.0000
vt 0.0000 0.0000 0.0000
# 4 texture coords

g wStraightTile00401
usemtl wire_176026026
s 2
f 1/1/1 2/2/1 3/3/1 
f 3/3/1 4/4/1 1/1/1 
s 8
f 1/4/2 4/1/2 5/2/2 
f 5/2/2 6/3/2 1/4/2 
s 16
f 4/4/3 3/1/3 7/2/3 
f 7/2/3 5/3/3 4/4/3 
s 32
f 3/4/4 2/1/4 8/2/4 
f 8/2/4 7/3/4 3/4/4 
s 64
f 2/4/5 1/1/5 6/2/5 
f 6/2/5 8/3/5 2/4/5 
# 10 faces

