# 3ds Max Wavefront OBJ Exporter v0.97b - (c)2007 guruware
# ì¬‚µ‚½ƒtƒ@ƒCƒ‹ : 02.03.2021 11:45:48

mtllib sunsunsumple.mtl

#
# object Cylinder001
#

v  24.3634 0.0000 -11.7093
v  21.9511 0.0000 -25.3901
v  21.9511 4.0000 -25.3901
v  24.3634 4.0000 -11.7093
v  15.0052 0.0000 -37.4208
v  15.0052 4.0000 -37.4208
v  4.3634 0.0000 -46.3503
v  4.3634 4.0000 -46.3503
v  -8.6907 0.0000 -51.1016
v  -8.6907 4.0000 -51.1016
v  -22.5825 0.0000 -51.1016
v  -22.5825 4.0000 -51.1016
v  -35.6366 0.0000 -46.3503
v  -35.6366 4.0000 -46.3503
v  -46.2784 0.0000 -37.4208
v  -46.2784 4.0000 -37.4208
v  -53.2243 0.0000 -25.3901
v  -53.2243 4.0000 -25.3901
v  -55.6366 0.0000 -11.7093
v  -55.6366 4.0000 -11.7093
v  -53.2243 0.0000 1.9715
v  -53.2243 4.0000 1.9715
v  -46.2784 0.0000 14.0022
v  -46.2784 4.0000 14.0022
v  -35.6366 0.0000 22.9317
v  -35.6366 4.0000 22.9317
v  -22.5825 0.0000 27.6830
v  -22.5825 4.0000 27.6830
v  -8.6907 0.0000 27.6830
v  -8.6907 4.0000 27.6830
v  4.3634 0.0000 22.9317
v  4.3634 4.0000 22.9317
v  15.0052 0.0000 14.0022
v  15.0052 4.0000 14.0022
v  21.9511 0.0000 1.9715
v  21.9511 4.0000 1.9715
v  14.3634 0.0000 -11.7093
v  12.5542 0.0000 -21.9699
v  7.3447 0.0000 -30.9930
v  -0.6366 0.0000 -37.6901
v  -10.4272 0.0000 -41.2536
v  -20.8460 0.0000 -41.2536
v  -30.6366 0.0000 -37.6901
v  -38.6179 0.0000 -30.9930
v  -43.8274 0.0000 -21.9699
v  -45.6366 0.0000 -11.7093
v  -43.8274 0.0000 -1.4487
v  -38.6179 0.0000 7.5743
v  -30.6366 0.0000 14.2714
v  -20.8461 0.0000 17.8349
v  -10.4272 0.0000 17.8349
v  -0.6366 0.0000 14.2714
v  7.3447 0.0000 7.5743
v  12.5542 0.0000 -1.4487
v  4.3634 0.0000 -11.7093
v  3.1573 0.0000 -18.5497
v  -0.3157 0.0000 -24.5651
v  -5.6366 0.0000 -29.0298
v  -12.1636 0.0000 -31.4055
v  -19.1096 0.0000 -31.4055
v  -25.6366 0.0000 -29.0298
v  -30.9575 0.0000 -24.5651
v  -34.4305 0.0000 -18.5497
v  -35.6366 0.0000 -11.7093
v  -34.4305 0.0000 -4.8689
v  -30.9575 0.0000 1.1464
v  -25.6366 0.0000 5.6112
v  -19.1096 0.0000 7.9868
v  -12.1636 0.0000 7.9868
v  -5.6366 0.0000 5.6112
v  -0.3157 0.0000 1.1464
v  3.1572 0.0000 -4.8689
v  -5.6366 0.0000 -11.7093
v  -6.2397 0.0000 -15.1295
v  -7.9762 0.0000 -18.1372
v  -10.6366 0.0000 -20.3696
v  -13.9001 0.0000 -21.5574
v  -17.3731 0.0000 -21.5574
v  -20.6366 0.0000 -20.3696
v  -23.2970 0.0000 -18.1372
v  -25.0335 0.0000 -15.1295
v  -25.6366 0.0000 -11.7093
v  -25.0335 0.0000 -8.2891
v  -23.2970 0.0000 -5.2814
v  -20.6366 0.0000 -3.0491
v  -17.3731 0.0000 -1.8612
v  -13.9001 0.0000 -1.8612
v  -10.6366 0.0000 -3.0491
v  -7.9762 0.0000 -5.2814
v  -6.2397 0.0000 -8.2891
v  -15.6366 0.0000 -11.7093
v  12.5542 7.0066 -21.9699
v  14.3634 7.0066 -11.7093
v  7.3447 7.0066 -30.9930
v  -0.6366 7.0066 -37.6901
v  -10.4272 7.0066 -41.2536
v  -20.8460 7.0066 -41.2536
v  -30.6366 7.0066 -37.6901
v  -38.6179 7.0066 -30.9930
v  -43.8274 7.0066 -21.9699
v  -45.6366 7.0066 -11.7093
v  -43.8274 7.0066 -1.4487
v  -38.6179 7.0066 7.5743
v  -30.6366 7.0066 14.2714
v  -20.8461 7.0066 17.8349
v  -10.4272 7.0066 17.8349
v  -0.6366 7.0066 14.2714
v  7.3447 7.0066 7.5743
v  12.5542 7.0066 -1.4487
v  3.1573 7.0066 -18.5497
v  4.3634 7.0066 -11.7093
v  -0.3157 7.0066 -24.5651
v  -5.6366 7.0066 -29.0298
v  -12.1636 7.0066 -31.4055
v  -19.1096 7.0066 -31.4055
v  -25.6366 7.0066 -29.0298
v  -30.9575 7.0066 -24.5651
v  -34.4305 7.0066 -18.5497
v  -35.6366 7.0066 -11.7093
v  -34.4305 7.0066 -4.8689
v  -30.9575 7.0066 1.1464
v  -25.6366 7.0066 5.6112
v  -19.1096 7.0066 7.9868
v  -12.1636 7.0066 7.9868
v  -5.6366 7.0066 5.6112
v  -0.3157 7.0066 1.1464
v  3.1572 7.0066 -4.8689
v  -6.2397 1.8933 -15.1295
v  -5.6366 1.8933 -11.7093
v  -7.9762 1.8933 -18.1372
v  -10.6366 1.8933 -20.3696
v  -13.9001 1.8933 -21.5574
v  -17.3731 1.8933 -21.5574
v  -20.6366 1.8933 -20.3696
v  -23.2970 1.8933 -18.1372
v  -25.0335 1.8933 -15.1295
v  -25.6366 1.8933 -11.7093
v  -25.0335 1.8933 -8.2891
v  -23.2970 1.8933 -5.2814
v  -20.6366 1.8933 -3.0491
v  -17.3731 1.8933 -1.8612
v  -13.9001 1.8933 -1.8612
v  -10.6366 1.8933 -3.0491
v  -7.9762 1.8933 -5.2814
v  -6.2397 1.8933 -8.2891
v  -15.6366 1.8933 -11.7093
# 146 vertices

vn 1.0000 0.0000 0.0000
vn 0.9397 0.0000 -0.3420
vn 0.7660 0.0000 -0.6428
vn 0.5000 0.0000 -0.8660
vn 0.1736 0.0000 -0.9848
vn -0.1736 0.0000 -0.9848
vn -0.5000 0.0000 -0.8660
vn -0.7660 0.0000 -0.6428
vn -0.9397 0.0000 -0.3420
vn -1.0000 0.0000 -0.0000
vn -0.9397 0.0000 0.3420
vn -0.7660 0.0000 0.6428
vn -0.5000 0.0000 0.8660
vn -0.1736 0.0000 0.9848
vn 0.1736 0.0000 0.9848
vn 0.5000 0.0000 0.8660
vn 0.7660 0.0000 0.6428
vn 0.9397 0.0000 0.3420
vn 0.0000 -1.0000 -0.0000
vn 0.2879 0.9577 0.0000
vn 0.2706 0.9577 -0.0985
vn 0.1515 0.9869 -0.0552
vn 0.1613 0.9869 0.0000
vn 0.2206 0.9577 -0.1851
vn 0.1235 0.9869 -0.1037
vn 0.1440 0.9577 -0.2494
vn 0.0806 0.9869 -0.1397
vn 0.0500 0.9577 -0.2836
vn 0.0280 0.9869 -0.1588
vn -0.0500 0.9577 -0.2836
vn -0.0280 0.9869 -0.1588
vn -0.1440 0.9577 -0.2494
vn -0.0806 0.9869 -0.1397
vn -0.2206 0.9577 -0.1851
vn -0.1235 0.9869 -0.1037
vn -0.2706 0.9577 -0.0985
vn -0.1515 0.9869 -0.0552
vn -0.2879 0.9577 -0.0000
vn -0.1613 0.9869 -0.0000
vn -0.2706 0.9577 0.0985
vn -0.1515 0.9869 0.0552
vn -0.2206 0.9577 0.1851
vn -0.1235 0.9869 0.1037
vn -0.1440 0.9577 0.2494
vn -0.0806 0.9869 0.1397
vn -0.0500 0.9577 0.2836
vn -0.0280 0.9869 0.1588
vn 0.0500 0.9577 0.2836
vn 0.0280 0.9869 0.1588
vn 0.1440 0.9577 0.2494
vn 0.0806 0.9869 0.1397
vn 0.2206 0.9577 0.1851
vn 0.1235 0.9869 0.1037
vn 0.2706 0.9577 0.0985
vn 0.1515 0.9869 0.0552
vn -0.1967 0.9779 0.0716
vn -0.2093 0.9779 -0.0000
vn -0.1603 0.9779 0.1345
vn -0.1046 0.9779 0.1812
vn -0.0363 0.9779 0.2061
vn 0.0363 0.9779 0.2061
vn 0.1046 0.9779 0.1812
vn 0.1603 0.9779 0.1345
vn 0.1967 0.9779 0.0716
vn 0.2093 0.9779 0.0000
vn 0.1967 0.9779 -0.0716
vn 0.1603 0.9779 -0.1345
vn 0.1046 0.9779 -0.1812
vn 0.0363 0.9779 -0.2061
vn -0.0363 0.9779 -0.2061
vn -0.1046 0.9779 -0.1812
vn -0.1603 0.9779 -0.1345
vn -0.1967 0.9779 -0.0716
vn -0.2428 0.9660 0.0884
vn -0.2584 0.9660 -0.0000
vn -0.1980 0.9660 0.1661
vn -0.1292 0.9660 0.2238
vn -0.0449 0.9660 0.2545
vn 0.0449 0.9660 0.2545
vn 0.1292 0.9660 0.2238
vn 0.1980 0.9660 0.1661
vn 0.2428 0.9660 0.0884
vn 0.2584 0.9660 0.0000
vn 0.2428 0.9660 -0.0884
vn 0.1980 0.9660 -0.1661
vn 0.1292 0.9660 -0.2238
vn 0.0449 0.9660 -0.2545
vn -0.0449 0.9660 -0.2545
vn -0.1292 0.9660 -0.2238
vn -0.1980 0.9660 -0.1661
vn -0.2428 0.9660 -0.0884
vn 0.0000 1.0000 -0.0000
# 92 vertex normals

vt 0.7500 0.0000 1.0000
vt 0.8056 0.0000 1.0000
vt 0.8056 1.0000 1.0000
vt 0.7500 1.0000 1.0000
vt 0.8611 0.0000 1.0000
vt 0.8611 1.0000 1.0000
vt 0.9167 0.0000 1.0000
vt 0.9167 1.0000 1.0000
vt 0.9722 0.0000 1.0000
vt 0.9722 1.0000 1.0000
vt 1.0278 0.0000 1.0000
vt 1.0278 1.0000 1.0000
vt 0.0278 0.0000 1.0000
vt 0.0833 0.0000 1.0000
vt 0.0833 1.0000 1.0000
vt 0.0278 1.0000 1.0000
vt 0.1389 0.0000 1.0000
vt 0.1389 1.0000 1.0000
vt 0.1944 0.0000 1.0000
vt 0.1944 1.0000 1.0000
vt 0.2500 0.0000 1.0000
vt 0.2500 1.0000 1.0000
vt 0.3056 0.0000 1.0000
vt 0.3056 1.0000 1.0000
vt 0.3611 0.0000 1.0000
vt 0.3611 1.0000 1.0000
vt 0.4167 0.0000 1.0000
vt 0.4167 1.0000 1.0000
vt 0.4722 0.0000 1.0000
vt 0.4722 1.0000 1.0000
vt 0.5278 0.0000 1.0000
vt 0.5278 1.0000 1.0000
vt 0.5833 0.0000 1.0000
vt 0.5833 1.0000 1.0000
vt 0.6389 0.0000 1.0000
vt 0.6389 1.0000 1.0000
vt 0.6944 0.0000 1.0000
vt 0.6944 1.0000 1.0000
vt 0.3290 0.9698 -0.2500
vt 0.5000 1.0000 -0.2500
vt 0.5000 0.8750 -0.2500
vt 0.3717 0.8524 -0.2500
vt 0.1786 0.8830 -0.2500
vt 0.2590 0.7873 -0.2500
vt 0.0670 0.7500 -0.2500
vt 0.1752 0.6875 -0.2500
vt 0.0076 0.5868 -0.2500
vt 0.1307 0.5651 -0.2500
vt 0.0076 0.4132 -0.2500
vt 0.1307 0.4349 -0.2500
vt 0.0670 0.2500 -0.2500
vt 0.1752 0.3125 -0.2500
vt 0.1786 0.1170 -0.2500
vt 0.2590 0.2127 -0.2500
vt 0.3290 0.0302 -0.2500
vt 0.3717 0.1476 -0.2500
vt 0.5000 0.0000 -0.2500
vt 0.5000 0.1250 -0.2500
vt 0.6710 0.0302 -0.2500
vt 0.6283 0.1476 -0.2500
vt 0.8214 0.1170 -0.2500
vt 0.7410 0.2127 -0.2500
vt 0.9330 0.2500 -0.2500
vt 0.8248 0.3125 -0.2500
vt 0.9924 0.4132 -0.2500
vt 0.8693 0.4349 -0.2500
vt 0.9924 0.5868 -0.2500
vt 0.8693 0.5651 -0.2500
vt 0.9330 0.7500 -0.2500
vt 0.8248 0.6875 -0.2500
vt 0.8214 0.8830 -0.2500
vt 0.7410 0.7873 -0.2500
vt 0.6710 0.9698 -0.2500
vt 0.6283 0.8524 -0.2500
vt 0.5000 0.7500 -0.2500
vt 0.4145 0.7349 -0.2500
vt 0.3393 0.6915 -0.2500
vt 0.2835 0.6250 -0.2500
vt 0.2538 0.5434 -0.2500
vt 0.2538 0.4566 -0.2500
vt 0.2835 0.3750 -0.2500
vt 0.3393 0.3085 -0.2500
vt 0.4145 0.2651 -0.2500
vt 0.5000 0.2500 -0.2500
vt 0.5855 0.2651 -0.2500
vt 0.6607 0.3085 -0.2500
vt 0.7165 0.3750 -0.2500
vt 0.7462 0.4566 -0.2500
vt 0.7462 0.5434 -0.2500
vt 0.7165 0.6250 -0.2500
vt 0.6607 0.6915 -0.2500
vt 0.5855 0.7349 -0.2500
vt 0.5000 0.6250 -0.2500
vt 0.4572 0.6175 -0.2500
vt 0.4197 0.5958 -0.2500
vt 0.3917 0.5625 -0.2500
vt 0.3769 0.5217 -0.2500
vt 0.3769 0.4783 -0.2500
vt 0.3917 0.4375 -0.2500
vt 0.4197 0.4042 -0.2500
vt 0.4572 0.3825 -0.2500
vt 0.5000 0.3750 -0.2500
vt 0.5428 0.3825 -0.2500
vt 0.5803 0.4042 -0.2500
vt 0.6083 0.4375 -0.2500
vt 0.6231 0.4783 -0.2500
vt 0.6231 0.5217 -0.2500
vt 0.6083 0.5625 -0.2500
vt 0.5803 0.5958 -0.2500
vt 0.5428 0.6175 -0.2500
vt 0.5000 0.5000 -0.2500
vt 0.5000 1.0000 0.2500
vt 0.3290 0.9698 0.2500
vt 0.3717 0.8524 0.2500
vt 0.5000 0.8750 0.2500
vt 0.1786 0.8830 0.2500
vt 0.2590 0.7873 0.2500
vt 0.0670 0.7500 0.2500
vt 0.1752 0.6875 0.2500
vt 0.0076 0.5868 0.2500
vt 0.1307 0.5651 0.2500
vt 0.0076 0.4132 0.2500
vt 0.1307 0.4349 0.2500
vt 0.0670 0.2500 0.2500
vt 0.1752 0.3125 0.2500
vt 0.1786 0.1170 0.2500
vt 0.2590 0.2127 0.2500
vt 0.3290 0.0302 0.2500
vt 0.3717 0.1476 0.2500
vt 0.5000 0.0000 0.2500
vt 0.5000 0.1250 0.2500
vt 0.6710 0.0302 0.2500
vt 0.6283 0.1476 0.2500
vt 0.8214 0.1170 0.2500
vt 0.7410 0.2127 0.2500
vt 0.9330 0.2500 0.2500
vt 0.8248 0.3125 0.2500
vt 0.9924 0.4132 0.2500
vt 0.8693 0.4349 0.2500
vt 0.9924 0.5868 0.2500
vt 0.8693 0.5651 0.2500
vt 0.9330 0.7500 0.2500
vt 0.8248 0.6875 0.2500
vt 0.8214 0.8830 0.2500
vt 0.7410 0.7873 0.2500
vt 0.6710 0.9698 0.2500
vt 0.6283 0.8524 0.2500
vt 0.4145 0.7349 0.2500
vt 0.5000 0.7500 0.2500
vt 0.3393 0.6915 0.2500
vt 0.2835 0.6250 0.2500
vt 0.2538 0.5434 0.2500
vt 0.2538 0.4566 0.2500
vt 0.2835 0.3750 0.2500
vt 0.3393 0.3085 0.2500
vt 0.4145 0.2651 0.2500
vt 0.5000 0.2500 0.2500
vt 0.5855 0.2651 0.2500
vt 0.6607 0.3085 0.2500
vt 0.7165 0.3750 0.2500
vt 0.7462 0.4566 0.2500
vt 0.7462 0.5434 0.2500
vt 0.7165 0.6250 0.2500
vt 0.6607 0.6915 0.2500
vt 0.5855 0.7349 0.2500
vt 0.4572 0.6175 0.2500
vt 0.5000 0.6250 0.2500
vt 0.4197 0.5958 0.2500
vt 0.3917 0.5625 0.2500
vt 0.3769 0.5217 0.2500
vt 0.3769 0.4783 0.2500
vt 0.3917 0.4375 0.2500
vt 0.4197 0.4042 0.2500
vt 0.4572 0.3825 0.2500
vt 0.5000 0.3750 0.2500
vt 0.5428 0.3825 0.2500
vt 0.5803 0.4042 0.2500
vt 0.6083 0.4375 0.2500
vt 0.6231 0.4783 0.2500
vt 0.6231 0.5217 0.2500
vt 0.6083 0.5625 0.2500
vt 0.5803 0.5958 0.2500
vt 0.5428 0.6175 0.2500
vt 0.5000 0.5000 0.2500
# 184 texture coords

g Cylinder001
usemtl wire_115115115
s 8
f 1/1/1 2/2/2 3/3/2 
f 3/3/2 4/4/1 1/1/1 
f 2/2/2 5/5/3 6/6/3 
f 6/6/3 3/3/2 2/2/2 
f 5/5/3 7/7/4 8/8/4 
f 8/8/4 6/6/3 5/5/3 
f 7/7/4 9/9/5 10/10/5 
f 10/10/5 8/8/4 7/7/4 
f 9/9/5 11/11/6 12/12/6 
f 12/12/6 10/10/5 9/9/5 
f 11/13/6 13/14/7 14/15/7 
f 14/15/7 12/16/6 11/13/6 
f 13/14/7 15/17/8 16/18/8 
f 16/18/8 14/15/7 13/14/7 
f 15/17/8 17/19/9 18/20/9 
f 18/20/9 16/18/8 15/17/8 
f 17/19/9 19/21/10 20/22/10 
f 20/22/10 18/20/9 17/19/9 
f 19/21/10 21/23/11 22/24/11 
f 22/24/11 20/22/10 19/21/10 
f 21/23/11 23/25/12 24/26/12 
f 24/26/12 22/24/11 21/23/11 
f 23/25/12 25/27/13 26/28/13 
f 26/28/13 24/26/12 23/25/12 
f 25/27/13 27/29/14 28/30/14 
f 28/30/14 26/28/13 25/27/13 
f 27/29/14 29/31/15 30/32/15 
f 30/32/15 28/30/14 27/29/14 
f 29/31/15 31/33/16 32/34/16 
f 32/34/16 30/32/15 29/31/15 
f 31/33/16 33/35/17 34/36/17 
f 34/36/17 32/34/16 31/33/16 
f 33/35/17 35/37/18 36/38/18 
f 36/38/18 34/36/17 33/35/17 
f 35/37/18 1/1/1 4/4/1 
f 4/4/1 36/38/18 35/37/18 
s 1
f 2/39/19 1/40/19 37/41/19 
f 37/41/19 38/42/19 2/39/19 
f 5/43/19 2/39/19 38/42/19 
f 38/42/19 39/44/19 5/43/19 
f 7/45/19 5/43/19 39/44/19 
f 39/44/19 40/46/19 7/45/19 
f 9/47/19 7/45/19 40/46/19 
f 40/46/19 41/48/19 9/47/19 
f 11/49/19 9/47/19 41/48/19 
f 41/48/19 42/50/19 11/49/19 
f 13/51/19 11/49/19 42/50/19 
f 42/50/19 43/52/19 13/51/19 
f 15/53/19 13/51/19 43/52/19 
f 43/52/19 44/54/19 15/53/19 
f 17/55/19 15/53/19 44/54/19 
f 44/54/19 45/56/19 17/55/19 
f 19/57/19 17/55/19 45/56/19 
f 45/56/19 46/58/19 19/57/19 
f 21/59/19 19/57/19 46/58/19 
f 46/58/19 47/60/19 21/59/19 
f 23/61/19 21/59/19 47/60/19 
f 47/60/19 48/62/19 23/61/19 
f 25/63/19 23/61/19 48/62/19 
f 48/62/19 49/64/19 25/63/19 
f 27/65/19 25/63/19 49/64/19 
f 49/64/19 50/66/19 27/65/19 
f 29/67/19 27/65/19 50/66/19 
f 50/66/19 51/68/19 29/67/19 
f 31/69/19 29/67/19 51/68/19 
f 51/68/19 52/70/19 31/69/19 
f 33/71/19 31/69/19 52/70/19 
f 52/70/19 53/72/19 33/71/19 
f 35/73/19 33/71/19 53/72/19 
f 53/72/19 54/74/19 35/73/19 
f 1/40/19 35/73/19 54/74/19 
f 54/74/19 37/41/19 1/40/19 
f 38/42/19 37/41/19 55/75/19 
f 55/75/19 56/76/19 38/42/19 
f 39/44/19 38/42/19 56/76/19 
f 56/76/19 57/77/19 39/44/19 
f 40/46/19 39/44/19 57/77/19 
f 57/77/19 58/78/19 40/46/19 
f 41/48/19 40/46/19 58/78/19 
f 58/78/19 59/79/19 41/48/19 
f 42/50/19 41/48/19 59/79/19 
f 59/79/19 60/80/19 42/50/19 
f 43/52/19 42/50/19 60/80/19 
f 60/80/19 61/81/19 43/52/19 
f 44/54/19 43/52/19 61/81/19 
f 61/81/19 62/82/19 44/54/19 
f 45/56/19 44/54/19 62/82/19 
f 62/82/19 63/83/19 45/56/19 
f 46/58/19 45/56/19 63/83/19 
f 63/83/19 64/84/19 46/58/19 
f 47/60/19 46/58/19 64/84/19 
f 64/84/19 65/85/19 47/60/19 
f 48/62/19 47/60/19 65/85/19 
f 65/85/19 66/86/19 48/62/19 
f 49/64/19 48/62/19 66/86/19 
f 66/86/19 67/87/19 49/64/19 
f 50/66/19 49/64/19 67/87/19 
f 67/87/19 68/88/19 50/66/19 
f 51/68/19 50/66/19 68/88/19 
f 68/88/19 69/89/19 51/68/19 
f 52/70/19 51/68/19 69/89/19 
f 69/89/19 70/90/19 52/70/19 
f 53/72/19 52/70/19 70/90/19 
f 70/90/19 71/91/19 53/72/19 
f 54/74/19 53/72/19 71/91/19 
f 71/91/19 72/92/19 54/74/19 
f 37/41/19 54/74/19 72/92/19 
f 72/92/19 55/75/19 37/41/19 
f 56/76/19 55/75/19 73/93/19 
f 73/93/19 74/94/19 56/76/19 
f 57/77/19 56/76/19 74/94/19 
f 74/94/19 75/95/19 57/77/19 
f 58/78/19 57/77/19 75/95/19 
f 75/95/19 76/96/19 58/78/19 
f 59/79/19 58/78/19 76/96/19 
f 76/96/19 77/97/19 59/79/19 
f 60/80/19 59/79/19 77/97/19 
f 77/97/19 78/98/19 60/80/19 
f 61/81/19 60/80/19 78/98/19 
f 78/98/19 79/99/19 61/81/19 
f 62/82/19 61/81/19 79/99/19 
f 79/99/19 80/100/19 62/82/19 
f 63/83/19 62/82/19 80/100/19 
f 80/100/19 81/101/19 63/83/19 
f 64/84/19 63/83/19 81/101/19 
f 81/101/19 82/102/19 64/84/19 
f 65/85/19 64/84/19 82/102/19 
f 82/102/19 83/103/19 65/85/19 
f 66/86/19 65/85/19 83/103/19 
f 83/103/19 84/104/19 66/86/19 
f 67/87/19 66/86/19 84/104/19 
f 84/104/19 85/105/19 67/87/19 
f 68/88/19 67/87/19 85/105/19 
f 85/105/19 86/106/19 68/88/19 
f 69/89/19 68/88/19 86/106/19 
f 86/106/19 87/107/19 69/89/19 
f 70/90/19 69/89/19 87/107/19 
f 87/107/19 88/108/19 70/90/19 
f 71/91/19 70/90/19 88/108/19 
f 88/108/19 89/109/19 71/91/19 
f 72/92/19 71/91/19 89/109/19 
f 89/109/19 90/110/19 72/92/19 
f 55/75/19 72/92/19 90/110/19 
f 90/110/19 73/93/19 55/75/19 
f 74/94/19 73/93/19 91/111/19 
f 75/95/19 74/94/19 91/111/19 
f 76/96/19 75/95/19 91/111/19 
f 77/97/19 76/96/19 91/111/19 
f 78/98/19 77/97/19 91/111/19 
f 79/99/19 78/98/19 91/111/19 
f 80/100/19 79/99/19 91/111/19 
f 81/101/19 80/100/19 91/111/19 
f 82/102/19 81/101/19 91/111/19 
f 83/103/19 82/102/19 91/111/19 
f 84/104/19 83/103/19 91/111/19 
f 85/105/19 84/104/19 91/111/19 
f 86/106/19 85/105/19 91/111/19 
f 87/107/19 86/106/19 91/111/19 
f 88/108/19 87/107/19 91/111/19 
f 89/109/19 88/108/19 91/111/19 
f 90/110/19 89/109/19 91/111/19 
f 73/93/19 90/110/19 91/111/19 
f 4/112/20 3/113/21 92/114/22 
f 92/114/22 93/115/23 4/112/20 
f 3/113/21 6/116/24 94/117/25 
f 94/117/25 92/114/22 3/113/21 
f 6/116/24 8/118/26 95/119/27 
f 95/119/27 94/117/25 6/116/24 
f 8/118/26 10/120/28 96/121/29 
f 96/121/29 95/119/27 8/118/26 
f 10/120/28 12/122/30 97/123/31 
f 97/123/31 96/121/29 10/120/28 
f 12/122/30 14/124/32 98/125/33 
f 98/125/33 97/123/31 12/122/30 
f 14/124/32 16/126/34 99/127/35 
f 99/127/35 98/125/33 14/124/32 
f 16/126/34 18/128/36 100/129/37 
f 100/129/37 99/127/35 16/126/34 
f 18/128/36 20/130/38 101/131/39 
f 101/131/39 100/129/37 18/128/36 
f 20/130/38 22/132/40 102/133/41 
f 102/133/41 101/131/39 20/130/38 
f 22/132/40 24/134/42 103/135/43 
f 103/135/43 102/133/41 22/132/40 
f 24/134/42 26/136/44 104/137/45 
f 104/137/45 103/135/43 24/134/42 
f 26/136/44 28/138/46 105/139/47 
f 105/139/47 104/137/45 26/136/44 
f 28/138/46 30/140/48 106/141/49 
f 106/141/49 105/139/47 28/138/46 
f 30/140/48 32/142/50 107/143/51 
f 107/143/51 106/141/49 30/140/48 
f 32/142/50 34/144/52 108/145/53 
f 108/145/53 107/143/51 32/142/50 
f 34/144/52 36/146/54 109/147/55 
f 109/147/55 108/145/53 34/144/52 
f 36/146/54 4/112/20 93/115/23 
f 93/115/23 109/147/55 36/146/54 
f 93/115/23 92/114/22 110/148/56 
f 110/148/56 111/149/57 93/115/23 
f 92/114/22 94/117/25 112/150/58 
f 112/150/58 110/148/56 92/114/22 
f 94/117/25 95/119/27 113/151/59 
f 113/151/59 112/150/58 94/117/25 
f 95/119/27 96/121/29 114/152/60 
f 114/152/60 113/151/59 95/119/27 
f 96/121/29 97/123/31 115/153/61 
f 115/153/61 114/152/60 96/121/29 
f 97/123/31 98/125/33 116/154/62 
f 116/154/62 115/153/61 97/123/31 
f 98/125/33 99/127/35 117/155/63 
f 117/155/63 116/154/62 98/125/33 
f 99/127/35 100/129/37 118/156/64 
f 118/156/64 117/155/63 99/127/35 
f 100/129/37 101/131/39 119/157/65 
f 119/157/65 118/156/64 100/129/37 
f 101/131/39 102/133/41 120/158/66 
f 120/158/66 119/157/65 101/131/39 
f 102/133/41 103/135/43 121/159/67 
f 121/159/67 120/158/66 102/133/41 
f 103/135/43 104/137/45 122/160/68 
f 122/160/68 121/159/67 103/135/43 
f 104/137/45 105/139/47 123/161/69 
f 123/161/69 122/160/68 104/137/45 
f 105/139/47 106/141/49 124/162/70 
f 124/162/70 123/161/69 105/139/47 
f 106/141/49 107/143/51 125/163/71 
f 125/163/71 124/162/70 106/141/49 
f 107/143/51 108/145/53 126/164/72 
f 126/164/72 125/163/71 107/143/51 
f 108/145/53 109/147/55 127/165/73 
f 127/165/73 126/164/72 108/145/53 
f 109/147/55 93/115/23 111/149/57 
f 111/149/57 127/165/73 109/147/55 
f 111/149/57 110/148/56 128/166/74 
f 128/166/74 129/167/75 111/149/57 
f 110/148/56 112/150/58 130/168/76 
f 130/168/76 128/166/74 110/148/56 
f 112/150/58 113/151/59 131/169/77 
f 131/169/77 130/168/76 112/150/58 
f 113/151/59 114/152/60 132/170/78 
f 132/170/78 131/169/77 113/151/59 
f 114/152/60 115/153/61 133/171/79 
f 133/171/79 132/170/78 114/152/60 
f 115/153/61 116/154/62 134/172/80 
f 134/172/80 133/171/79 115/153/61 
f 116/154/62 117/155/63 135/173/81 
f 135/173/81 134/172/80 116/154/62 
f 117/155/63 118/156/64 136/174/82 
f 136/174/82 135/173/81 117/155/63 
f 118/156/64 119/157/65 137/175/83 
f 137/175/83 136/174/82 118/156/64 
f 119/157/65 120/158/66 138/176/84 
f 138/176/84 137/175/83 119/157/65 
f 120/158/66 121/159/67 139/177/85 
f 139/177/85 138/176/84 120/158/66 
f 121/159/67 122/160/68 140/178/86 
f 140/178/86 139/177/85 121/159/67 
f 122/160/68 123/161/69 141/179/87 
f 141/179/87 140/178/86 122/160/68 
f 123/161/69 124/162/70 142/180/88 
f 142/180/88 141/179/87 123/161/69 
f 124/162/70 125/163/71 143/181/89 
f 143/181/89 142/180/88 124/162/70 
f 125/163/71 126/164/72 144/182/90 
f 144/182/90 143/181/89 125/163/71 
f 126/164/72 127/165/73 145/183/91 
f 145/183/91 144/182/90 126/164/72 
f 127/165/73 111/149/57 129/167/75 
f 129/167/75 145/183/91 127/165/73 
f 129/167/75 128/166/74 146/184/92 
f 128/166/74 130/168/76 146/184/92 
f 130/168/76 131/169/77 146/184/92 
f 131/169/77 132/170/78 146/184/92 
f 132/170/78 133/171/79 146/184/92 
f 133/171/79 134/172/80 146/184/92 
f 134/172/80 135/173/81 146/184/92 
f 135/173/81 136/174/82 146/184/92 
f 136/174/82 137/175/83 146/184/92 
f 137/175/83 138/176/84 146/184/92 
f 138/176/84 139/177/85 146/184/92 
f 139/177/85 140/178/86 146/184/92 
f 140/178/86 141/179/87 146/184/92 
f 141/179/87 142/180/88 146/184/92 
f 142/180/88 143/181/89 146/184/92 
f 143/181/89 144/182/90 146/184/92 
f 144/182/90 145/183/91 146/184/92 
f 145/183/91 129/167/75 146/184/92 
# 288 faces

