# 3ds Max Wavefront OBJ Exporter v0.97b - (c)2007 guruware
# ì¬‚µ‚½ƒtƒ@ƒCƒ‹ : 16.02.2021 12:40:49

mtllib cource03road.mtl

#
# object 03Road
#

v  -45.0147 10.0000 7.0104
v  -12.9984 10.0000 14.1678
v  -12.0182 10.0000 7.3407
v  -15.3340 25.0000 19.3293
v  -10.9278 25.0000 32.2178
v  -5.0185 25.0000 26.6419
v  55.7469 10.0000 99.2835
v  65.3163 10.0000 97.2921
v  61.8971 10.0000 108.7002
v  71.7049 10.0000 107.3619
v  63.1930 10.0000 114.6936
v  73.1449 10.0000 114.0212
v  63.6264 10.0000 120.7453
v  73.6264 10.0000 120.7453
v  63.1930 10.0000 126.7970
v  73.1449 10.0000 127.4694
v  61.8971 10.0000 132.7904
v  71.7049 10.0000 134.1288
v  59.7511 10.0000 138.6678
v  69.3204 10.0000 140.6592
v  56.7756 10.0000 144.3727
v  66.0144 10.0000 146.9979
v  52.9993 10.0000 149.8499
v  61.8185 10.0000 153.0837
v  48.4587 10.0000 155.0469
v  56.7734 10.0000 158.8582
v  43.1974 10.0000 159.9135
v  50.9275 10.0000 164.2655
v  37.2660 10.0000 164.4029
v  44.3371 10.0000 169.2538
v  30.7218 10.0000 168.4719
v  37.0658 10.0000 173.7748
v  23.6277 10.0000 172.0812
v  29.1834 10.0000 177.7852
v  16.0521 10.0000 175.1962
v  20.7661 10.0000 181.2463
v  8.0679 10.0000 177.7867
v  11.8948 10.0000 184.1247
v  -0.2480 10.0000 179.8279
v  2.6549 10.0000 186.3927
v  -8.8155 10.0000 181.3001
v  -6.8646 10.0000 188.0284
v  -17.5521 10.0000 182.1892
v  -16.5719 10.0000 189.0163
v  -41.1047 10.0000 182.4865
v  -41.1047 10.0000 189.3466
v  -49.9263 10.0000 182.1892
v  -50.9064 10.0000 189.0163
v  -58.6629 10.0000 181.3001
v  -60.6138 10.0000 188.0284
v  -67.2303 10.0000 179.8279
v  -70.1332 10.0000 186.3927
v  -75.5462 10.0000 177.7867
v  -79.3731 10.0000 184.1246
v  -83.5304 10.0000 175.1961
v  -88.2444 10.0000 181.2462
v  -91.1060 10.0000 172.0812
v  -96.6617 10.0000 177.7852
v  -98.2001 10.0000 168.4719
v  -104.5441 10.0000 173.7748
v  -104.7443 10.0000 164.4029
v  -111.8154 10.0000 169.2537
v  -110.6757 10.0000 159.9135
v  -118.4058 10.0000 164.2655
v  -115.9370 10.0000 155.0468
v  -124.2517 10.0000 158.8581
v  -120.4776 10.0000 149.8499
v  -129.2968 10.0000 153.0837
v  -127.9619 10.0000 142.1277
v  -135.2125 10.0000 144.7529
v  -132.1585 10.0000 134.8241
v  -141.7279 10.0000 136.8155
v  -137.7035 10.0000 125.0436
v  -147.5114 10.0000 126.3819
v  -146.2739 10.0000 110.0446
v  -156.2257 10.0000 110.7170
v  -152.1373 10.0000 95.9244
v  -162.1373 10.0000 95.9244
v  -158.6762 10.0000 76.1597
v  -168.6280 10.0000 75.4873
v  -157.3802 10.0000 63.5665
v  -167.1881 10.0000 62.2282
v  -155.2342 10.0000 57.6891
v  -164.8036 10.0000 55.6977
v  -152.2587 10.0000 51.9843
v  -161.4975 10.0000 49.3591
v  -148.4824 10.0000 46.5071
v  -157.3016 10.0000 43.2732
v  -143.9418 10.0000 41.3101
v  -152.2565 10.0000 37.4988
v  -138.6804 10.0000 36.4435
v  -146.4105 10.0000 32.0914
v  -132.7491 10.0000 31.9540
v  -139.8202 10.0000 27.1032
v  -126.2049 10.0000 27.8851
v  -132.5488 10.0000 22.5821
v  -119.1108 10.0000 24.2758
v  -124.6665 10.0000 18.5718
v  -111.5352 10.0000 21.1608
v  -116.2492 10.0000 15.1107
v  -103.5510 10.0000 18.5703
v  -107.3779 10.0000 12.2324
v  -95.2352 10.0000 16.5291
v  -98.1380 10.0000 9.9643
v  -86.6677 10.0000 15.0569
v  -88.6186 10.0000 8.3286
v  -77.9311 10.0000 14.1678
v  -78.9113 10.0000 7.3407
v  -45.0147 10.0000 13.8705
v  27.0917 25.0000 -120.4975
v  35.9133 25.0000 -113.6123
v  36.8935 25.0000 -120.1797
v  44.6499 25.0000 -112.7570
v  46.6008 25.0000 -119.2295
v  59.7131 25.0000 -111.3408
v  62.6159 25.0000 -117.6559
v  68.0290 25.0000 -109.3772
v  71.8558 25.0000 -115.4741
v  76.0132 25.0000 -106.8851
v  80.7271 25.0000 -112.7052
v  83.5888 25.0000 -103.8887
v  89.1445 25.0000 -109.3758
v  90.6829 25.0000 -100.4166
v  97.0268 25.0000 -105.5179
v  97.2271 25.0000 -96.5023
v  104.2981 25.0000 -101.1687
v  103.1584 25.0000 -92.1836
v  110.8885 25.0000 -96.3702
v  108.4197 25.0000 -87.5021
v  116.7344 25.0000 -91.1684
v  112.9604 25.0000 -82.5027
v  121.7796 25.0000 -85.6136
v  116.7366 25.0000 -77.2337
v  125.9754 25.0000 -79.7592
v  119.7121 25.0000 -71.7458
v  129.2815 25.0000 -73.6615
v  121.8581 25.0000 -66.0919
v  131.6660 25.0000 -67.3794
v  123.1541 25.0000 -60.3264
v  133.1059 25.0000 -60.9733
v  123.5875 25.0000 -54.5048
v  133.5875 25.0000 -54.5048
v  123.1541 25.0000 -48.6833
v  133.1059 25.0000 -48.0364
v  121.8581 25.0000 -42.9178
v  131.6660 25.0000 -41.6303
v  119.7121 25.0000 -37.2639
v  129.2815 25.0000 -35.3482
v  116.7366 25.0000 -31.7760
v  125.9754 25.0000 -29.2505
v  112.9604 25.0000 -26.5070
v  121.7796 25.0000 -23.3961
v  108.4197 25.0000 -21.5076
v  116.7344 25.0000 -17.8413
v  103.1584 25.0000 -16.8261
v  110.8885 25.0000 -12.6395
v  97.2271 25.0000 -12.5074
v  104.2981 25.0000 -7.8410
v  90.6829 25.0000 -8.5931
v  97.0268 25.0000 -3.4918
v  83.5888 25.0000 -5.1210
v  89.1445 25.0000 0.3661
v  76.0132 25.0000 -2.1245
v  80.7271 25.0000 3.6955
v  68.0290 25.0000 0.3675
v  71.8558 25.0000 6.4644
v  59.7131 25.0000 2.3311
v  62.6159 25.0000 8.6462
v  8.7986 10.0000 6.6338
v  10.7495 10.0000 13.1063
v  -12.0180 10.0000 7.3410
v  -12.9980 10.0000 14.1680
v  -19.5190 25.0000 26.3243
v  -22.9096 25.0000 15.0647
v  -28.4653 25.0000 20.5518
v  -30.0037 25.0000 11.5927
v  -36.3476 25.0000 16.6940
v  -36.5479 25.0000 7.6784
v  -43.6190 25.0000 12.3448
v  -42.4792 25.0000 3.3597
v  -50.2093 25.0000 7.5462
v  -47.7406 25.0000 -1.3219
v  -56.0553 25.0000 2.3445
v  -52.2812 25.0000 -6.3212
v  -61.1004 25.0000 -3.2104
v  -56.0574 25.0000 -11.5902
v  -65.2962 25.0000 -9.0648
v  -59.0329 25.0000 -17.0781
v  -68.6023 25.0000 -15.1624
v  -61.1790 25.0000 -22.7320
v  -70.9868 25.0000 -21.4446
v  -62.4749 25.0000 -28.4975
v  -72.4267 25.0000 -27.8507
v  -62.9083 25.0000 -34.3191
v  -72.9083 25.0000 -34.3191
v  -62.4749 25.0000 -40.1407
v  -72.4267 25.0000 -40.7875
v  -61.1789 25.0000 -66.0920
v  -70.9868 25.0000 -67.3794
v  -59.0329 25.0000 -71.7459
v  -68.6023 25.0000 -73.6616
v  -56.0574 25.0000 -77.2338
v  -65.2962 25.0000 -79.7592
v  -52.2811 25.0000 -82.5028
v  -61.1003 25.0000 -85.6136
v  -47.7405 25.0000 -87.5021
v  -56.0552 25.0000 -91.1685
v  -42.4791 25.0000 -92.1837
v  -50.2092 25.0000 -96.3702
v  -36.5478 25.0000 -96.5024
v  -43.6189 25.0000 -101.1688
v  -30.0036 25.0000 -100.4166
v  -36.3475 25.0000 -105.5179
v  -22.9095 25.0000 -103.8887
v  -28.4652 25.0000 -109.3758
v  -15.3339 25.0000 -106.8852
v  -20.0479 25.0000 -112.7052
v  -7.3497 25.0000 -109.3772
v  -11.1766 25.0000 -115.4741
v  0.9661 25.0000 -111.3408
v  -1.9367 25.0000 -117.6559
v  9.5336 25.0000 -112.7570
v  7.5827 25.0000 -119.2295
v  18.2702 25.0000 -113.6123
v  17.2900 25.0000 -120.1797
v  27.0917 25.0000 -113.8983
v  -19.5190 25.0000 26.3247
v  -15.3340 25.0000 19.3295
# 228 vertices

vn 0.0000 1.0000 -0.0000
vn 0.0501 0.9973 0.0531
vn 0.0559 0.9964 0.0632
vn 0.0250 0.9936 0.1099
vn 0.0123 0.9982 0.0593
vn -0.1591 0.9846 0.0731
vn -0.1127 0.9924 0.0501
vn -0.1170 0.9924 0.0369
vn -0.1563 0.9866 0.0471
vn -0.0000 1.0000 0.0000
vn 0.0000 1.0000 0.0000
# 11 vertex normals

vt 0.2500 0.0000 0.0000
vt 0.5000 0.0156 0.0000
vt 0.2500 0.0156 0.0000
vt 0.2500 0.1719 0.0000
vt 0.5000 0.1875 0.0000
vt 0.2500 0.1875 0.0000
vt 0.5000 0.2031 0.0000
vt 0.2500 0.2031 0.0000
vt 0.5000 0.2188 0.0000
vt 0.2500 0.2188 0.0000
vt 0.5000 0.2344 0.0000
vt 0.2500 0.2344 0.0000
vt 0.5000 0.2500 0.0000
vt 0.2500 0.2500 0.0000
vt 0.5000 0.2656 0.0000
vt 0.2500 0.2656 0.0000
vt 0.5000 0.2813 0.0000
vt 0.2500 0.2813 0.0000
vt 0.5000 0.2969 0.0000
vt 0.2500 0.2969 0.0000
vt 0.5000 0.3125 0.0000
vt 0.2500 0.3125 0.0000
vt 0.5000 0.3281 0.0000
vt 0.2500 0.3281 0.0000
vt 0.5000 0.3438 0.0000
vt 0.2500 0.3438 0.0000
vt 0.5000 0.3594 0.0000
vt 0.2500 0.3594 0.0000
vt 0.5000 0.3750 0.0000
vt 0.2500 0.3750 0.0000
vt 0.5000 0.3906 0.0000
vt 0.2500 0.3906 0.0000
vt 0.5000 0.4063 0.0000
vt 0.2500 0.4063 0.0000
vt 0.5000 0.4219 0.0000
vt 0.2500 0.4219 0.0000
vt 0.5000 0.4375 0.0000
vt 0.2500 0.4375 0.0000
vt 0.5000 0.4531 0.0000
vt 0.2500 0.4531 0.0000
vt 0.5000 0.4688 0.0000
vt 0.2500 0.4688 0.0000
vt 0.5000 0.4844 0.0000
vt 0.2500 0.4844 0.0000
vt 0.5000 0.5000 0.0000
vt 0.2500 0.5000 0.0000
vt 0.5000 0.5156 0.0000
vt 0.2500 0.5156 0.0000
vt 0.5000 0.5313 0.0000
vt 0.2500 0.5313 0.0000
vt 0.5000 0.5469 0.0000
vt 0.2500 0.5469 0.0000
vt 0.5000 0.5625 0.0000
vt 0.2500 0.5625 0.0000
vt 0.5000 0.5781 0.0000
vt 0.2500 0.5781 0.0000
vt 0.5000 0.5938 0.0000
vt 0.2500 0.5938 0.0000
vt 0.5000 0.6094 0.0000
vt 0.2500 0.6094 0.0000
vt 0.5000 0.6250 0.0000
vt 0.2500 0.6250 0.0000
vt 0.5000 0.6406 0.0000
vt 0.2500 0.6406 0.0000
vt 0.5000 0.6563 0.0000
vt 0.2500 0.6563 0.0000
vt 0.5000 0.6719 0.0000
vt 0.2500 0.6719 0.0000
vt 0.5000 0.6875 0.0000
vt 0.2500 0.6875 0.0000
vt 0.5000 0.7031 0.0000
vt 0.2500 0.7031 0.0000
vt 0.5000 0.7188 0.0000
vt 0.2500 0.7188 0.0000
vt 0.5000 0.7344 0.0000
vt 0.2500 0.7344 0.0000
vt 0.5000 0.7500 0.0000
vt 0.2500 0.7500 0.0000
vt 0.5000 0.7656 0.0000
vt 0.2500 0.7656 0.0000
vt 0.5000 0.7813 0.0000
vt 0.2500 0.7813 0.0000
vt 0.5000 0.7969 0.0000
vt 0.2500 0.7969 0.0000
vt 0.5000 0.8125 0.0000
vt 0.2500 0.8125 0.0000
vt 0.5000 0.8281 0.0000
vt 0.2500 0.8281 0.0000
vt 0.5000 0.8438 0.0000
vt 0.2500 0.8438 0.0000
vt 0.5000 0.8594 0.0000
vt 0.2500 0.8594 0.0000
vt 0.5000 0.8750 0.0000
vt 0.2500 0.8750 0.0000
vt 0.5000 0.8906 0.0000
vt 0.2500 0.8906 0.0000
vt 0.5000 0.9063 0.0000
vt 0.2500 0.9063 0.0000
vt 0.5000 0.9219 0.0000
vt 0.2500 0.9219 0.0000
vt 0.5000 0.9375 0.0000
vt 0.2500 0.9375 0.0000
vt 0.5000 0.9531 0.0000
vt 0.2500 0.9531 0.0000
vt 0.5000 0.9688 0.0000
vt 0.2500 0.9688 0.0000
vt 0.5000 0.9844 0.0000
vt 0.2500 0.9844 0.0000
vt 0.5000 1.0000 0.0000
vt 0.2500 1.0000 0.0000
vt 0.5000 0.0313 0.0000
vt 0.2500 0.0313 0.0000
vt 0.5000 0.0469 0.0000
vt 0.2500 0.0469 0.0000
vt 0.5000 0.0625 0.0000
vt 0.2500 0.0625 0.0000
vt 0.5000 0.0781 0.0000
vt 0.2500 0.0781 0.0000
vt 0.5000 0.0938 0.0000
vt 0.2500 0.0938 0.0000
vt 0.5000 0.1094 0.0000
vt 0.2500 0.1094 0.0000
vt 0.5000 0.1250 0.0000
vt 0.2500 0.1250 0.0000
vt 0.5000 0.1406 0.0000
vt 0.2500 0.1406 0.0000
vt 0.5000 0.1563 0.0000
vt 0.2500 0.1563 0.0000
vt 0.5000 0.1719 0.0000
vt 0.5000 0.0000 0.0000
# 130 texture coords

g 03Road
usemtl wire_225198087
s 4
f 1/1/1 2/2/1 3/3/1 
f 4/4/1 5/5/2 6/6/3 
f 6/6/3 7/7/4 8/8/5 
f 8/8/5 9/9/1 10/10/1 
f 10/10/1 11/11/1 12/12/1 
f 12/12/1 13/13/1 14/14/1 
f 14/14/1 15/15/1 16/16/1 
f 16/16/1 17/17/1 18/18/1 
f 18/18/1 19/19/1 20/20/1 
f 20/20/1 21/21/1 22/22/1 
f 22/22/1 23/23/1 24/24/1 
f 24/24/1 25/25/1 26/26/1 
f 26/26/1 27/27/1 28/28/1 
f 28/28/1 29/29/1 30/30/1 
f 30/30/1 31/31/1 32/32/1 
f 32/32/1 33/33/1 34/34/1 
f 34/34/1 35/35/1 36/36/1 
f 36/36/1 37/37/1 38/38/1 
f 38/38/1 39/39/1 40/40/1 
f 40/40/1 41/41/1 42/42/1 
f 42/42/1 43/43/1 44/44/1 
f 44/44/1 45/45/1 46/46/1 
f 46/46/1 47/47/1 48/48/1 
f 48/48/1 49/49/1 50/50/1 
f 50/50/1 51/51/1 52/52/1 
f 52/52/1 53/53/1 54/54/1 
f 54/54/1 55/55/1 56/56/1 
f 56/56/1 57/57/1 58/58/1 
f 58/58/1 59/59/1 60/60/1 
f 60/60/1 61/61/1 62/62/1 
f 62/62/1 63/63/1 64/64/1 
f 64/64/1 65/65/1 66/66/1 
f 66/66/1 67/67/1 68/68/1 
f 68/68/1 69/69/1 70/70/1 
f 70/70/1 71/71/1 72/72/1 
f 72/72/1 73/73/1 74/74/1 
f 74/74/1 75/75/1 76/76/1 
f 76/76/1 77/77/1 78/78/1 
f 78/78/1 79/79/1 80/80/1 
f 80/80/1 81/81/1 82/82/1 
f 82/82/1 83/83/1 84/84/1 
f 84/84/1 85/85/1 86/86/1 
f 86/86/1 87/87/1 88/88/1 
f 88/88/1 89/89/1 90/90/1 
f 90/90/1 91/91/1 92/92/1 
f 92/92/1 93/93/1 94/94/1 
f 94/94/1 95/95/1 96/96/1 
f 96/96/1 97/97/1 98/98/1 
f 98/98/1 99/99/1 100/100/1 
f 100/100/1 101/101/1 102/102/1 
f 102/102/1 103/103/1 104/104/1 
f 104/104/1 105/105/1 106/106/1 
f 106/106/1 107/107/1 108/108/1 
f 108/108/1 109/109/1 1/110/1 
f 110/1/1 111/2/1 112/3/1 
f 112/3/1 113/111/1 114/112/1 
f 114/112/1 115/113/1 116/114/1 
f 116/114/1 117/115/1 118/116/1 
f 118/116/1 119/117/1 120/118/1 
f 120/118/1 121/119/1 122/120/1 
f 122/120/1 123/121/1 124/122/1 
f 124/122/1 125/123/1 126/124/1 
f 126/124/1 127/125/1 128/126/1 
f 128/126/1 129/127/1 130/128/1 
f 130/128/1 131/129/1 132/4/1 
f 132/4/1 133/5/1 134/6/1 
f 134/6/1 135/7/1 136/8/1 
f 136/8/1 137/9/1 138/10/1 
f 138/10/1 139/11/1 140/12/1 
f 140/12/1 141/13/1 142/14/1 
f 142/14/1 143/15/1 144/16/1 
f 144/16/1 145/17/1 146/18/1 
f 146/18/1 147/19/1 148/20/1 
f 148/20/1 149/21/1 150/22/1 
f 150/22/1 151/23/1 152/24/1 
f 152/24/1 153/25/1 154/26/1 
f 154/26/1 155/27/1 156/28/1 
f 156/28/1 157/29/1 158/30/1 
f 158/30/1 159/31/1 160/32/1 
f 160/32/1 161/33/1 162/34/1 
f 162/34/1 163/35/1 164/36/1 
f 164/36/1 165/37/1 166/38/1 
f 166/38/1 167/39/6 168/40/7 
f 168/40/7 169/41/8 170/42/9 
f 170/42/9 171/43/1 172/44/1 
f 173/56/10 174/57/11 175/58/11 
f 175/58/11 176/59/1 177/60/1 
f 177/60/1 178/61/1 179/62/1 
f 179/62/1 180/63/1 181/64/1 
f 181/64/1 182/65/1 183/66/1 
f 183/66/1 184/67/1 185/68/1 
f 185/68/1 186/69/1 187/70/1 
f 187/70/1 188/71/1 189/72/1 
f 189/72/1 190/73/1 191/74/1 
f 191/74/1 192/75/1 193/76/1 
f 193/76/1 194/77/1 195/78/1 
f 195/78/1 196/79/1 197/80/1 
f 197/80/1 198/81/1 199/82/1 
f 199/82/1 200/83/1 201/84/1 
f 201/84/1 202/85/1 203/86/1 
f 203/86/1 204/87/1 205/88/1 
f 205/88/1 206/89/1 207/90/1 
f 207/90/1 208/91/1 209/92/1 
f 209/92/1 210/93/1 211/94/1 
f 211/94/1 212/95/1 213/96/1 
f 213/96/1 214/97/1 215/98/1 
f 215/98/1 216/99/1 217/100/1 
f 217/100/1 218/101/1 219/102/1 
f 219/102/1 220/103/1 221/104/1 
f 221/104/1 222/105/1 223/106/1 
f 223/106/1 224/107/1 225/108/1 
f 225/108/1 226/109/1 110/110/1 
f 1/1/1 109/130/1 2/2/1 
f 4/4/1 227/129/1 5/5/2 
f 6/6/3 5/5/2 7/7/4 
f 8/8/5 7/7/4 9/9/1 
f 10/10/1 9/9/1 11/11/1 
f 12/12/1 11/11/1 13/13/1 
f 14/14/1 13/13/1 15/15/1 
f 16/16/1 15/15/1 17/17/1 
f 18/18/1 17/17/1 19/19/1 
f 20/20/1 19/19/1 21/21/1 
f 22/22/1 21/21/1 23/23/1 
f 24/24/1 23/23/1 25/25/1 
f 26/26/1 25/25/1 27/27/1 
f 28/28/1 27/27/1 29/29/1 
f 30/30/1 29/29/1 31/31/1 
f 32/32/1 31/31/1 33/33/1 
f 34/34/1 33/33/1 35/35/1 
f 36/36/1 35/35/1 37/37/1 
f 38/38/1 37/37/1 39/39/1 
f 40/40/1 39/39/1 41/41/1 
f 42/42/1 41/41/1 43/43/1 
f 44/44/1 43/43/1 45/45/1 
f 46/46/1 45/45/1 47/47/1 
f 48/48/1 47/47/1 49/49/1 
f 50/50/1 49/49/1 51/51/1 
f 52/52/1 51/51/1 53/53/1 
f 54/54/1 53/53/1 55/55/1 
f 56/56/1 55/55/1 57/57/1 
f 58/58/1 57/57/1 59/59/1 
f 60/60/1 59/59/1 61/61/1 
f 62/62/1 61/61/1 63/63/1 
f 64/64/1 63/63/1 65/65/1 
f 66/66/1 65/65/1 67/67/1 
f 68/68/1 67/67/1 69/69/1 
f 70/70/1 69/69/1 71/71/1 
f 72/72/1 71/71/1 73/73/1 
f 74/74/1 73/73/1 75/75/1 
f 76/76/1 75/75/1 77/77/1 
f 78/78/1 77/77/1 79/79/1 
f 80/80/1 79/79/1 81/81/1 
f 82/82/1 81/81/1 83/83/1 
f 84/84/1 83/83/1 85/85/1 
f 86/86/1 85/85/1 87/87/1 
f 88/88/1 87/87/1 89/89/1 
f 90/90/1 89/89/1 91/91/1 
f 92/92/1 91/91/1 93/93/1 
f 94/94/1 93/93/1 95/95/1 
f 96/96/1 95/95/1 97/97/1 
f 98/98/1 97/97/1 99/99/1 
f 100/100/1 99/99/1 101/101/1 
f 102/102/1 101/101/1 103/103/1 
f 104/104/1 103/103/1 105/105/1 
f 106/106/1 105/105/1 107/107/1 
f 108/108/1 107/107/1 109/109/1 
f 110/1/1 226/130/1 111/2/1 
f 112/3/1 111/2/1 113/111/1 
f 114/112/1 113/111/1 115/113/1 
f 116/114/1 115/113/1 117/115/1 
f 118/116/1 117/115/1 119/117/1 
f 120/118/1 119/117/1 121/119/1 
f 122/120/1 121/119/1 123/121/1 
f 124/122/1 123/121/1 125/123/1 
f 126/124/1 125/123/1 127/125/1 
f 128/126/1 127/125/1 129/127/1 
f 130/128/1 129/127/1 131/129/1 
f 132/4/1 131/129/1 133/5/1 
f 134/6/1 133/5/1 135/7/1 
f 136/8/1 135/7/1 137/9/1 
f 138/10/1 137/9/1 139/11/1 
f 140/12/1 139/11/1 141/13/1 
f 142/14/1 141/13/1 143/15/1 
f 144/16/1 143/15/1 145/17/1 
f 146/18/1 145/17/1 147/19/1 
f 148/20/1 147/19/1 149/21/1 
f 150/22/1 149/21/1 151/23/1 
f 152/24/1 151/23/1 153/25/1 
f 154/26/1 153/25/1 155/27/1 
f 156/28/1 155/27/1 157/29/1 
f 158/30/1 157/29/1 159/31/1 
f 160/32/1 159/31/1 161/33/1 
f 162/34/1 161/33/1 163/35/1 
f 164/36/1 163/35/1 165/37/1 
f 166/38/1 165/37/1 167/39/6 
f 168/40/7 167/39/6 169/41/8 
f 170/42/9 169/41/8 171/43/1 
f 173/56/10 228/55/10 174/57/11 
f 175/58/11 174/57/11 176/59/1 
f 177/60/1 176/59/1 178/61/1 
f 179/62/1 178/61/1 180/63/1 
f 181/64/1 180/63/1 182/65/1 
f 183/66/1 182/65/1 184/67/1 
f 185/68/1 184/67/1 186/69/1 
f 187/70/1 186/69/1 188/71/1 
f 189/72/1 188/71/1 190/73/1 
f 191/74/1 190/73/1 192/75/1 
f 193/76/1 192/75/1 194/77/1 
f 195/78/1 194/77/1 196/79/1 
f 197/80/1 196/79/1 198/81/1 
f 199/82/1 198/81/1 200/83/1 
f 201/84/1 200/83/1 202/85/1 
f 203/86/1 202/85/1 204/87/1 
f 205/88/1 204/87/1 206/89/1 
f 207/90/1 206/89/1 208/91/1 
f 209/92/1 208/91/1 210/93/1 
f 211/94/1 210/93/1 212/95/1 
f 213/96/1 212/95/1 214/97/1 
f 215/98/1 214/97/1 216/99/1 
f 217/100/1 216/99/1 218/101/1 
f 219/102/1 218/101/1 220/103/1 
f 221/104/1 220/103/1 222/105/1 
f 223/106/1 222/105/1 224/107/1 
f 225/108/1 224/107/1 226/109/1 
# 0 polygons - 224 triangles

